<svg width="32" height="32" viewBox="0 0 32 32" fill="none" xmlns="http://www.w3.org/2000/svg">
<path fill-rule="evenodd" clip-rule="evenodd" d="M20.939 7C22.28 7 23.57 7.53 24.519 8.481C25.469 9.43 26 10.71 26 12.05V19.95C26 22.74 23.73 25 20.939 25H11.06C8.269 25 6 22.74 6 19.95V12.05C6 9.26 8.259 7 11.06 7H20.939ZM22.53 13.54L22.61 13.46C22.849 13.17 22.849 12.75 22.599 12.46C22.46 12.311 22.269 12.22 22.07 12.2C21.86 12.189 21.66 12.26 21.509 12.4L17 16C16.42 16.481 15.589 16.481 15 16L10.5 12.4C10.189 12.17 9.759 12.2 9.5 12.47C9.23 12.74 9.2 13.17 9.429 13.47L9.56 13.6L14.11 17.15C14.67 17.59 15.349 17.83 16.06 17.83C16.769 17.83 17.46 17.59 18.019 17.15L22.53 13.54Z" fill="white"/>
</svg>
