<svg width="52" height="53" viewBox="0 0 52 53" fill="none" xmlns="http://www.w3.org/2000/svg">
<rect y="0.5" width="52" height="52" rx="10" fill="#F8FAFF"/>
<path d="M28.08 34.65V34.5V32.29V32.2276L28.1242 32.1837L33.4579 26.8769L28.08 34.65ZM28.08 34.65H28.23M28.08 34.65H28.23M28.23 34.65H30.44H30.5021L30.5461 34.6061L35.8541 29.2981L35.8543 29.2983L35.8607 29.291C35.9577 29.1806 36.0315 29.0619 36.0794 28.9349L35.939 28.882M28.23 34.65L35.939 28.882M35.939 28.882L36.0794 28.9349C36.1259 28.8114 36.15 28.6861 36.15 28.56C36.15 28.4327 36.1241 28.3073 36.0741 28.1848M35.939 28.882L36.0743 28.1853C36.0742 28.1851 36.0741 28.185 36.0741 28.1848M36.0741 28.1848C36.025 28.0622 35.9541 27.9463 35.8634 27.8371L35.8637 27.8368L35.8551 27.828L34.9301 26.884L34.9295 26.8833C34.8291 26.7822 34.7118 26.7058 34.5786 26.6549L34.5781 26.6547C34.4501 26.6062 34.3208 26.581 34.191 26.581C34.0678 26.581 33.9455 26.6011 33.8246 26.6403L33.8244 26.6404M36.0741 28.1848L33.8244 26.6404M33.8244 26.6404C33.6912 26.684 33.5694 26.7656 33.4582 26.8767L33.8244 26.6404ZM26.0671 26.3278L26 26.2943L25.9329 26.3278L24.15 27.2193V22.458H27.85V27.2193L26.0671 26.3278ZM29.15 28.164V22.457H32.85V24.567V24.7838L33.0529 24.7074C33.2044 24.6503 33.3567 24.6074 33.5099 24.5784C33.6657 24.5489 33.8326 24.5276 34.0109 24.5146L34.15 24.5045V24.365V22.045C34.15 21.8335 34.1164 21.6301 34.0487 21.4357C33.9806 21.2395 33.878 21.0618 33.7417 20.9033L32.1681 18.9974C32.0081 18.7833 31.804 18.621 31.5578 18.5119C31.3144 18.4039 31.0577 18.35 30.789 18.35H21.173C20.9037 18.35 20.6493 18.4039 20.4116 18.5126C20.1721 18.622 19.9721 18.7846 19.8131 18.9982L18.2585 20.864C18.1229 21.0217 18.0202 21.1955 17.9519 21.3851C17.8836 21.5745 17.85 21.7751 17.85 21.986V32.885C17.85 33.3719 18.023 33.7911 18.3659 34.1341C18.7089 34.4771 19.1285 34.65 19.616 34.65H25.846H25.996V34.5V33.5V33.35H25.846H19.616C19.4713 33.35 19.3632 33.3051 19.2791 33.2209C19.1948 33.1367 19.15 33.0289 19.15 32.885V22.458H22.85V29.096V29.3387L23.0671 29.2302L26.0002 27.7636L28.3162 28.9153L28.4128 28.9633L28.4891 28.8871L29.1061 28.2701L29.15 28.2261V28.164ZM29.266 32.7282L32.6041 29.3948L32.9533 29.7693L32.9532 29.7693L32.9564 29.7725L33.3215 30.1415L30.0038 33.466H29.266V32.7282ZM32.2797 21.158H19.7006L20.8231 19.813C20.8717 19.7643 20.9286 19.7247 20.9947 19.6943C21.0598 19.6643 21.1251 19.65 21.192 19.65H30.788C30.8557 19.65 30.9209 19.6644 30.9849 19.6941C31.0505 19.7245 31.1086 19.7644 31.1596 19.8138L32.2797 21.158Z" fill="#050810" stroke="#050810" stroke-width="0.3"/>
</svg>
