<svg width="52" height="52" viewBox="0 0 52 52" fill="none" xmlns="http://www.w3.org/2000/svg">
<rect width="52" height="52" rx="10" fill="#F8FAFF"/>
<path d="M21.5 15.5C20.7044 15.5 19.9413 15.8161 19.3787 16.3787C18.8161 16.9413 18.5 17.7044 18.5 18.5V33.5C18.5 34.2956 18.8161 35.0587 19.3787 35.6213C19.9413 36.1839 20.7044 36.5 21.5 36.5H30.5C31.2956 36.5 32.0587 36.1839 32.6213 35.6213C33.1839 35.0587 33.5 34.2956 33.5 33.5V22.121C33.4995 21.5245 33.2621 20.9526 32.84 20.531L28.4705 16.1585C28.2615 15.9496 28.0133 15.7839 27.7403 15.6709C27.4672 15.558 27.1745 15.4999 26.879 15.5H21.5ZM20 18.5C20 18.1022 20.158 17.7206 20.4393 17.4393C20.7206 17.158 21.1022 17 21.5 17H26V20.75C26 21.3467 26.2371 21.919 26.659 22.341C27.081 22.7629 27.6533 23 28.25 23H32V33.5C32 33.8978 31.842 34.2794 31.5607 34.5607C31.2794 34.842 30.8978 35 30.5 35H21.5C21.1022 35 20.7206 34.842 20.4393 34.5607C20.158 34.2794 20 33.8978 20 33.5V18.5ZM31.6895 21.5H28.25C28.0511 21.5 27.8603 21.421 27.7197 21.2803C27.579 21.1397 27.5 20.9489 27.5 20.75V17.3105L31.6895 21.5Z" fill="#050810"/>
</svg>
