<svg width="52" height="52" viewBox="0 0 52 52" fill="none" xmlns="http://www.w3.org/2000/svg">
<rect width="52" height="52" rx="10" fill="#F8FAFF"/>
<path d="M28.4847 19.2268C28.0685 19.2298 27.6552 19.25 27.2188 19.367C26.7431 19.4958 26.2919 19.7018 25.883 19.9768C25.3085 19.6393 24.752 19.3618 24.2188 19.2965C23.5565 19.2148 22.9415 19.259 22.2267 19.274C21.3793 19.2913 20.8265 19.724 19.9295 20.0705C19.0333 20.4155 17.879 20.75 16.25 20.75H15.5V27.9688L15.9222 28.1795L17.3045 28.8598L22.2267 34.3438L22.25 34.367C22.8125 34.9235 23.5715 35.0615 24.242 35.0233C24.9132 34.9858 25.5433 34.7893 26.0465 34.4848C27.1543 33.8165 30.1715 31.7188 30.1715 31.7188L30.242 31.6715L30.2892 31.625C30.6462 31.2703 30.8255 30.8375 30.9455 30.383L33.8278 28.9295L35.984 28.2035L36.5 28.0385V20.75H35.75C34.4892 20.7594 33.2389 20.5204 32.0705 20.0465C31.1735 19.6963 30.629 19.268 29.7725 19.25C29.315 19.241 28.9002 19.2238 28.4847 19.2268ZM28.5072 20.7268C28.8448 20.7238 29.2347 20.7418 29.7267 20.75C29.8055 20.753 30.5262 21.0605 31.5312 21.4535C32.381 21.7873 33.5615 22.0835 35 22.1795V26.9608L33.2653 27.5473H33.2188L33.1715 27.5698L30.899 28.7188C30.7784 28.3707 30.5868 28.0515 30.3365 27.7813L30.2892 27.7108L27.1017 23.7973L26.633 23.2108L26.0465 23.6795L24.0312 25.3205C23.3548 25.7893 22.8065 25.6543 22.25 25.391C22.0887 25.3145 22.0978 25.2913 21.9688 25.2035L25.391 22.367L25.4375 22.3205C26.4537 21.3125 27.0785 20.9638 27.617 20.8205C27.887 20.747 28.1705 20.7298 28.5072 20.7268ZM23.282 20.75C23.5322 20.7399 23.7829 20.7477 24.032 20.7733C24.2285 20.7965 24.4513 20.9638 24.6418 21.0313C24.5653 21.1018 24.5097 21.1423 24.4303 21.2188L24.3837 21.266L20.282 24.6635L19.649 25.1795L20.2115 25.7653C20.2115 25.7653 20.7538 26.3518 21.5945 26.75C22.4353 27.1483 23.7335 27.374 24.899 26.5625L24.9462 26.5153L26.399 25.3205L29.165 28.7188L29.1882 28.766L29.2115 28.7885C29.7065 29.2783 29.6952 30.0485 29.2115 30.5473C29.2055 30.5525 29.2175 30.5645 29.2115 30.5698C29.2055 30.5735 29.1065 30.632 29.0945 30.641L28.1097 29.3045L26.891 30.1955L27.8525 31.484C27.4625 31.748 27.287 31.886 26.8678 32.1643L25.8605 30.8045L24.641 31.6955L25.6025 32.984C25.517 33.0365 25.3415 33.1543 25.274 33.1955C25.037 33.3388 24.5795 33.5 24.1722 33.5233C23.789 33.5443 23.4958 33.4558 23.3525 33.3358L23.3293 33.3125L18.3133 27.758L18.2195 27.6403L17 27.0313V22.1795C18.4325 22.0858 19.622 21.8015 20.4688 21.4768C21.4707 21.0928 22.1863 20.7763 22.2733 20.7733L23.282 20.75Z" fill="black"/>
</svg>
