<svg width="52" height="52" viewBox="0 0 52 52" fill="none" xmlns="http://www.w3.org/2000/svg">
<rect width="52" height="52" rx="10" fill="#F8FAFF"/>
<path d="M20 22.25C20 21.9545 20.0582 21.6619 20.1713 21.389C20.2843 21.116 20.4501 20.8679 20.659 20.659C20.8679 20.4501 21.116 20.2843 21.389 20.1713C21.6619 20.0582 21.9545 20 22.25 20C22.5455 20 22.8381 20.0582 23.111 20.1713C23.384 20.2843 23.6321 20.4501 23.841 20.659C24.0499 20.8679 24.2157 21.116 24.3287 21.389C24.4418 21.6619 24.5 21.9545 24.5 22.25C24.5 22.8467 24.2629 23.419 23.841 23.841C23.419 24.2629 22.8467 24.5 22.25 24.5C21.6533 24.5 21.081 24.2629 20.659 23.841C20.2371 23.419 20 22.8467 20 22.25ZM22.25 18.5C21.2554 18.5 20.3016 18.8951 19.5983 19.5983C18.8951 20.3016 18.5 21.2554 18.5 22.25C18.5 23.2446 18.8951 24.1984 19.5983 24.9017C20.3016 25.6049 21.2554 26 22.25 26C23.2446 26 24.1984 25.6049 24.9017 24.9017C25.6049 24.1984 26 23.2446 26 22.25C26 21.2554 25.6049 20.3016 24.9017 19.5983C24.1984 18.8951 23.2446 18.5 22.25 18.5ZM29.75 23C29.75 22.6022 29.908 22.2206 30.1893 21.9393C30.4706 21.658 30.8522 21.5 31.25 21.5C31.6478 21.5 32.0294 21.658 32.3107 21.9393C32.592 22.2206 32.75 22.6022 32.75 23C32.75 23.3978 32.592 23.7794 32.3107 24.0607C32.0294 24.342 31.6478 24.5 31.25 24.5C30.8522 24.5 30.4706 24.342 30.1893 24.0607C29.908 23.7794 29.75 23.3978 29.75 23ZM31.25 20C30.4544 20 29.6913 20.3161 29.1287 20.8787C28.5661 21.4413 28.25 22.2044 28.25 23C28.25 23.7956 28.5661 24.5587 29.1287 25.1213C29.6913 25.6839 30.4544 26 31.25 26C32.0456 26 32.8087 25.6839 33.3713 25.1213C33.9339 24.5587 34.25 23.7956 34.25 23C34.25 22.2044 33.9339 21.4413 33.3713 20.8787C32.8087 20.3161 32.0456 20 31.25 20ZM16.25 29.75C16.25 29.1533 16.4871 28.581 16.909 28.159C17.331 27.7371 17.9033 27.5 18.5 27.5H26C26.5967 27.5 27.169 27.7371 27.591 28.159C28.0129 28.581 28.25 29.1533 28.25 29.75V29.918C28.2497 29.9868 28.2447 30.0554 28.235 30.1235C28.1497 30.8507 27.8791 31.5439 27.449 32.1365C26.6285 33.269 25.0685 34.25 22.25 34.25C19.4315 34.25 17.873 33.269 17.0495 32.1365C16.62 31.5437 16.3498 30.8506 16.265 30.1235C16.2576 30.0552 16.2526 29.9867 16.25 29.918V29.75ZM17.75 29.885V29.8955L17.756 29.969C17.8139 30.4334 17.9883 30.8756 18.263 31.2545C18.752 31.9265 19.817 32.75 22.25 32.75C24.683 32.75 25.748 31.9265 26.237 31.2545C26.5117 30.8756 26.6861 30.4334 26.744 29.969L26.75 29.894V29.75C26.75 29.5511 26.671 29.3603 26.5303 29.2197C26.3897 29.079 26.1989 29 26 29H18.5C18.3011 29 18.1103 29.079 17.9697 29.2197C17.829 29.3603 17.75 29.5511 17.75 29.75V29.885ZM31.25 32.75C30.368 32.75 29.645 32.615 29.06 32.393C29.2982 31.9515 29.4802 31.4818 29.6015 30.995C30.0035 31.1465 30.5375 31.25 31.25 31.25C32.9285 31.25 33.617 30.677 33.92 30.251C34.0985 30.0033 34.211 29.7142 34.247 29.411L34.25 29.369C34.2484 29.2706 34.2082 29.1767 34.1381 29.1077C34.0679 29.0387 33.9734 29 33.875 29H29.675C29.5638 28.4562 29.3332 27.9439 29 27.5H33.875C34.91 27.5 35.75 28.34 35.75 29.375V29.4005C35.749 29.4552 35.745 29.5098 35.738 29.564C35.6761 30.1266 35.4705 30.6638 35.141 31.124C34.508 32.0105 33.3215 32.75 31.25 32.75Z" fill="black"/>
</svg>
