<svg width="121" height="80" viewBox="0 0 121 80" fill="none" xmlns="http://www.w3.org/2000/svg">
<path fill-rule="evenodd" clip-rule="evenodd" d="M36.5332 15.4406C36.36 15.5006 36.2096 15.6129 36.1029 15.762C35.9962 15.9111 35.9384 16.0896 35.9375 16.273C35.9366 16.4521 38.6373 50.6326 38.6619 50.7536L38.6779 50.8316H47.515V15.3744L42.1167 15.3754C36.9638 15.3765 36.7096 15.3794 36.5332 15.4406ZM73.51 33.103V50.8318H82.3389L82.3578 50.6845C82.4688 49.8109 85.0908 16.1671 85.0571 16.0469C84.971 15.7396 84.6967 15.4775 84.3931 15.4124C84.2697 15.3859 82.6022 15.3746 78.8633 15.3746H73.51V33.103Z" fill="#A1ACC6"/>
<path fill-rule="evenodd" clip-rule="evenodd" d="M35.981 13.3691C34.7934 13.5398 33.8594 14.6135 33.8594 15.8074C33.8594 16.2971 37.7043 64.5549 37.761 64.7792C38.0104 65.7625 38.8961 66.5198 39.9352 66.6382C40.1552 66.6633 46.6163 66.6714 60.7384 66.6643L81.2225 66.654L81.4814 66.5737C82.3678 66.2991 83.0345 65.6267 83.2474 64.7922C83.3619 64.3435 87.192 15.8682 87.1408 15.5159C86.9913 14.4905 86.2984 13.7064 85.2776 13.4076C85.0437 13.3392 36.4535 13.3011 35.981 13.3691ZM85.1561 14.0692C85.909 14.3219 86.4225 14.9398 86.4937 15.6785C86.5215 15.9693 82.6801 64.338 82.6075 64.609C82.4382 65.2398 81.9508 65.7298 81.2916 65.9318C81.0132 66.0172 40.1291 66.0332 39.786 65.9483C39.1551 65.7917 38.6168 65.2951 38.433 64.7005C38.3663 64.4846 34.518 16.4318 34.5177 15.8126C34.5177 14.9832 35.1546 14.2261 36.0082 14.042C36.4085 13.9556 84.8975 13.9824 85.1561 14.0692ZM59.5598 15.8131C58.4428 15.9311 56.9196 16.3486 55.732 16.8622C55.0652 17.1504 54.9327 17.2527 54.9327 17.4782C54.9326 17.7704 54.3844 18.4158 53.9621 18.6212C53.5446 18.824 53.3181 18.8794 52.5478 18.967C52.4656 18.9763 52.3901 19.0055 52.38 19.032C52.3198 19.1891 52.9477 19.9275 53.2604 20.0675C53.5555 20.1994 53.3635 20.2647 52.5931 20.2944C51.8171 20.324 51.5916 20.4318 51.3927 20.868C51.2973 21.0773 51.3106 21.1342 51.5354 21.4764C52.0464 22.2545 52.0332 22.7014 51.4861 23.1368C50.7986 23.6837 50.7925 23.7772 51.3085 25.8773C51.5074 26.6869 51.6932 27.4139 51.7214 27.4928C51.775 27.6422 51.7508 27.7133 51.6464 27.7133C51.545 27.7133 51.3336 27.8649 51.2661 27.9861C50.9794 28.5004 51.0622 29.2924 51.5837 31.0235C51.9527 32.2487 51.9972 32.413 52.1096 32.9644C52.3908 34.3462 52.7284 34.8344 53.3958 34.8246C53.6632 34.8205 53.6725 34.8325 53.7011 35.2173C53.7526 35.9127 53.9242 36.5884 54.2029 37.193C54.2932 37.3883 54.3435 37.5622 54.374 37.7821C54.5089 38.7609 55.1153 39.8518 56.0303 40.7624C56.4191 41.1495 56.7278 41.4001 57.7142 42.1302C58.1099 42.4228 58.4333 42.6734 58.4333 42.6868C58.4333 42.7003 58.0786 42.7201 57.6449 42.7309C56.8767 42.7502 56.5446 42.7938 56.4501 42.8884C56.3442 42.9942 56.3071 44.7137 56.4064 44.906C56.5236 45.1327 56.8945 45.1523 59.2393 45.0564C59.8422 45.0319 59.8094 44.9842 59.5782 45.5444C59.3977 45.9886 59.2201 46.434 59.0454 46.8806C58.5954 48.027 58.1711 48.9895 57.733 49.8566C57.3058 50.7012 57.2935 50.6098 57.8519 50.7256C57.961 50.7483 58.2077 50.8439 58.4002 50.9381C58.8979 51.1814 58.8809 51.1866 59.1064 50.7191C59.5059 49.8907 60.2247 48.0737 60.402 47.4436C60.4515 47.2675 60.5048 47.1231 60.5199 47.1231C60.556 47.1231 60.5519 50.3157 60.5148 50.9877C60.4753 51.7021 60.4936 51.7234 61.0399 51.5934C61.2536 51.5443 61.4717 51.517 61.6909 51.5121C62.0818 51.5066 62.0814 51.507 62.1399 51.0403C62.2994 49.7688 62.0127 46.7551 61.6036 45.4024C61.4916 45.032 61.4926 45.0221 61.6483 44.9963C61.9003 44.9549 62.9644 44.9734 63.6166 45.0308C64.3463 45.0953 64.4408 45.0865 64.5108 44.9476C64.5924 44.7861 64.6173 43.1146 64.5407 42.9607C64.4246 42.7284 63.9085 42.6232 63.0866 42.6641C62.5909 42.6887 62.5859 42.6832 62.9147 42.4809C63.9998 41.8128 65.6498 40.341 66.1054 39.6346C66.8043 38.5514 67.4095 36.5743 67.4102 35.3722C67.4105 34.8502 67.4218 34.8332 67.7817 34.8115C68.4754 34.7703 68.6893 34.4141 69.2637 32.3459C69.8661 30.176 70.0203 29.4624 70.0242 28.8225C70.0282 28.1865 69.9667 28.0672 69.4809 27.7699C69.3654 27.6992 69.3549 27.7578 69.6514 26.8194C69.9642 25.8277 70.0437 25.5183 70.0679 25.1936L70.0892 24.9093L69.917 24.7431C69.6117 24.4484 69.5698 24.3564 69.5077 23.8488C68.9947 19.6423 66.1214 16.5664 62.0728 15.8887C61.6531 15.8186 59.9842 15.7684 59.56 15.8131M61.1072 16.6236C62.7521 16.7892 64.3107 17.4229 65.8127 18.5372C67.3 19.6404 68.113 21.1112 68.4225 23.2595C68.549 24.1362 68.4648 26.1226 68.2929 26.3204C68.1719 26.4597 68.1356 26.3971 67.9346 25.7013C67.5526 24.3799 67.2489 23.6135 66.8344 22.9252C66.5771 22.4977 66.5375 22.5831 66.532 23.5805L66.5276 24.4107L66.631 24.5546C67.0753 25.1726 67.1845 25.4054 67.3639 26.1169C67.5129 26.7075 67.5545 27.1803 67.461 27.2163C67.426 27.2295 67.1779 27.2066 66.9098 27.165C66.3206 27.0738 65.5248 27.0545 63.9271 27.0932C62.4353 27.1293 62.1643 27.1991 61.4488 27.7309C61.0519 28.0258 61.0127 28.0416 60.7925 27.9944C60.5389 27.9412 60.2764 27.9462 60.0249 28.0088C59.7716 28.0744 59.6966 28.0476 59.3519 27.7685C58.5915 27.1527 58.3653 27.1085 55.9595 27.1076L53.9881 27.1068L54.0056 26.8295C54.036 26.3459 54.1861 26.1214 54.6099 25.9258C54.9209 25.7823 54.8959 25.8359 55.0854 24.8961C55.459 23.0405 56.0166 22.0275 57.0356 21.3508C57.7888 20.8508 59.1953 20.8948 60.2965 21.4529C60.5474 21.5801 60.5641 21.5754 60.9032 21.2822C61.3083 20.9324 61.3083 20.9331 60.851 20.4861C59.259 18.9302 57.437 18.5901 55.2567 19.4416C54.9927 19.5445 54.772 19.6164 54.766 19.6009C54.6663 19.3419 56.0522 18.3795 56.9867 18.0586C57.614 17.8433 57.5614 17.629 56.8813 17.6277C56.6187 17.6272 56.5729 17.5703 56.7153 17.4218C57.1786 16.9382 59.6927 16.4812 61.1072 16.6236ZM57.0413 20.2815C57.2012 20.3482 57.1742 20.3843 56.8626 20.5198C55.9016 20.9376 55.339 21.4737 54.7861 22.4988C54.6374 22.7741 54.5584 22.8769 54.3617 23.0484C53.8685 23.4793 53.8104 23.5654 53.622 24.1433C53.3619 24.9413 53.2284 25.6811 53.1689 26.6523C53.1349 27.2106 53.1043 27.2842 52.8551 27.4103C52.6156 27.5315 52.6428 27.5745 52.4226 26.7238C51.807 24.3437 51.8068 24.3463 52.6777 23.0914C52.8925 22.7818 52.8551 22.37 52.5526 21.7239C52.3721 21.3384 52.3511 21.3573 53.061 21.2671C53.7213 21.1832 54.5663 20.9288 55.1986 20.6234C55.942 20.2645 56.675 20.1286 57.0413 20.2815ZM54.2454 27.5628C54.4357 27.735 54.2248 27.962 53.9611 27.8687C53.8807 27.8407 53.7705 27.8175 53.7165 27.8175C53.5756 27.8175 53.5185 27.7022 53.6232 27.6288C53.6656 27.5992 53.7476 27.5745 53.8054 27.5743C53.8631 27.5739 53.9338 27.5586 53.9621 27.5401C54.0421 27.4885 54.1753 27.4992 54.2454 27.5628ZM67.1573 27.5719C67.4074 27.6166 67.4896 27.8175 67.2575 27.8175C67.2128 27.8175 67.1102 27.8407 67.0291 27.8694C66.8371 27.9371 66.8002 27.9351 66.7171 27.8522C66.5652 27.7001 66.6798 27.4818 66.89 27.5225C66.9571 27.5356 67.0774 27.5578 67.1573 27.5719ZM55.7928 28.0165C55.8016 28.0774 55.7693 28.1154 55.6446 28.1898C55.557 28.2422 55.3122 28.3983 55.1008 28.5365C54.6928 28.8036 54.5952 28.8314 54.4786 28.715C54.3544 28.5906 54.484 28.2675 54.732 28.0836C54.9532 27.9196 55.7717 27.8679 55.7928 28.0165ZM65.6933 27.9593C66.1087 28.0638 66.1907 28.7186 65.7885 28.7186C65.5353 28.7186 64.7304 28.1253 64.7863 27.9799C64.8133 27.9093 65.4384 27.8952 65.6933 27.9593ZM57.6491 28.0925C57.8263 28.1784 58.0057 28.4012 57.9707 28.4921C57.9538 28.5363 57.8933 28.5414 57.5941 28.5248C57.1652 28.5007 56.8997 28.56 56.3703 28.7975C55.955 28.9837 55.7326 29.0382 55.6194 28.9816C55.4341 28.8893 55.5123 28.7922 55.9899 28.5206C56.1333 28.4392 56.2764 28.3574 56.4193 28.2752C56.8913 28.0026 57.329 27.9375 57.6491 28.0925ZM64.2837 28.1949C64.3628 28.2352 64.5487 28.3782 64.6971 28.5126C64.8454 28.6468 65.0718 28.8271 65.2 28.913C65.4712 29.0949 65.486 29.1124 65.4174 29.1691C65.2921 29.2731 64.9009 29.1267 64.5199 28.8335C64.1606 28.5567 63.9143 28.5048 63.3906 28.5952C62.8779 28.6836 62.8324 28.5175 63.303 28.2762C63.6899 28.0779 64.0034 28.0519 64.2837 28.1949ZM67.6925 28.2767C67.7742 28.4285 67.7859 28.6403 67.7527 29.3744C67.7101 30.3254 67.7558 30.385 68.1927 29.9483C68.3771 29.764 68.4019 29.6758 68.3569 29.3616C68.2841 28.8541 68.5162 28.4239 68.8192 28.5041C69.3192 28.6361 69.3233 29.0399 68.8422 30.7635C68.7345 31.1504 68.6324 31.5388 68.5359 31.9286C68.1633 33.4772 67.9041 33.8891 67.427 33.6897C67.2177 33.6022 67.162 33.6386 66.9334 34.0128C66.6749 34.4356 66.6585 34.4917 66.6343 35.0441C66.5178 37.7164 65.2082 39.9298 63.3028 40.6748C62.8081 40.8683 62.6789 40.8659 62.4575 40.659C62.3063 40.5175 62.1834 40.4613 62.1725 40.529C62.1701 40.5433 62.1657 40.7274 62.1622 40.9381C62.155 41.3915 62.1239 41.4682 61.7614 41.924C61.4268 42.3449 61.3403 42.5376 61.2588 43.0415C61.1581 43.6661 59.6758 42.1933 59.2621 41.0575C59.143 40.7305 59.1506 40.2562 59.2819 39.8271C59.5267 39.027 59.5758 38.6404 59.4985 38.1232C59.4768 37.9789 59.4827 37.9337 59.5284 37.8878C59.6257 37.7905 59.7083 37.8689 59.9691 38.3058C60.1372 38.5873 60.2432 38.3264 60.1844 37.7761C60.1535 37.4889 60.0297 37.3471 59.7353 37.2613C59.1219 37.083 59.5478 36.7288 60.3398 36.7587C61.6615 36.8084 61.9475 36.7828 62.6895 36.548C63.217 36.3811 63.2602 36.3809 63.517 36.547C63.7774 36.7154 63.7959 36.7647 63.8181 37.3489C63.8559 38.3527 64.2172 38.2986 64.4301 37.2572C64.5338 36.7501 64.596 36.5908 64.7593 36.415C65.1656 35.976 65.342 35.3373 65.2811 34.525C65.244 34.03 65.1606 33.8989 64.7634 33.7103C64.5123 33.591 64.1967 33.2749 63.8906 32.8354C63.4073 32.1419 63.1835 31.9307 62.7373 31.7471C62.3279 31.5787 62.2057 31.6548 62.2999 32.0187C62.4307 32.5233 62.3731 32.6361 61.8539 32.8892C61.0701 33.2715 60.4129 33.2471 59.7852 32.8129C59.1647 32.3838 59.0837 31.8451 59.5059 30.9541C59.6963 30.5521 59.7266 30.4424 59.8023 29.8797C59.9395 28.8613 60.0409 28.649 60.391 28.649C60.6887 28.649 60.8193 28.7709 60.9118 29.1346C61.0909 29.8383 61.3781 30.12 61.6875 29.896C61.9011 29.7411 61.9209 29.6731 61.8176 29.4498C61.6767 29.1459 61.7514 29.0983 62.0938 29.2736C62.5421 29.5033 63.3416 29.5954 63.9061 29.4821C64.5206 29.3592 64.7724 29.4094 64.9119 29.6832C65.0054 29.8664 65.0408 29.8881 65.3148 29.9311C65.7484 29.999 65.7861 30.0378 65.6922 30.3202C65.5771 30.667 65.2184 30.9156 64.6565 31.0386C64.2964 31.1172 64.2911 31.1208 64.2911 31.2777C64.2911 31.5751 64.5551 31.6411 65.1426 31.4909C65.9483 31.2846 66.2936 30.7674 66.5767 29.3424C66.7563 28.438 66.7639 28.4246 67.168 28.2896C67.5047 28.1772 67.6372 28.174 67.6925 28.2767ZM52.7038 28.6131C52.9255 28.7482 53.0129 29.0428 52.9125 29.3164C52.7959 29.6337 52.8032 29.7221 53.0603 31.1273C53.2683 32.2628 53.2191 32.5553 52.8721 32.2507C52.7191 32.1167 52.6607 32.0089 52.5962 31.7444C52.5692 31.6339 52.428 31.1144 52.282 30.5902C51.984 29.5186 51.9421 29.2362 52.0342 28.9192C52.1344 28.5751 52.4243 28.4424 52.7038 28.6131ZM57.294 29.4115C57.7529 29.4917 57.9253 29.4964 58.3189 29.4395C58.6932 29.3854 58.7395 29.4197 58.56 29.6182C58.4089 29.7855 58.4093 29.7827 58.5239 30.0019C58.7852 30.502 58.1922 30.9725 57.1902 31.0598C56.8791 31.0869 56.839 31.1162 56.839 31.3157C56.839 31.5184 56.9335 31.5649 57.3349 31.5605C57.7904 31.5553 57.7749 31.5539 57.7749 31.6009C57.7749 31.6232 57.7288 31.7129 57.6726 31.8006C57.6164 31.8882 57.5461 32.0529 57.5166 32.1663C57.4481 32.4293 57.4316 32.4441 57.035 32.6001C56.8533 32.6716 56.6061 32.8002 56.4858 32.8858C55.4747 33.6055 54.987 33.3894 54.5341 32.0209C54.2189 31.0694 54.2894 30.9197 54.9119 31.2183C55.3291 31.4185 55.4949 31.4334 55.5891 31.2789C55.7363 31.0376 55.6984 30.9541 55.3719 30.7989C54.7992 30.527 54.4219 29.9249 54.7067 29.7382C54.8012 29.6765 54.8722 29.6994 55.0491 29.8489C55.3765 30.126 55.5089 30.131 55.7424 29.8755C56.1962 29.3795 56.5341 29.2784 57.294 29.4115ZM58.6796 31.6259C58.7512 31.6839 58.7554 31.7016 58.7183 31.7832C58.6432 31.9482 58.6301 32.2234 58.6894 32.3925C58.8338 32.8028 58.6453 32.979 58.3508 32.7091C57.8998 32.2952 58.2164 31.2509 58.6796 31.6259ZM62.6284 33.3717C62.6919 33.4147 62.8707 33.6056 63.0257 33.7962C63.3203 34.1584 63.6978 34.4782 63.9097 34.5453C64.8832 34.8538 63.1218 35.2998 61.8085 35.0774C61.6201 35.0454 61.2712 34.9573 61.0328 34.8813C60.5275 34.7201 60.3539 34.7182 59.9749 34.8698C59.1224 35.2108 57.618 35.2471 57.0148 34.9413C56.6491 34.7557 56.6568 34.6556 57.049 34.4903C57.1908 34.4305 57.5138 34.245 57.7665 34.0781C58.5317 33.573 58.8825 33.4898 59.2305 33.7309C60.0184 34.2766 60.9306 34.327 61.396 33.8506C61.5127 33.7313 61.6303 33.6512 61.7599 33.6029C61.8796 33.5569 61.9958 33.5021 62.1074 33.4387C62.3833 33.2741 62.468 33.2634 62.6284 33.3717ZM55.7622 34.5216C55.8308 34.5944 55.8454 34.6608 55.8717 35.0155C55.9805 36.4804 56.464 38.0595 56.8034 38.0595C56.873 38.0595 56.9052 38.0153 57.0145 37.769C57.2605 37.2145 57.3663 37.174 57.4762 37.5916C57.5965 38.0495 57.8488 38.8704 57.9488 39.1303C58.1063 39.5388 58.0475 39.6371 57.6463 39.6356C56.2019 39.6304 54.1206 36.3019 54.7553 35.0121C54.9877 34.5403 55.531 34.2756 55.7622 34.5216ZM61.7915 35.6492C62.302 35.6986 62.28 35.789 61.7246 35.9232C61.1937 36.0516 59.9589 36.1417 59.698 36.071C59.4263 35.9976 59.1193 35.7367 59.2391 35.6812C59.423 35.596 61.0323 35.5759 61.7915 35.6492ZM72.644 53.469C68.7762 53.7388 66.4232 55.8821 66.4262 59.1328C66.4289 62.3889 69.7143 64.0564 74.3129 63.1353C75.272 62.9433 75.2122 63.0008 75.3806 62.1111C75.5563 61.185 75.5479 61.1746 74.7868 61.3669C71.3946 62.2246 69.1963 60.5744 69.9215 57.7152C70.3039 56.2082 71.348 55.2066 72.7273 55.0239C73.8294 54.8778 74.5563 55.3426 74.6116 56.2288C74.6357 56.6172 74.6402 56.6198 75.2287 56.6198C75.8182 56.6198 75.7453 56.7334 76.0585 55.3264C76.4088 53.7531 76.4263 53.8474 75.7529 53.6934C74.7354 53.4605 73.7663 53.3906 72.644 53.469ZM46.7747 53.6824C46.7189 53.7713 46.5797 54.3574 46.5797 54.504C46.5797 54.6166 46.6261 54.6616 46.8686 54.7826C47.12 54.9083 47.2484 55.1016 47.266 55.3816C47.279 55.5908 46.2942 60.2681 46.0915 60.9583C45.9093 61.5795 45.6068 61.975 45.2321 62.0816C44.874 62.1837 44.8726 62.185 44.7856 62.5303C44.5885 63.3141 44.3343 63.24 47.2196 63.24C50.0021 63.24 49.7087 63.2911 49.8233 62.7873C49.954 62.2122 49.9387 62.1335 49.6748 62.0291C49.5208 61.9683 49.3318 61.776 49.2842 61.6316C49.2496 61.5267 49.6391 59.5278 49.7903 59.034C49.8178 58.9441 49.8171 58.9431 50.2898 59.7915C51.6342 62.2039 52.2709 62.883 53.4443 63.1558C53.7983 63.2379 56.471 63.2732 56.5738 63.197C56.6377 63.1494 56.8014 62.5606 56.8034 62.3703C56.805 62.2268 56.6924 62.1551 56.4189 62.1259C55.8542 62.0657 55.7765 61.985 54.107 59.7249C52.8312 57.9984 52.781 57.9245 52.8418 57.867C53.2002 57.528 56.2627 55.0372 56.4165 54.9597C56.6647 54.8345 57.0081 54.7278 57.2661 54.6956C57.547 54.6604 57.5901 54.6126 57.6704 54.2457C57.8254 53.5382 58.0475 53.6046 55.5219 53.6046C53.2342 53.6046 53.3315 53.5965 53.2858 53.7888C53.1139 54.5117 53.1199 54.5929 53.3552 54.7245C53.7212 54.9296 53.7224 54.928 52.0132 56.3493C50.1062 57.9352 50.0463 57.9842 50.0329 57.9682C50.0108 57.9422 50.5994 55.3206 50.6556 55.1936C50.7346 55.0153 50.9314 54.8356 51.1561 54.7364C51.4046 54.6267 51.4103 54.6181 51.4971 54.2189C51.6454 53.536 51.9087 53.6046 49.1338 53.6046H46.8237L46.7747 53.6824ZM58.4899 53.6824C58.4339 53.7713 58.2948 54.3574 58.2948 54.504C58.2948 54.6173 58.3206 54.6422 58.5731 54.7742C58.6901 54.8354 58.8003 54.9277 58.8639 55.0183C59.0612 55.2991 59.082 55.1709 58.1769 59.2721C57.2806 63.3352 57.3308 63.0733 57.4282 63.1707C57.5296 63.272 61.2903 63.2802 61.408 63.1793C61.4897 63.1094 61.6765 62.317 61.6392 62.1993C61.627 62.161 61.5579 62.0996 61.4855 62.0626C60.9039 61.7658 60.8951 61.5921 61.3625 59.6093L61.3809 59.5314H62.9853C64.2146 59.5314 64.6032 59.5211 64.6481 59.4881C64.7051 59.4456 65.0188 58.1536 65.0188 57.961C65.0188 57.7619 65.0333 57.7637 63.3437 57.7637C61.892 57.7637 61.7954 57.76 61.7961 57.7032C61.7965 57.6698 61.9185 57.0887 62.0672 56.412L62.3375 55.1814L63.4443 55.1723C65.1116 55.1583 65.2954 55.2458 65.2959 56.054C65.2961 56.4277 65.3423 56.4552 65.944 56.4405C66.317 56.4314 66.4138 56.4184 66.4609 56.3713C66.516 56.3161 67.0638 53.9739 67.0638 53.7935C67.0638 53.5929 67.3268 53.6044 62.738 53.6044H58.5391L58.4899 53.6824ZM84.3939 63.2053C84.3939 63.3084 84.3957 63.3094 84.5845 63.3094H84.7753V64.5917H85.0178V63.3094H85.2086C85.3971 63.3094 85.399 63.3084 85.399 63.2053V63.1013H84.3939V63.2053ZM85.7457 63.8466V64.5917H85.9535L85.9547 64.0631L85.9559 63.5346L86.0985 63.838C86.2797 64.223 86.312 64.2247 86.4983 63.8552L86.6427 63.5693L86.6446 64.0805L86.6468 64.5917H86.8546V63.1013H86.7484C86.6475 63.1013 86.6338 63.1195 86.476 63.4567L86.3096 63.812L86.1314 63.4567C85.9648 63.125 85.9461 63.1013 85.8493 63.1013H85.7457V63.8466Z" fill="#A1ACC6"/>
<path fill-rule="evenodd" clip-rule="evenodd" d="M36.0769 14.0466C35.184 14.1965 34.5555 14.939 34.5527 15.847C34.5519 16.1753 38.3413 64.074 38.3969 64.4357C38.5097 65.1701 39.1305 65.8042 39.8699 65.9403C40.2261 66.0056 80.8754 65.9915 81.1872 65.9258C81.8386 65.7883 82.368 65.315 82.5577 64.6997C82.6251 64.4817 86.4727 16.429 86.4727 15.8061C86.4727 15.0679 85.9849 14.4032 85.2319 14.1153L85.0343 14.0399L60.599 14.0358C47.1596 14.0337 36.1247 14.0385 36.0769 14.0466ZM47.5149 33.103V50.8318H43.0782C40.638 50.8318 38.6419 50.8201 38.642 50.8058C38.6424 50.7915 38.025 43.0009 37.2705 33.493C35.9504 16.858 35.9006 16.1995 35.9518 16.0234C36.0202 15.7877 36.2151 15.5608 36.4387 15.4567L36.6141 15.3752L42.0643 15.3749L47.5145 15.3745L47.5149 33.103ZM84.6558 15.4966C84.8571 15.6205 85.0322 15.8644 85.0797 16.0863C85.1063 16.2116 84.8287 19.8308 83.749 33.4252C82.9984 42.875 82.3841 50.657 82.3836 50.719L82.3829 50.8316H73.4752V15.3733L78.9803 15.3824L84.4853 15.3917L84.6558 15.4966ZM62.0199 15.8568C62.9389 16.0058 63.9341 16.318 64.6471 16.6804C67.3986 18.0797 69.1398 20.6467 69.5392 23.8933C69.5978 24.3689 69.6685 24.5175 69.9373 24.7303C70.2009 24.9393 70.1602 25.2817 69.6984 26.7356C69.3783 27.7431 69.3857 27.6981 69.5303 27.7755C70.3006 28.1883 70.2568 28.8933 69.2341 32.531C68.7042 34.4166 68.4653 34.7922 67.7641 34.8439C67.4371 34.868 67.4456 34.8556 67.4449 35.3114C67.4432 36.6041 66.7378 38.8229 66.0186 39.7993C65.5441 40.4435 64.1739 41.6719 63.2332 42.2967C62.9854 42.4612 62.7698 42.6064 62.7545 42.6189C62.7391 42.6317 62.9809 42.642 63.2918 42.6418C64.6209 42.641 64.6402 42.6614 64.6056 44.0381C64.5764 45.2052 64.6263 45.149 63.6942 45.0656C62.7538 44.9817 62.3511 44.9649 61.9235 44.9917L61.5265 45.0165L61.5546 45.1253C62.0404 47.0063 62.2757 49.0258 62.194 50.6131C62.1488 51.493 62.1256 51.5327 61.6492 51.5414C61.413 51.5457 61.1903 51.5739 60.9907 51.6248C60.7063 51.6973 60.6831 51.6985 60.5794 51.6449L60.4694 51.5882L60.4906 50.9239C60.5359 49.5059 60.5547 47.9114 60.5303 47.5534L60.5048 47.1783L60.3895 47.5578C60.1231 48.4353 59.1685 50.7628 58.9651 51.031C58.8519 51.1802 58.816 51.1757 58.3574 50.9528C58.1243 50.8393 57.8803 50.7475 57.7569 50.7264C57.4293 50.6709 57.4018 50.6621 57.3806 50.6069C57.3694 50.5777 57.565 50.1379 57.8237 49.6101C58.3378 48.5616 58.6757 47.7828 59.1889 46.4645C59.378 45.9783 59.5739 45.4836 59.6241 45.365C59.7396 45.0916 59.7419 45.0292 59.6348 45.056C59.5906 45.0672 58.9124 45.0929 58.1279 45.1137C56.1797 45.1651 56.3026 45.249 56.3237 43.8824C56.3418 42.7071 56.2842 42.7613 57.5592 42.7205C58.0033 42.7063 58.3739 42.6875 58.3827 42.6788C58.3916 42.67 58.075 42.4232 57.6792 42.1305C55.4779 40.5023 54.563 39.306 54.3444 37.7693C54.3174 37.58 54.2573 37.375 54.1711 37.1792C53.8937 36.5488 53.7473 35.9895 53.6859 35.325C53.6395 34.8236 53.6577 34.8532 53.3937 34.8532C52.7083 34.8532 52.3757 34.3747 52.0871 32.9735C51.9675 32.3923 51.8713 32.0356 51.5682 31.0497C51.0865 29.4812 50.9735 28.6575 51.1686 28.1297C51.258 27.8879 51.4918 27.6785 51.6722 27.6785C51.7604 27.6785 51.7625 27.706 51.6435 27.3049C51.5885 27.1197 51.4701 26.6562 51.3802 26.2748C51.2845 25.8694 51.1846 25.465 51.0806 25.0617C50.7764 23.9024 50.8341 23.6511 51.5413 23.0605C51.6715 22.9517 51.7693 22.8316 51.8314 22.7051L51.9249 22.514L51.8668 22.2802C51.7912 21.9755 51.6767 21.7273 51.4598 21.3964C51.2532 21.081 51.2587 20.9712 51.496 20.6572C51.7286 20.3495 51.9257 20.2794 52.5727 20.2749C52.9525 20.2722 53.1524 20.2562 53.2476 20.2206L53.3829 20.1701L53.2129 20.0707C52.9749 19.9315 52.5424 19.4829 52.419 19.2476C52.2824 18.9865 52.3064 18.9655 52.8011 18.9142C53.9061 18.7995 54.6914 18.2688 54.9018 17.4945C54.986 17.1842 55.0656 17.1223 55.7639 16.8236C57.909 15.9065 60.1719 15.5567 62.0199 15.8568ZM59.9058 16.6435C58.163 16.8228 57.0853 17.0902 56.7213 17.4341C56.5845 17.5632 56.6354 17.5995 56.9684 17.6101C57.5992 17.6301 57.613 17.8717 56.9947 18.0776C56.2533 18.3246 55.1612 19.0163 54.8715 19.4222C54.7222 19.6314 54.7062 19.6324 55.3164 19.3971C57.3354 18.6185 59.0963 18.893 60.599 20.2204C61.3291 20.8655 61.3475 20.927 60.9199 21.2929C60.56 21.6011 60.5444 21.6033 60.1365 21.4098C59.2785 21.0018 57.9925 20.904 57.362 21.1988C56.1909 21.7458 55.5075 22.8754 55.1007 24.9371C54.9212 25.8456 54.9477 25.7884 54.6452 25.928C54.188 26.1394 54.0046 26.4482 53.9969 27.0201C53.9963 27.0658 54.2298 27.0721 55.8939 27.0721C58.3674 27.0721 58.5602 27.1113 59.4108 27.789C59.7065 28.0249 59.8048 28.0515 60.0799 27.9716C60.2804 27.9131 60.4148 27.9142 60.8936 27.9767C61.0454 27.9967 61.0593 27.9901 61.4135 27.7292C62.2557 27.1087 62.5342 27.0555 64.9534 27.0549C66.2739 27.0548 66.4727 27.0622 66.8251 27.1237C67.0417 27.1615 67.2776 27.1928 67.349 27.1931L67.4791 27.1933V26.9871C67.4791 26.321 67.1214 25.238 66.7343 24.7325C66.4899 24.4132 66.498 24.4546 66.5054 23.5586C66.5124 22.692 66.513 22.6876 66.6115 22.6876C66.8765 22.6876 67.4597 23.9873 67.9473 25.6641C68.2424 26.6789 68.3658 26.5952 68.4535 25.3217C68.5882 23.3675 68.1613 21.4236 67.3155 20.14C65.9026 17.9963 62.4763 16.3793 59.9058 16.6435ZM56.3359 20.2777C55.9276 20.3425 55.6931 20.4191 55.2002 20.6482C54.4133 21.0138 53.2421 21.3357 52.6985 21.3357C52.4319 21.3357 52.4177 21.3792 52.5737 21.7171C52.9453 22.5219 52.9402 22.7793 52.5424 23.3283C51.9644 24.1267 51.9082 24.4 52.1219 25.3736C52.3126 26.2433 52.6277 27.4705 52.6603 27.4705C52.9586 27.4705 53.1026 27.2361 53.1364 26.6957C53.1963 25.7391 53.3685 24.8135 53.629 24.0461C53.788 23.5779 53.8315 23.5132 54.2492 23.1265C54.5641 22.8347 54.6239 22.7594 54.7933 22.4407C55.2863 21.5153 55.9535 20.8779 56.8017 20.5221C57.1381 20.3811 57.1644 20.3435 56.9748 20.2751C56.8258 20.2211 56.6876 20.2218 56.3359 20.2777ZM53.9663 27.5587C53.9022 27.5866 53.8085 27.6096 53.7583 27.6098C53.5472 27.611 53.5211 27.7591 53.7253 27.798C53.7885 27.81 53.9047 27.8365 53.9835 27.8566C54.1713 27.9047 54.2736 27.8547 54.2736 27.7146C54.2736 27.5273 54.1653 27.4723 53.9663 27.5587ZM66.7235 27.5816C66.6035 27.7014 66.7151 27.909 66.8808 27.8748C66.9335 27.864 67.0472 27.8416 67.1336 27.8255C67.3901 27.7774 67.4729 27.6643 67.2797 27.6268C67.2273 27.6165 67.118 27.5929 67.0367 27.5742C66.843 27.5295 66.7739 27.5312 66.7235 27.5816ZM55.2786 27.9597C54.8064 28.0132 54.5154 28.2067 54.4597 28.5046C54.397 28.8392 54.611 28.8337 55.1366 28.4867C55.3623 28.3377 55.596 28.1893 55.6556 28.1567C55.8244 28.0649 55.7851 27.9111 55.5965 27.9259C55.5646 27.9283 55.4216 27.9436 55.2786 27.9597ZM64.8258 27.9652C64.7718 28.1058 65.4033 28.6228 65.7208 28.6974C66.0683 28.7794 66.1366 28.1715 65.7968 28.0211C65.5821 27.9262 64.8568 27.8844 64.8258 27.9652ZM56.9078 28.0919C56.5412 28.2129 55.6582 28.7027 55.5783 28.8292C55.4436 29.0429 55.788 29.0307 56.2916 28.804C56.9109 28.5255 57.3564 28.4327 57.7223 28.5056C57.9471 28.5506 57.986 28.5142 57.895 28.3445C57.746 28.0661 57.3179 27.9564 56.9078 28.0919ZM63.5278 28.1998C63.0282 28.3784 62.8317 28.6653 63.2635 28.5857C63.8401 28.4795 64.1839 28.5434 64.5371 28.8224C64.8834 29.0962 65.2699 29.2428 65.3896 29.1455C65.4307 29.1123 65.4379 29.0896 65.4112 29.0785C65.3036 29.0329 65.0371 28.8315 64.7235 28.5587C64.2124 28.1142 63.9706 28.0417 63.5278 28.1998ZM67.3098 28.2732C66.8033 28.4056 66.7794 28.4403 66.6116 29.2904C66.277 30.9848 65.7447 31.5953 64.602 31.5953C64.1019 31.5953 64.1163 31.1233 64.6196 31.0226C65.1416 30.9182 65.4875 30.7051 65.6293 30.4009C65.7808 30.0755 65.7452 30.0205 65.3447 29.9623C65.0333 29.917 65.0047 29.9009 64.9102 29.7158C64.7756 29.4518 64.4554 29.3782 63.9611 29.4975C63.4546 29.6199 62.5338 29.5164 62.0794 29.2861C61.7539 29.1211 61.7033 29.152 61.8408 29.4325C61.9689 29.6934 61.8228 29.9403 61.4911 30.0236C61.3092 30.0692 61.0397 29.6756 60.894 29.1517C60.7881 28.7713 60.6889 28.678 60.3904 28.678C60.0402 28.678 60.0011 28.7713 59.7862 30.1223C59.7233 30.5172 59.6913 30.6217 59.5265 30.9713C59.1551 31.7591 59.1723 32.2006 59.591 32.6193C60.132 33.1604 60.9579 33.2797 61.7215 32.927C62.3374 32.6422 62.3977 32.5598 62.2999 32.1377C62.1865 31.6492 62.2518 31.5654 62.6437 31.6939C63.0962 31.8426 63.4243 32.1298 63.8643 32.7623C64.2175 33.2702 64.4984 33.5481 64.8397 33.7271C65.2445 33.9388 65.2754 34.0058 65.2894 34.6947C65.3066 35.552 65.1878 35.9718 64.8119 36.3795C64.6252 36.5821 64.5408 36.7837 64.4644 37.2101C64.3671 37.7516 64.1902 38.0768 63.9929 38.0768C63.8532 38.0768 63.7726 37.7055 63.771 37.0532C63.7696 36.5142 63.3984 36.3485 62.6901 36.5711C61.9156 36.8145 61.4831 36.8631 60.7367 36.7909C60.0811 36.7277 60.0007 36.733 59.7346 36.8575C59.4191 37.0053 59.399 37.166 59.6886 37.2239C60.0401 37.2942 60.1841 37.4843 60.2207 37.9257C60.2671 38.4851 60.103 38.6058 59.8703 38.1831C59.6124 37.7148 59.476 37.7548 59.5428 38.279C59.5966 38.7012 59.5657 38.9346 59.363 39.6283C59.1253 40.4423 59.1389 40.761 59.4371 41.3866C59.7728 42.0913 60.4567 42.8611 61.0067 43.1533C61.1734 43.242 61.1992 43.214 61.2628 42.8773C61.3319 42.512 61.4326 42.3032 61.7045 41.9622C62.0959 41.471 62.1162 41.4239 62.1389 40.9435C62.1641 40.4124 62.199 40.3746 62.4439 40.6135C62.6639 40.8287 62.7743 40.8472 63.1122 40.7266C65.0499 40.0339 66.3385 38.0618 66.5786 35.4214C66.68 34.3068 66.6487 34.4445 66.8906 34.043C67.1566 33.6009 67.2046 33.5684 67.4397 33.6695C67.8918 33.864 68.141 33.4627 68.5019 31.9593C68.593 31.5896 68.6903 31.2214 68.7938 30.855C69.3077 29.0429 69.2898 28.5106 68.7147 28.5106C68.492 28.5106 68.3213 28.9509 68.3832 29.3667L68.4258 29.6527L68.3251 29.815C68.2197 29.9844 67.9337 30.2089 67.8232 30.2089C67.7053 30.2089 67.695 30.1096 67.7299 29.3249C67.7792 28.2217 67.7534 28.1574 67.3098 28.2732ZM52.1853 28.6673C51.9773 28.8753 51.9672 29.3308 52.1552 30.0355C52.7035 32.0908 52.7181 32.1322 52.9486 32.2902C53.2167 32.4737 53.2269 32.121 52.9893 30.8674C52.8183 29.9638 52.7848 29.5565 52.8656 29.3641C53.0823 28.8473 52.5502 28.3023 52.1853 28.6673ZM56.4324 29.4272C56.1953 29.5013 55.991 29.6395 55.7901 29.8617C55.5212 30.1587 55.4219 30.1556 55.001 29.8363C54.8262 29.7037 54.7478 29.6953 54.6741 29.8007C54.5068 30.0393 54.8595 30.5281 55.3712 30.7668C55.7254 30.9322 55.7827 31.0831 55.5857 31.3337C55.4767 31.4722 55.3098 31.4418 54.8006 31.1903C54.3551 30.9703 54.2884 31.0929 54.4809 31.7774C54.914 33.3212 55.4157 33.5957 56.4776 32.8706C56.6319 32.7652 56.8894 32.6286 57.0496 32.5669C57.4181 32.4253 57.4136 32.4294 57.4965 32.1513C57.5348 32.0231 57.6116 31.8498 57.6676 31.7668C57.8012 31.5676 57.7979 31.5655 57.3846 31.5836C56.9042 31.6047 56.8557 31.5788 56.8557 31.3005C56.8557 31.0578 56.8407 31.0664 57.3646 31.009C58.2237 30.9148 58.7606 30.4487 58.5064 30.0178C58.4053 29.8466 58.4139 29.7476 58.5418 29.6017C58.6927 29.4298 58.6467 29.4116 58.2163 29.4731C57.8598 29.5238 57.8241 29.5229 57.3844 29.4509C56.8677 29.3664 56.6451 29.3609 56.4324 29.4272ZM58.2953 31.6925C58.0307 31.9572 58.1035 32.5205 58.4318 32.7487C58.6506 32.9008 58.7831 32.786 58.6984 32.5176C58.6308 32.3032 58.6236 31.9895 58.6815 31.7957C58.7486 31.5722 58.486 31.5019 58.2953 31.6925ZM62.3147 33.3537C62.286 33.3647 62.2081 33.408 62.1413 33.45C62.0746 33.4919 61.9192 33.5629 61.7958 33.6078C61.6234 33.6707 61.5263 33.7358 61.3735 33.891C60.9271 34.3443 60.0803 34.3104 59.3089 33.8083C58.8435 33.5055 58.598 33.5526 57.7661 34.104C57.5475 34.249 57.2338 34.43 57.069 34.5062C56.7344 34.6609 56.7118 34.7021 56.8882 34.8367C57.3863 35.2165 58.9975 35.2224 59.9656 34.8477C60.3555 34.697 60.5512 34.6999 61.0557 34.8644C62.1248 35.2129 63.6653 35.1913 64.122 34.8216C64.2093 34.7508 64.144 34.6107 64.0235 34.6107C63.8336 34.6107 63.3504 34.2343 63.0392 33.8439C62.6583 33.3663 62.5218 33.2738 62.3147 33.3537ZM55.3193 34.5034C54.739 34.7038 54.5228 35.3468 54.7578 36.1724C55.3052 38.0939 56.5867 39.6147 57.6511 39.6054C58.0781 39.6016 58.0836 39.5788 57.8304 38.8526C57.7634 38.6598 57.6357 38.2466 57.5468 37.9341C57.458 37.6218 57.3725 37.3525 57.3569 37.3358C57.3064 37.2815 57.1609 37.4821 57.0427 37.7684C56.8725 38.1807 56.7648 38.2002 56.547 37.8578C56.2204 37.3439 55.8332 35.714 55.8332 34.853C55.8332 34.4847 55.6785 34.3793 55.3193 34.5034ZM59.6179 35.6567C59.1913 35.6999 59.1563 35.7612 59.4533 35.9438L59.6245 36.0491L60.2678 36.0436C61.2054 36.0354 62.2573 35.8588 62.1294 35.7308C62.0519 35.6535 60.1954 35.5983 59.6179 35.6567ZM74.5498 53.4699C75.3614 53.5486 76.1565 53.7312 76.274 53.8657C76.3808 53.9879 76.3844 53.9599 76.0889 55.3026C75.7665 56.767 75.8395 56.6546 75.2101 56.6546C74.6247 56.6546 74.612 56.6455 74.5811 56.2088C74.5226 55.3817 73.9307 54.9719 72.8875 55.0362C71.326 55.1328 70.1131 56.3882 69.8508 58.1795C69.4727 60.7633 71.6346 62.1537 74.7751 61.3462C75.5652 61.1428 75.5829 61.1652 75.399 62.1396C75.2454 62.9534 75.2674 62.9228 74.723 63.0648C73.107 63.4857 70.8953 63.4915 69.5239 63.0785C66.9239 62.2953 65.795 60.0518 66.6647 57.3966C67.5884 54.5771 70.5842 53.0852 74.5498 53.4699ZM51.5459 53.681L51.616 53.7748L51.5344 54.1633C51.4424 54.6021 51.3967 54.6727 51.1475 54.7631C50.9694 54.8274 50.7353 55.0385 50.6717 55.1919C50.6303 55.292 50.0461 57.9119 50.0612 57.9291C50.0732 57.9425 53.4154 55.1632 53.4666 55.0974C53.5739 54.9589 53.5056 54.8154 53.2776 54.6999C53.2086 54.6648 53.1562 54.6065 53.1414 54.5483C53.1043 54.4023 53.2518 53.748 53.3436 53.65L53.4192 53.5698H57.6235L57.7037 53.6552C57.7935 53.7506 57.7914 53.8224 57.6848 54.2901C57.6054 54.6395 57.574 54.6686 57.207 54.7318C56.8708 54.7896 56.4829 54.9278 56.2663 55.0668C56.1507 55.1412 53.0038 57.7417 52.8566 57.8846C52.8161 57.9241 53.0125 58.2072 54.121 59.7082C55.82 62.0093 55.8404 62.0308 56.4047 62.0938C56.8313 62.1418 56.8722 62.2097 56.7674 62.6964C56.6293 63.3358 56.7754 63.287 55.064 63.2654C52.4658 63.2322 52.0067 62.9049 50.3116 59.878C50.1575 59.6015 50.0023 59.3256 49.8462 59.0502C49.8044 58.981 49.2685 61.4455 49.2957 61.5816C49.328 61.7434 49.4337 61.8652 49.6351 61.973C49.9823 62.1585 49.9854 62.1681 49.8692 62.6915C49.7749 63.1167 49.7448 63.1887 49.6424 63.2354C49.5813 63.2633 48.8792 63.2745 47.2058 63.2745C44.3418 63.2745 44.5696 63.3379 44.7437 62.5914C44.8362 62.1951 44.8707 62.1463 45.0921 62.0986C45.569 61.9964 45.875 61.638 46.0709 60.9522C46.1214 60.775 47.2019 55.8544 47.2515 55.5749C47.3086 55.2535 47.1364 54.9321 46.8327 54.7928C46.5274 54.6531 46.5152 54.6127 46.6247 54.1125C46.7579 53.5026 46.4484 53.5677 49.1702 53.5782L51.4759 53.5871L51.5459 53.681ZM67.0126 53.6548C67.1218 53.764 67.1386 53.6401 66.821 55.0735C66.4872 56.5809 66.5757 56.4465 65.9165 56.4465C65.2785 56.4465 65.2608 56.4341 65.2608 55.985C65.2608 55.6197 65.1809 55.4443 64.9542 55.3109L64.793 55.216L63.5739 55.2057L62.3549 55.1955L62.3131 55.3963C62.2903 55.507 62.167 56.0732 62.039 56.6544L61.8066 57.7117L63.3654 57.7288L64.9241 57.7464L64.9955 57.8419L65.0668 57.9375L64.9045 58.6709C64.7808 59.2297 64.7241 59.4236 64.666 59.4853L64.5903 59.566H61.3951L61.2095 60.416C60.9534 61.5865 60.9706 61.7064 61.4381 62.0186C61.5447 62.0897 61.643 62.1793 61.6564 62.2174C61.699 62.3389 61.5043 63.1387 61.4141 63.2116C61.3197 63.288 57.6491 63.3109 57.4849 63.2361C57.2885 63.1466 57.2618 63.3057 58.135 59.3474C59.0894 55.0202 59.0024 55.4544 58.9521 55.265C58.8933 55.044 58.7685 54.8999 58.533 54.7812C58.2431 54.6347 58.2312 54.5948 58.3323 54.117C58.3914 53.8379 58.4371 53.7033 58.4916 53.6478L58.5681 53.5698H66.9275L67.0126 53.6548Z" fill="#FBFBFB"/>
<path fill-rule="evenodd" clip-rule="evenodd" d="M86.4826 15.8423C86.4829 15.9377 86.4894 15.9726 86.4975 15.9197C86.5054 15.8622 86.5053 15.804 86.4972 15.7466C86.4889 15.704 86.4824 15.7469 86.4826 15.8423ZM60.313 16.6115C60.3462 16.6201 60.4007 16.6201 60.4342 16.6115C60.4676 16.6027 60.4402 16.5956 60.3735 16.5956C60.3069 16.5956 60.2795 16.6025 60.313 16.6115ZM60.6248 16.6115C60.6584 16.6201 60.7128 16.6201 60.7462 16.6115C60.7795 16.6027 60.7522 16.5956 60.6855 16.5956C60.6188 16.5956 60.5915 16.6025 60.6248 16.6115ZM52.2716 20.2853C52.3051 20.2939 52.3596 20.2939 52.3931 20.2853C52.4265 20.2767 52.3991 20.2695 52.3324 20.2695C52.2658 20.2695 52.2383 20.2766 52.2716 20.2853ZM52.8257 22.6877C52.8257 22.7545 52.833 22.7819 52.8415 22.7483C52.8501 22.7083 52.8501 22.667 52.8415 22.627C52.833 22.5936 52.8257 22.621 52.8257 22.6877ZM66.5164 23.2421C66.5164 23.309 66.5235 23.3363 66.5323 23.3028C66.5408 23.2695 66.5408 23.2152 66.5323 23.1816C66.5237 23.1483 66.5164 23.1756 66.5164 23.2421ZM50.9217 24.1087C50.9217 24.2136 50.9282 24.2566 50.9363 24.204C50.9442 24.1407 50.9442 24.0766 50.9363 24.0134C50.9282 23.9611 50.9217 24.0039 50.9217 24.1087ZM53.1377 26.8122C53.1377 26.8789 53.1447 26.9062 53.1535 26.8729C53.1621 26.8329 53.1621 26.7915 53.1535 26.7515C53.1447 26.7182 53.1377 26.7455 53.1377 26.8122ZM54.5419 27.0793C54.5849 27.0876 54.655 27.0876 54.698 27.0793C54.741 27.0711 54.7057 27.0643 54.62 27.0643C54.5342 27.0643 54.499 27.0711 54.5419 27.0793ZM57.3152 27.0793C57.3581 27.0877 57.4207 27.0874 57.4539 27.0788C57.487 27.07 57.4516 27.0633 57.3755 27.0635C57.2992 27.064 57.272 27.0712 57.3153 27.0795M63.6755 27.0798C63.7281 27.0877 63.8061 27.0876 63.8487 27.0793C63.8914 27.0711 63.8484 27.0645 63.7528 27.0647C63.6576 27.065 63.6227 27.0717 63.6755 27.0798ZM60.3302 27.9457C60.3732 27.954 60.4433 27.954 60.4863 27.9457C60.5293 27.9375 60.4939 27.9308 60.4083 27.9308C60.3223 27.9308 60.2874 27.9377 60.3302 27.9457ZM70.0518 28.7532C70.0518 28.8199 70.0588 28.8472 70.0676 28.8139C70.0762 28.7739 70.0762 28.7325 70.0676 28.6925C70.059 28.6592 70.0518 28.6865 70.0518 28.7532ZM51.9957 29.2558C51.9959 29.3512 52.0026 29.3861 52.0107 29.3331C52.0186 29.2757 52.0185 29.2174 52.0102 29.16C52.0019 29.1174 51.9954 29.1606 51.9957 29.2558ZM56.7261 29.367C56.7691 29.3752 56.8315 29.3749 56.8647 29.3663C56.8977 29.3577 56.8624 29.3508 56.7863 29.3512C56.71 29.3517 56.6828 29.3587 56.7261 29.367ZM57.194 31.5856C57.2466 31.5935 57.3246 31.5933 57.3672 31.5851C57.4099 31.5768 57.3667 31.5703 57.2715 31.5706C57.1761 31.5708 57.1414 31.5775 57.194 31.5856ZM64.5591 31.5852C64.6024 31.5935 64.6646 31.5931 64.6978 31.5845C64.731 31.576 64.6956 31.5691 64.6194 31.5694C64.5431 31.5699 64.516 31.577 64.5591 31.5852ZM67.6089 34.8432C67.6519 34.8514 67.7218 34.8514 67.7648 34.8432C67.8078 34.8349 67.7727 34.8282 67.6868 34.8282C67.601 34.8282 67.5659 34.8351 67.6089 34.8432ZM58.0254 35.1546C58.0587 35.1632 58.1132 35.1632 58.1467 35.1546C58.1801 35.146 58.1527 35.1386 58.086 35.1386C58.0193 35.1386 57.992 35.1458 58.0254 35.1546ZM60.4347 35.6065C60.4971 35.614 60.5906 35.6139 60.6427 35.606C60.695 35.5982 60.6439 35.5917 60.5296 35.592C60.4151 35.592 60.3725 35.5987 60.4347 35.6065ZM59.5497 38.5968C59.5497 38.6635 59.557 38.6906 59.5656 38.6573C59.5743 38.6174 59.5743 38.576 59.5656 38.5361C59.557 38.5026 59.5497 38.5299 59.5497 38.5968ZM56.332 43.8476C56.332 44.1146 56.3375 44.2192 56.3441 44.0802C56.3506 43.9411 56.3506 43.7227 56.3441 43.595C56.3372 43.4669 56.332 43.5809 56.332 43.8476ZM58.1467 45.1032C58.2086 45.1109 58.31 45.1109 58.3719 45.1032C58.4337 45.0955 58.3832 45.0893 58.2593 45.0893C58.1354 45.0893 58.0847 45.0955 58.1467 45.1032ZM60.5233 50.1038C60.5233 50.2279 60.5296 50.2784 60.5372 50.2166C60.5449 50.1417 60.5449 50.0662 60.5372 49.9914C60.5296 49.9293 60.5234 49.9799 60.5234 50.1038M62.8972 55.1902C63.2083 55.196 63.7073 55.196 64.0063 55.1902C64.3054 55.1843 64.051 55.1797 63.441 55.1797C62.8309 55.1797 62.5863 55.1845 62.8972 55.1902ZM74.5942 56.2907C74.5943 56.3861 74.601 56.421 74.6091 56.368C74.617 56.3106 74.6169 56.2523 74.6086 56.195C74.6003 56.1523 74.5938 56.1953 74.5942 56.2907ZM75.0089 56.6456C75.1184 56.6525 75.2976 56.6525 75.4075 56.6456C75.517 56.6387 75.4272 56.6331 75.2081 56.6331C74.9888 56.6331 74.8992 56.6387 75.0087 56.6456M62.1846 59.5574C62.6183 59.5629 63.3279 59.5629 63.7616 59.5574C64.1954 59.5519 63.8405 59.5474 62.9732 59.5474C62.1057 59.5474 61.751 59.5519 62.1846 59.5574ZM46.0677 63.266C46.711 63.2713 47.7638 63.2713 48.4071 63.266C49.0505 63.2608 48.5242 63.2564 47.2373 63.2564C45.9506 63.2564 45.4244 63.2608 46.0677 63.266ZM54.8735 63.266C55.1748 63.2717 55.6583 63.2717 55.9479 63.266C56.2373 63.2601 55.9909 63.2555 55.3998 63.2555C54.8089 63.2555 54.572 63.2603 54.8735 63.266ZM58.4734 63.266C58.982 63.2715 59.8244 63.2715 60.3452 63.266C60.866 63.2607 60.4499 63.2562 59.4205 63.2562C58.3909 63.2562 57.9649 63.2607 58.4734 63.266Z" fill="#7C7C7C"/>
<path fill-rule="evenodd" clip-rule="evenodd" d="M48.3348 14.014C55.0102 14.0188 65.9436 14.0188 72.6317 14.014C79.3195 14.009 73.8579 14.0052 60.4948 14.0052C47.1315 14.0052 41.6596 14.009 48.3348 14.014ZM60.4515 15.7813C60.5609 15.7881 60.7402 15.7881 60.8502 15.7813C60.9595 15.7744 60.87 15.7687 60.6508 15.7687C60.4315 15.7687 60.3418 15.7744 60.4515 15.7813ZM58.2332 21.0142C58.2856 21.0221 58.3714 21.0221 58.4238 21.0142C58.4762 21.0062 58.4334 20.9996 58.3284 20.9996C58.2236 20.9996 58.1808 21.0062 58.2332 21.0142ZM66.5163 23.0343C66.5163 23.101 66.5234 23.1281 66.5321 23.095C66.5407 23.055 66.5407 23.0136 66.5321 22.9736C66.5235 22.9401 66.5163 22.9674 66.5163 23.0343ZM51.9597 24.5073C51.9602 24.5834 51.9672 24.6108 51.9755 24.5674C51.9839 24.5245 51.9836 24.4621 51.9748 24.4289C51.9662 24.3957 51.9593 24.431 51.9597 24.5073ZM55.3737 27.0808C55.7216 27.0865 56.291 27.0865 56.6387 27.0808C56.9868 27.0751 56.7021 27.0705 56.0062 27.0705C55.3104 27.0705 55.0258 27.0751 55.3737 27.0808ZM64.1269 27.0806C64.277 27.0873 64.4273 27.0873 64.5774 27.0805C64.6958 27.0738 64.5897 27.0681 64.3421 27.0684C64.0942 27.0684 63.9973 27.0741 64.1269 27.0806ZM65.5291 27.0805C65.6672 27.0872 65.8934 27.0872 66.0316 27.0805C66.1698 27.0741 66.0569 27.0684 65.7805 27.0684C65.504 27.0684 65.3909 27.0741 65.5291 27.0805ZM67.7655 28.7185C67.7655 28.8044 67.7724 28.8395 67.7805 28.7965C67.7887 28.7448 67.7887 28.6921 67.7805 28.6404C67.7722 28.5976 67.7655 28.6325 67.7655 28.7185ZM51.0926 28.9266C51.0926 28.9933 51.0998 29.0206 51.1084 28.9871C51.117 28.9471 51.117 28.9057 51.1084 28.8658C51.0998 28.8326 51.0926 28.8599 51.0926 28.9266ZM53.1735 32.046C53.1735 32.1318 53.1804 32.1668 53.1886 32.1239C53.1969 32.0809 53.1969 32.0108 53.1886 31.968C53.1804 31.925 53.1735 31.9602 53.1735 32.046ZM59.4723 32.542C59.4723 32.5479 59.523 32.5988 59.5848 32.6546L59.6976 32.7565L59.5957 32.6438C59.5008 32.5389 59.4723 32.5152 59.4723 32.542ZM60.5388 34.1852C60.6079 34.1929 60.6776 34.1928 60.7467 34.185C60.7988 34.1769 60.7478 34.1707 60.6333 34.1709C60.519 34.1711 60.4764 34.1774 60.5388 34.1852ZM55.841 34.8187C55.841 34.8854 55.8481 34.9127 55.8568 34.8794C55.8654 34.8394 55.8654 34.798 55.8568 34.758C55.8482 34.7247 55.841 34.752 55.841 34.8187ZM67.4214 35.2347C67.4214 35.3966 67.4274 35.4629 67.4348 35.382C67.4422 35.301 67.4422 35.1683 67.4348 35.0874C67.4274 35.0062 67.4214 35.0726 67.4214 35.2347ZM58.2509 35.1551C58.2939 35.1633 58.3564 35.1632 58.3894 35.1546C58.4226 35.146 58.3874 35.1391 58.3112 35.1394C58.2349 35.1398 58.2078 35.1468 58.2509 35.1551ZM60.157 35.6057C60.2003 35.614 60.2627 35.6137 60.2959 35.6051C60.3289 35.5965 60.2938 35.5896 60.2174 35.5899C60.1412 35.5905 60.1142 35.5975 60.1572 35.6057M60.7808 35.6057C60.8236 35.614 60.8937 35.614 60.9367 35.6057C60.9796 35.5975 60.9444 35.5906 60.8586 35.5906C60.7729 35.5906 60.7378 35.5975 60.7808 35.6057ZM64.8099 39.6538C64.7257 39.7397 64.6647 39.8099 64.6741 39.8099C64.6838 39.8099 64.7604 39.7396 64.8446 39.6538C64.9289 39.568 64.9899 39.4979 64.9804 39.4979C64.9708 39.4979 64.8941 39.568 64.8099 39.6538ZM65.3981 40.4596L65.1738 40.6937L65.4079 40.4694C65.5366 40.3459 65.6418 40.2408 65.6418 40.2353C65.6418 40.2098 65.6066 40.2421 65.3981 40.4596ZM62.1515 40.9535C62.1515 41.0584 62.158 41.1014 62.1659 41.0488C62.1739 40.9855 62.1739 40.9215 62.1659 40.8583C62.158 40.8059 62.1515 40.8487 62.1515 40.9535ZM64.5815 44.1422C64.5815 44.4567 64.5866 44.5855 64.5932 44.4282C64.5995 44.2709 64.5995 44.0136 64.5932 43.8564C64.5866 43.6991 64.5815 43.8277 64.5815 44.1422ZM56.3285 44.4889C56.3285 44.5937 56.335 44.6367 56.3431 44.5841C56.3509 44.5208 56.3509 44.4568 56.3431 44.3935C56.335 44.3412 56.3285 44.384 56.3285 44.4889ZM59.2729 45.0674C59.3064 45.076 59.3609 45.076 59.3942 45.0674C59.4278 45.0587 59.4004 45.0514 59.3336 45.0514C59.2669 45.0514 59.2397 45.0587 59.2729 45.0674ZM57.7827 45.103C57.835 45.1109 57.9207 45.1109 57.9732 45.103C58.0258 45.0949 57.9828 45.0884 57.8779 45.0884C57.7731 45.0884 57.7301 45.0949 57.7825 45.103M56.83 45.1379C56.8991 45.1457 56.9689 45.1455 57.038 45.1375C57.0902 45.1296 57.0392 45.1233 56.9247 45.1234C56.8104 45.1238 56.7676 45.1302 56.83 45.1379ZM62.1491 49.3759C62.1491 49.4427 62.1563 49.4701 62.1651 49.4365C62.1737 49.4032 62.1737 49.3485 62.1651 49.3154C62.1565 49.282 62.1491 49.3092 62.1491 49.3759ZM60.5219 50.4678C60.5223 50.563 60.529 50.5981 60.537 50.5451C60.5448 50.4925 60.5448 50.4145 60.5365 50.3721C60.5283 50.3293 60.5218 50.3724 60.5219 50.4678ZM48.0084 53.596C48.6328 53.6011 49.6543 53.6011 50.2787 53.596C50.903 53.5905 50.3922 53.5862 49.1435 53.5862C47.895 53.5862 47.3841 53.5906 48.0084 53.596ZM54.4899 53.5958C55.0571 53.6011 55.9852 53.6011 56.5521 53.5958C57.1193 53.5905 56.6552 53.5862 55.521 53.5862C54.3868 53.5862 53.9229 53.5905 54.4899 53.5958ZM60.6794 53.5958C61.8294 53.6009 63.701 53.6009 64.8388 53.5958C65.9763 53.5908 65.0352 53.5865 62.7477 53.5865C60.46 53.5865 59.5293 53.5908 60.6794 53.5958ZM72.9456 55.0158C73.0263 55.0236 73.1075 55.0237 73.1882 55.0162C73.2601 55.0086 73.2099 55.0024 73.0764 55.0023C72.943 55.0023 72.884 55.0083 72.9457 55.0158M62.5482 57.7551C62.9724 57.7606 63.6664 57.7606 64.0906 57.7551C64.5148 57.7494 64.1678 57.7451 63.3194 57.7451C62.471 57.7451 62.124 57.7494 62.5482 57.7551ZM69.7768 58.7514C69.7772 58.8659 69.7835 58.9085 69.7913 58.8463C69.799 58.7772 69.7988 58.7074 69.7909 58.6383C69.783 58.5862 69.7767 58.6371 69.7768 58.7514ZM66.3798 59.1502C66.3798 59.255 66.3864 59.298 66.3943 59.2454C66.4023 59.1821 66.4023 59.1181 66.3943 59.0548C66.3864 59.0024 66.3798 59.0452 66.3798 59.1502ZM72.8768 61.6015C72.9388 61.6091 73.0401 61.6091 73.1021 61.6015C73.164 61.5938 73.1135 61.5874 72.9896 61.5874C72.8656 61.5874 72.8149 61.5938 72.877 61.6015M71.3345 63.3679C71.3679 63.3765 71.4224 63.3765 71.4559 63.3679C71.4892 63.3591 71.4619 63.3521 71.395 63.3521C71.3285 63.3521 71.3012 63.3591 71.3345 63.3679ZM72.3397 63.3679C72.373 63.3765 72.4277 63.3765 72.461 63.3679C72.4944 63.3591 72.467 63.3521 72.4004 63.3521C72.3337 63.3521 72.3063 63.3591 72.3397 63.3679ZM50.3133 66.0041C55.9227 66.0089 65.1016 66.0089 70.7108 66.0041C76.32 65.9993 71.7307 65.9955 60.5121 65.9955C49.2934 65.9955 44.7041 65.9993 50.3133 66.0041Z" fill="#6C6C6C"/>
<path fill-rule="evenodd" clip-rule="evenodd" d="M66.9257 18.3378C66.9905 18.4046 67.0511 18.4591 67.0606 18.4591C67.0701 18.4591 67.025 18.4046 66.9604 18.3378C66.8956 18.2711 66.8349 18.2164 66.8255 18.2164C66.816 18.2164 66.8611 18.2711 66.9257 18.3378ZM67.4803 61.9056C67.545 61.9722 67.6056 62.0269 67.6152 62.0269C67.6247 62.0269 67.5797 61.9722 67.5149 61.9056C67.4502 61.8389 67.3894 61.7842 67.3799 61.7842C67.3705 61.7842 67.4155 61.8389 67.4803 61.9056Z" fill="#9C9C9C"/>
<path fill-rule="evenodd" clip-rule="evenodd" d="M34.5273 15.8596C34.5273 15.9645 34.5339 16.0074 34.5418 15.9549C34.5497 15.8915 34.5497 15.8274 34.5418 15.7641C34.5339 15.7118 34.5273 15.7548 34.5273 15.8596ZM56.8991 17.6172C56.942 17.6255 57.0048 17.625 57.0378 17.6164C57.0709 17.6078 57.0355 17.6009 56.9594 17.6013C56.8831 17.6018 56.8559 17.6088 56.8992 17.6172M57.2112 18.9689C57.2542 18.9771 57.3165 18.9768 57.3497 18.9682C57.3829 18.9596 57.3477 18.9527 57.2713 18.9531C57.1952 18.9534 57.1679 18.9605 57.2112 18.9689ZM66.5194 23.5542C66.5194 23.678 66.5256 23.7287 66.5333 23.6668C66.541 23.6049 66.541 23.5035 66.5333 23.4417C66.5256 23.3796 66.5194 23.4301 66.5194 23.5542ZM70.087 25.0965C70.0874 25.1728 70.0944 25.2 70.1027 25.1568C70.1111 25.1137 70.1107 25.0513 70.102 25.0181C70.0934 24.9851 70.0865 25.0202 70.087 25.0965ZM68.4573 25.1833C68.4573 25.2498 68.4645 25.2771 68.4731 25.2438C68.4819 25.2039 68.4819 25.1625 68.4731 25.1226C68.4645 25.0891 68.4573 25.1164 68.4573 25.1833ZM63.3972 27.0787C63.4307 27.0873 63.4852 27.0873 63.5187 27.0787C63.5519 27.0702 63.5246 27.0628 63.4581 27.0628C63.3912 27.0628 63.3639 27.07 63.3972 27.0787ZM67.7292 29.2731C67.7292 29.3398 67.7363 29.3671 67.7452 29.3338C67.7538 29.2938 67.7538 29.2524 67.7452 29.2124C67.7363 29.1791 67.7292 29.2062 67.7292 29.2731ZM54.6291 35.5812C54.6291 35.6671 54.6359 35.7022 54.644 35.6592C54.6523 35.6162 54.6523 35.5461 54.644 35.5033C54.6358 35.4603 54.6291 35.4954 54.6291 35.5812ZM59.862 36.0903C59.8954 36.099 59.9499 36.099 59.9834 36.0903C60.0166 36.0817 59.9894 36.0746 59.9227 36.0746C59.8559 36.0746 59.8285 36.0815 59.862 36.0903ZM61.0057 36.8182C61.0391 36.8269 61.0937 36.8269 61.1271 36.8182C61.1604 36.8096 61.1331 36.8024 61.0664 36.8024C60.9997 36.8024 60.9724 36.8096 61.0057 36.8182ZM61.3871 36.8182C61.4203 36.8269 61.4749 36.8269 61.5083 36.8182C61.5418 36.8096 61.5145 36.8024 61.4476 36.8024C61.3809 36.8024 61.3538 36.8096 61.3871 36.8182ZM63.781 37.2102C63.781 37.3341 63.7874 37.3849 63.7948 37.323C63.8025 37.2481 63.8025 37.1727 63.7948 37.0978C63.7874 37.0358 63.781 37.0863 63.781 37.2102ZM63.2592 42.6422C63.3118 42.65 63.3898 42.65 63.4325 42.6415C63.4751 42.6333 63.4321 42.6268 63.3365 42.6271C63.2413 42.6275 63.2064 42.6342 63.2592 42.6422ZM58.1814 42.711C58.2244 42.7194 58.2868 42.7191 58.32 42.7105C58.3531 42.7019 58.3179 42.695 58.2416 42.6953C58.1654 42.6957 58.1383 42.7027 58.1814 42.711ZM64.6098 43.2411C64.6098 43.3079 64.6169 43.3352 64.6256 43.3017C64.6344 43.2618 64.6344 43.2203 64.6256 43.1804C64.617 43.147 64.6098 43.1744 64.6098 43.2411ZM62.7735 44.9982C62.8068 45.0067 62.8613 45.0067 62.8946 44.9982C62.9282 44.9892 62.9008 44.9822 62.8341 44.9822C62.7675 44.9822 62.7401 44.9892 62.7735 44.9982ZM58.5975 45.1032C58.6667 45.1109 58.7364 45.1108 58.8055 45.1028C58.8576 45.0949 58.8065 45.0887 58.6921 45.0889C58.578 45.0891 58.5352 45.0954 58.5975 45.1032ZM60.5217 47.3484C60.5221 47.4436 60.5288 47.4787 60.5368 47.4257C60.5446 47.3732 60.5446 47.2951 60.5363 47.2525C60.5281 47.2099 60.5215 47.253 60.5217 47.3484ZM60.5248 49.5319C60.5248 49.7416 60.5306 49.8229 60.5375 49.7126C60.5444 49.6024 60.5444 49.4307 60.5374 49.3313C60.5305 49.232 60.5248 49.3222 60.5248 49.5319ZM62.1891 50.1904C62.1891 50.4384 62.1946 50.5352 62.2013 50.4058C62.208 50.2556 62.208 50.1052 62.2013 49.9551C62.1944 49.8368 62.1889 49.9424 62.1891 50.1904ZM54.1433 63.2637C54.1765 63.2723 54.2312 63.2723 54.2645 63.2637C54.2979 63.2551 54.2705 63.2479 54.2038 63.2479C54.1372 63.2479 54.1098 63.255 54.1433 63.2637Z" fill="#BCBCBC"/>
<path fill-rule="evenodd" clip-rule="evenodd" d="M36.1618 15.6603L36.0599 15.773L36.1725 15.6713C36.2344 15.6151 36.2853 15.5645 36.2853 15.5585C36.2853 15.5317 36.2567 15.5553 36.1618 15.6603ZM35.9121 16.2756C35.9121 16.3423 35.919 16.3696 35.9279 16.3363C35.9365 16.3028 35.9365 16.2483 35.9279 16.2147C35.9192 16.1816 35.9121 16.2089 35.9121 16.2756Z" fill="#F4839A"/>
<path fill-rule="evenodd" clip-rule="evenodd" d="M73.4933 33.1031C73.4933 42.8633 73.4973 46.851 73.5021 41.9645C73.5071 37.0781 73.5071 29.0925 73.5021 24.2186C73.4973 19.3448 73.4933 23.3428 73.4933 33.1031ZM60.8426 20.4694C60.9365 20.5646 61.021 20.6426 61.0307 20.6426C61.0401 20.6426 60.971 20.5646 60.8772 20.4694C60.7833 20.3742 60.6986 20.2961 60.6891 20.2961C60.6795 20.2961 60.7486 20.3742 60.8426 20.4694ZM55.5725 21.3446L55.4355 21.4919L55.5828 21.3549C55.7198 21.2274 55.7461 21.1973 55.7198 21.1973C55.7142 21.1973 55.648 21.2636 55.5725 21.3446ZM65.8663 31.1187L65.7643 31.2313L65.8769 31.1296C65.9388 31.0735 65.9895 31.023 65.9895 31.017C65.9895 30.9902 65.961 31.0137 65.8661 31.1187M63.1821 34.0324C63.1821 34.0384 63.2328 34.0891 63.2946 34.145L63.4074 34.2467L63.3056 34.1342C63.2108 34.0293 63.1821 34.0056 63.1821 34.0324ZM67.9288 55.2941L67.8092 55.4242L67.9393 55.3046C68.0601 55.1936 68.0852 55.1642 68.0587 55.1642C68.0529 55.1642 67.9944 55.2226 67.9288 55.2941ZM70.4605 60.6167C70.4605 60.6227 70.5114 60.6734 70.5735 60.7294L70.686 60.8312L70.5843 60.7186C70.4892 60.6136 70.4605 60.59 70.4605 60.6167Z" fill="#CCCCCC"/>
</svg>
