<svg width="121" height="80" viewBox="0 0 121 80" fill="none" xmlns="http://www.w3.org/2000/svg">
<path d="M43.495 20.313C36.0432 21.2135 29.0332 23.227 22.7327 26.9384C18.4552 29.7427 14.8247 34.1396 14.8702 39.6499C14.5715 45.16 17.9057 49.767 22.231 52.6332C37.1371 61.3175 56.3662 61.5681 74.2528 59.9703L76.1205 59.8126C76.1205 59.8126 103.52 57.8089 105.952 42.5567C106.952 36.4233 104.081 31.1186 99.2975 27.8368C96.0658 25.6563 93.5844 24.67 93.5844 24.67C78.7309 18.94 61.7899 18.4168 45.3938 20.115L43.495 20.313Z" fill="white"/>
<path d="M43.495 20.313C36.0432 21.2135 29.0332 23.227 22.7327 26.9384C18.4552 29.7427 14.8247 34.1396 14.8702 39.6499C14.5715 45.16 17.9057 49.767 22.231 52.6332C37.1371 61.3175 56.3662 61.5681 74.2529 59.9703L76.1205 59.8126C76.1205 59.8126 103.52 57.8089 105.952 42.5567C106.952 36.4233 104.081 31.1186 99.2975 27.8368C96.0659 25.6563 93.5844 24.67 93.5844 24.67C78.7309 18.94 61.7899 18.4168 45.3938 20.115L43.495 20.313Z" stroke="#A1ACC6" stroke-width="10.1031"/>
<path d="M89.0569 34.8633L94.0058 28.4696H84.6481C84.0915 28.921 84.2874 29.635 84.4092 30.3922C78.8943 26.6353 70.2508 24.1944 60.5468 24.1944C55.7006 24.1944 51.1198 24.7963 47.0738 25.8758L46.2402 22.4198C61.717 20.9341 77.6883 21.3903 91.7057 26.4559C91.7057 26.4559 94.0464 27.3352 97.0988 29.2672C101.613 32.1596 104.314 36.8551 103.38 42.3008C101.078 55.7833 75.2283 57.553 75.2283 57.553L74.4019 54.1951C84.082 51.5463 90.7002 46.2273 90.7002 40.0771C90.7002 38.2478 90.139 36.4969 89.0572 34.8633" fill="#A1ACC6"/>
<path d="M47.076 44.6892H41.0954C39.9132 46.7049 36.634 48.4389 38.0359 51.0136H31.0117C36.8703 44.8276 42.2656 37.8392 47.5083 31.1852C48.1124 30.249 46.3833 30.1749 47.2837 29.5706H55.483L54.3559 40.0389C53.1759 40.605 51.8241 41.4552 51.2197 42.7689C50.9356 43.569 50.7969 44.8276 51.3559 45.5799C51.8239 46.416 52.7649 46.8388 53.6105 47.1229C53.4194 48.5248 53.7513 49.9316 54.5899 51.0136H44.0423C44.4676 49.8337 46.383 49.7502 46.6219 48.2573L47.0758 44.6892" fill="#A1ACC6"/>
<path d="M44.3652 40.9417C45.3086 39.4775 46.7154 37.8871 47.8355 36.3464L47.4202 40.9417H44.3652Z" fill="white"/>
<path d="M74.4219 51.8638C72.7308 51.5749 70.5861 50.3522 70.2517 48.8139C69.8981 47.2807 70.9013 43.1846 71.2285 40.3756L62.604 51.6323C60.9131 51.4842 58.938 50.1801 58.434 48.9524C57.9251 47.7201 58.1305 47.388 58.2595 46.5951C59.7018 46.0219 62.7782 44.4409 61.4764 41.5532C64.0991 40.7843 62.6134 38.0497 61.5745 38.4436C62.2839 37.9516 61.8254 36.1532 59.9792 36.0409C60.0175 35.8046 60.7936 33.0531 60.7578 32.1312C60.7195 31.0325 59.8071 30.3757 60.3302 29.5706H67.7605C66.8698 34.0274 66.0265 38.496 65.1884 43.0006C67.8083 40.0389 70.2514 36.2917 72.5898 32.8738C73.4522 31.431 72.8238 30.4115 72.5898 29.5706H80.376C77.706 33.4636 78.1191 38.6871 76.9894 43.1843C79.9031 39.9506 82.7716 36.012 85.2939 32.3149C85.9984 31.4668 84.9237 30.1747 85.6761 29.5706H91.5778L74.4219 51.8638Z" fill="#A1ACC6"/>
<path d="M62.0573 39.6426C61.3239 38.3433 59.3726 39.8526 59.9146 40.2682C60.1512 40.4378 60.1989 40.3877 60.3969 40.2419C60.6838 40.0388 60.7793 39.6329 60.7793 39.6329C61.7179 39.2364 62.1263 40.0319 61.1303 40.5813C60.5739 40.8894 60.0676 40.8488 59.5923 40.8008C58.0276 40.6266 57.2993 40.9203 56.2987 41.6892C55.7421 42.1815 55.2429 43.0056 55.6609 43.5596C56.0647 44.1089 56.9243 43.9632 57.5285 43.8677C58.245 43.5382 58.5293 42.9172 58.2116 42.5779C57.9083 42.2269 56.7093 42.2579 56.1097 42.628C56.1003 42.0476 56.628 41.7252 57.2181 41.5533C57.9441 41.4126 59.112 41.3719 59.5683 42.2341C59.8406 43.2347 58.8637 44.0779 58.2453 44.4172C57.4833 44.7825 56.3894 45.0571 55.5222 44.6438C54.8322 44.4169 54.3402 43.5596 54.5668 42.8715C54.9969 41.2596 56.8265 39.7572 58.6366 40.297C58.6366 40.297 57.5834 39.9601 57.483 39.3296C57.3566 38.2739 58.0182 38.0112 58.6103 37.6434C59.112 37.5502 59.9788 37.2804 60.3397 37.8702C60.5188 38.2741 60.1177 38.3073 60.1177 38.3073C59.7499 37.8751 59.2911 38.0496 59.0045 38.1666C58.4384 38.4006 58.2116 38.9309 58.6103 39.1889C58.8946 39.3797 59.4773 39.3774 59.4773 39.3774C62.9047 38.1354 59.1266 34.8633 56.2985 38.1926C55.8399 38.7707 55.8399 39.6423 55.8831 40.2776C52.6706 41.2545 50.7861 44.0133 52.7899 45.6015C54.4283 46.6476 56.8359 46.3323 58.4721 45.6015C59.5683 45.0139 60.7936 43.963 60.8866 42.6492C60.8746 42.6326 60.8698 42.6278 60.8652 42.6232C60.8652 41.9733 60.519 41.5459 60.2465 41.3022L60.1726 41.209C61.3431 41.4409 62.511 40.4666 62.0571 39.6426" fill="#A1ACC6"/>
<path d="M39.0308 51.2097C39.1047 51.5152 39.2288 51.8327 39.4056 52.1554H28.1851C29.8737 50.3807 31.5193 48.5607 33.1481 46.6884C31.3878 44.6724 30.3943 42.4487 30.3943 40.0769C30.3943 34.2255 36.4227 29.1024 45.3934 26.3392L44.45 22.6035C37.4184 23.4036 30.8051 25.1854 24.8531 28.4697C20.8238 30.9463 17.4038 34.8417 17.4442 39.7164C17.1719 44.5961 20.3081 48.668 24.3897 51.2094C38.4502 58.8834 56.5949 59.1126 73.4713 57.701L72.8457 54.5891C69.0888 55.4752 64.928 55.9621 60.548 55.9621C52.1145 55.9626 44.5049 54.1381 39.0308 51.2097Z" fill="#A1ACC6"/>
</svg>
