<svg width="52" height="52" viewBox="0 0 52 52" fill="none" xmlns="http://www.w3.org/2000/svg">
<rect width="52" height="52" rx="10" fill="#F8FAFF"/>
<path d="M20 29V27H22.175C22.0917 27.3333 22.0377 27.6667 22.013 28C21.9883 28.3333 21.9923 28.6667 22.025 29H20ZM20 34C18.6167 34 17.4377 33.5123 16.463 32.537C15.4883 31.5617 15.0007 30.3827 15 29V20C14.45 20 13.9793 19.8043 13.588 19.413C13.1967 19.0217 13.0007 18.5507 13 18V16C13 15.45 13.196 14.9793 13.588 14.588C13.98 14.1967 14.4507 14.0007 15 14H25C25.55 14 26.021 14.196 26.413 14.588C26.805 14.98 27.0007 15.4507 27 16V18C27 18.55 26.8043 19.021 26.413 19.413C26.0217 19.805 25.5507 20.0007 25 20V23.025C24.6 23.275 24.2333 23.5667 23.9 23.9C23.5667 24.2333 23.275 24.6 23.025 25H20V23H23V20H17V29C17 29.8333 17.2917 30.5417 17.875 31.125C18.4583 31.7083 19.1667 32 20 32C20.5 32 20.9543 31.8917 21.363 31.675C21.7717 31.4583 22.1173 31.1583 22.4 30.775C22.5333 31.1083 22.6833 31.425 22.85 31.725C23.0167 32.025 23.2167 32.3167 23.45 32.6C23 33.0333 22.4833 33.375 21.9 33.625C21.3167 33.875 20.6833 34 20 34ZM15 18H25V16H15V18ZM28.5 31C29.2 31 29.7917 30.7583 30.275 30.275C30.7583 29.7917 31 29.2 31 28.5C31 27.8 30.7583 27.2083 30.275 26.725C29.7917 26.2417 29.2 26 28.5 26C27.8 26 27.2083 26.2417 26.725 26.725C26.2417 27.2083 26 27.8 26 28.5C26 29.2 26.2417 29.7917 26.725 30.275C27.2083 30.7583 27.8 31 28.5 31ZM33.6 35L30.9 32.3C30.5333 32.5333 30.15 32.7083 29.75 32.825C29.35 32.9417 28.9333 33 28.5 33C27.25 33 26.1877 32.5627 25.313 31.688C24.4383 30.8133 24.0007 29.7507 24 28.5C23.9993 27.2493 24.437 26.187 25.313 25.313C26.189 24.439 27.2513 24.0013 28.5 24C29.7487 23.9987 30.8113 24.4363 31.688 25.313C32.5647 26.1897 33.002 27.252 33 28.5C33 28.9333 32.9417 29.35 32.825 29.75C32.7083 30.15 32.5333 30.5333 32.3 30.9L35 33.6L33.6 35Z" fill="black"/>
</svg>
