<svg width="121" height="80" viewBox="0 0 121 80" fill="none" xmlns="http://www.w3.org/2000/svg">
<path d="M73.8413 20.8361C73.9679 20.5288 73.7148 20.2395 73.7148 20.2395C73.7148 20.2395 71.7261 16.8768 64.7295 16.1175C60.969 15.7197 55.8707 16.479 52.291 18.4135C45.7826 21.9028 44.8063 27.67 44.8063 27.67C44.7701 27.8146 44.7159 28.2485 44.8605 28.4293C45.0052 28.6101 45.2221 28.6101 45.4933 28.5197C47.7894 27.7423 54.6052 25.4824 58.908 24.3435C65.0368 22.7163 70.0809 21.722 73.299 21.1796C73.5521 21.1254 73.7509 21.0531 73.8413 20.8361Z" fill="#A1ACC6"/>
<path d="M80.8399 47.991C77.1699 56.2351 70.1371 61.9661 60.8987 62.0927C54.1913 62.1831 48.2614 59.887 43.9767 55.8735L41.3913 56.9763V52.9628C38.571 49.1661 36.9258 44.339 36.9258 38.8791C36.9258 24.8678 47.6467 13.8396 62.6162 13.8396C65.0569 13.8396 67.2625 14.2192 68.9258 14.5989C66.3586 13.7854 63.8094 13.3334 60.971 13.3334C44.9168 13.3334 34.1055 26.3503 34.1055 39.7831C34.1055 54.4091 45.5857 66.6667 60.6456 66.6667C75.0365 66.6667 82.7925 56.5243 85.2874 50.4136L80.8399 47.991Z" fill="#A1ACC6"/>
<path d="M77.1133 45.0983C79.2286 44.8633 80.693 44.0135 81.4885 43.2181C82.2116 42.4949 82.3924 41.5186 82.3924 40.7774C82.4286 39.6926 82.3924 36.2938 82.3924 36.2938L76.806 37.5051V38.8068C76.824 39.6746 77.2399 40.1446 78.1438 39.9819C78.4331 39.9277 78.867 39.8011 78.867 39.8011V40.8678C78.867 40.8316 78.9574 41.4644 77.5472 41.7356C75.7031 42.0248 74.8715 40.8859 74.8534 38.8791C74.8896 36.7277 76.1009 35.4983 77.5834 35.1548C79.2466 34.7751 80.1868 35.1729 80.7291 35.2452C82.5732 35.5164 83.0975 32.7503 81.4161 32.0994C80.1687 31.5932 78.5596 31.5028 77.0229 31.8101C74.9619 32.226 70.9303 33.9435 70.9122 39.5299C70.8941 43.9774 74.1664 45.4237 77.1133 45.0983Z" fill="#A1ACC6"/>
<path d="M58.9453 49.8531C58.9453 49.8531 60.6628 49.2565 60.8075 49.2203C62.1815 48.7503 62.6877 47.9186 62.6877 46.5085C62.6696 44.9717 62.6696 41.9706 62.6696 41.9706L66.6651 46.5627C67.3159 47.2316 68.1295 47.2859 68.8707 47.0689C69.6301 46.852 70.2809 46.1469 70.299 45.1525V33.7446C70.299 33.7446 69.2685 33.9616 68.4188 34.1966C67.4425 34.4678 66.6832 35.1006 66.6832 36.7638V40.7232C66.6832 40.7232 64.4052 37.8847 62.9408 36.4203C62.1634 35.6429 60.8617 36.113 60.8617 36.113L58.9453 36.6915V49.8531Z" fill="#A1ACC6"/>
<path d="M57.7349 36.9808C57.7349 36.9808 56.5416 37.3243 55.5654 37.6859C54.2998 38.1379 53.5586 38.8791 53.5586 40.7955V51.7334C53.5586 51.7334 54.6614 51.3537 55.71 50.956C57.1744 50.3955 57.7349 49.6362 57.7349 48.0995V36.9808Z" fill="#A1ACC6"/>
<path d="M51.7867 39.5841C50.6839 39.0779 49.7438 39.6384 49.346 40.2531L45.9652 46.0203V41.374L41.9517 43.0192L41.9336 56.1446L44.7539 54.9695C44.7539 54.9695 45.3144 54.8067 45.6398 54.2825C45.9472 53.7943 45.9291 52.9988 45.9291 52.9988V48.8406L49.0748 52.1853C49.7618 52.9084 51.0274 53.27 52.1483 52.3661C53.1607 51.5525 52.998 50.1604 52.4375 49.5277L49.5811 46.6531C49.5811 46.6531 52.094 42.6757 52.5099 42.0248C53.0522 41.1209 52.7811 40.0361 51.7867 39.5841Z" fill="#A1ACC6"/>
<path d="M50.2133 55.0238C50.0686 55.3673 50.4121 55.7108 50.4121 55.7108C51.8585 57.5368 58.3127 59.8509 65.3274 58.1515C76.0302 55.5661 78.2901 47.991 78.5432 46.9243C78.5975 46.7074 78.6336 46.3639 78.4347 46.1469C78.272 45.9662 78.0189 45.9661 77.6935 46.0385C70.2449 47.7921 57.8969 51.5707 50.7557 54.626C50.4483 54.7526 50.3218 54.8068 50.2133 55.0238Z" fill="#A1ACC6"/>
<path d="M43.8661 37.8124C43.848 37.0892 43.2875 36.6915 42.3293 37.1796V39.5118C42.3293 39.5118 42.6367 39.3672 42.8717 39.2587C43.4503 38.9875 43.8842 38.5175 43.8661 37.8124ZM42.3113 35.6971C42.4921 35.6248 42.6186 35.5706 42.7632 35.4983C43.2875 35.2451 43.6672 34.757 43.6672 34.1423C43.6672 33.4372 43.0887 33.2564 42.3113 33.6542V35.6971ZM46.4333 37.4689C46.4695 39.3129 45.1497 40.2892 43.4141 40.9943L39.8887 42.4949V32.931C39.8887 32.931 42.1124 32.0271 42.8356 31.7559C44.8966 30.9966 46.1079 31.9186 46.1079 33.2926C46.1079 34.2146 45.7101 34.992 44.8604 35.679C45.6921 35.8237 46.4152 36.5107 46.4333 37.4689Z" fill="#A1ACC6"/>
<path d="M53.1234 29.4057C53.1234 28.5921 52.5629 28.3932 51.894 28.574C51.3516 28.7367 50.7189 28.9718 50.7189 28.9718V34.9198C50.7189 35.5164 50.6285 36.2576 49.8872 36.4384C49.3268 36.5831 49.0556 36.2034 49.0556 35.6068V30.7435C49.0556 29.93 48.4951 29.6949 47.8262 29.9119C47.0669 30.165 46.633 30.3458 46.633 30.3458V36.2396C46.6149 38.2102 47.9889 39.2045 50.0499 38.5899C51.8759 38.0475 53.1053 37.017 53.1234 34.3955V29.4057Z" fill="#A1ACC6"/>
<path d="M72.7575 31.8644C73.2818 31.7559 73.6072 31.3763 73.6072 30.7254V29.6949L70.7507 30.3277V28.6463C70.7507 28.6463 72.1609 28.3571 72.5406 28.2667C73.0287 28.1582 73.2818 27.887 73.2818 27.3266V26.3503L70.7507 26.8927V25.5548L72.7756 25.139C73.336 25.0305 73.5168 24.6509 73.5168 24.1266V23.1141C72.2513 23.3311 69.8468 23.8192 68.3462 24.1627L68.3281 32.8768C68.3281 32.8768 71.1846 32.2079 72.7575 31.8644Z" fill="#A1ACC6"/>
<path d="M56.197 31.5028C56.197 31.5028 57.6072 30.7616 57.6072 29.6045C57.5891 28.6102 56.6851 28.8271 56.2151 29.0079L56.197 31.5028ZM56.2151 32.8588V35.209C56.2151 35.8418 55.7812 36.2938 55.2388 36.5107C55.2388 36.4927 55.2388 36.5288 55.2388 36.5107C54.7868 36.6734 53.8105 36.9989 53.8105 36.9989V28.0136C53.8105 28.0136 55.8173 27.3085 56.9925 27.0373C58.8004 26.6034 60.1021 27.435 60.084 28.9175C60.0659 30.3277 59.2885 31.1774 58.5834 31.774L60.1382 33.2565C60.6083 33.7266 60.6444 34.5582 60.1202 35.0644C59.7947 35.3718 58.945 35.6791 58.2942 34.9921C58.2761 34.9921 56.2151 32.8588 56.2151 32.8588ZM76.4817 26.6757C76.4817 26.6757 77.8738 26.1514 77.8557 25.0305C77.8377 24.0904 76.9156 24.2531 76.4637 24.3616L76.4817 26.6757ZM74.1315 31.5932V22.9876C74.1315 22.9876 76.6444 22.5356 77.2953 22.4633C79.1032 22.2283 80.3145 23.2407 80.2783 24.6508C80.2603 25.8983 79.4829 26.6576 78.8139 27.1096C78.8139 27.1096 80.0433 28.4836 80.3687 28.8633C80.8026 29.3514 80.7846 30.2011 80.1337 30.617C79.5009 31.0147 78.8501 30.8158 78.4885 30.4L76.4817 28.0136V30.1107C76.4817 30.7435 76.1021 31.2136 75.4512 31.3401L74.1315 31.5932Z" fill="#A1ACC6"/>
<path d="M67.7688 27.9774L64.2073 28.791V29.7853C64.2073 30.2554 64.5327 30.5446 65.0027 30.4543C65.292 30.4 65.527 30.3458 65.527 30.3458V31.3401C65.527 31.7379 64.9485 31.991 64.3338 31.9729C63.466 31.9367 62.996 31.2678 62.9779 30.0023C62.996 28.339 63.7915 27.3627 64.8581 27.0915C65.3824 26.9469 65.8705 27.0192 66.2502 27.0735C67.1722 27.2181 67.6965 26.7842 67.7146 26.0249C67.7327 25.2113 67.0095 24.7051 65.4728 24.7593C62.1101 24.8678 60.3926 27.2904 60.3926 30.165C60.3926 33.1119 62.327 34.4136 64.6773 33.9978C65.9971 33.7266 66.666 33.2927 67.118 32.8949C67.57 32.4972 67.7688 31.9006 67.7688 31.3763V27.9774Z" fill="#A1ACC6"/>
<path d="M53.7204 18.3412C49.7792 20.0768 47.1215 24.2169 46.9769 25.9525C46.9227 26.6395 47.8447 26.748 47.9351 26.0068C48.7667 22.8249 51.2978 19.8237 53.7204 18.3412ZM66.7554 21.3062C68.8707 20.7819 70.0458 20.7096 70.0639 19.7514C70.1001 18.1604 65.5803 16.3164 61.4221 16.6599C65.6526 16.9491 68.1837 18.5763 68.1837 19.6972C68.2018 20.4203 67.569 21.0531 66.7554 21.3062ZM68.0571 56.3797C71.2391 55.1322 74.2944 52.7277 75.9939 49.148C76.482 48.1175 75.0718 47.5751 74.6741 48.8045C73.6797 51.3537 71.6549 54.3367 68.0571 56.3797Z" fill="white"/>
<path d="M84.0917 45.6226H84.5256C84.7606 45.6226 85.068 45.6587 85.068 45.948C85.068 46.2734 84.851 46.3096 84.5618 46.3096H84.1098L84.0917 45.6226ZM83.5674 47.8102H84.0736V46.7073H84.3991L85.0318 47.8102H85.5742L84.8872 46.6712C85.2669 46.635 85.5742 46.4542 85.5742 45.9842C85.5742 45.4237 85.2126 45.2068 84.5618 45.2068H83.5674V47.8102ZM82.1211 46.5085C82.1211 47.9186 83.242 48.8407 84.5075 48.8407C85.7731 48.8407 86.894 47.9367 86.894 46.5085C86.894 45.0983 85.7731 44.1943 84.5075 44.1943C83.242 44.1943 82.1211 45.0983 82.1211 46.5085ZM82.7539 46.5085C82.7539 45.4599 83.5313 44.6825 84.5075 44.6825C85.4657 44.6825 86.2612 45.4418 86.2612 46.5085C86.2612 47.5751 85.4657 48.3345 84.5075 48.3345C83.5313 48.3525 82.7539 47.5751 82.7539 46.5085Z" fill="#A1ACC6"/>
</svg>
