<svg width="121" height="80" viewBox="0 0 121 80" fill="none" xmlns="http://www.w3.org/2000/svg">
<g clip-path="url(#clip0_156_13834)">
<mask id="mask0_156_13834" style="mask-type:luminance" maskUnits="userSpaceOnUse" x="16" y="-5" width="82" height="90">
<path d="M16.3477 84.5304H97.3271V-4.5309H16.3477V84.5304Z" fill="white"/>
</mask>
<g mask="url(#mask0_156_13834)">
<path d="M68.773 52.6099C68.4582 53.2789 68.0699 53.9109 67.6152 54.494C67.1897 55.0313 66.7503 55.4598 66.309 55.7696C65.925 56.0417 65.6044 56.2505 65.3412 56.204C65.171 56.1615 65.1937 55.8616 65.2145 55.6686C65.2739 55.1165 65.452 54.5584 65.74 54.0082C66.0332 53.4462 66.3948 52.9227 66.8166 52.4496C67.2441 51.9795 67.7092 51.5866 68.2 51.2829C68.586 51.0434 68.9679 50.8771 69.341 50.7871C69.2379 51.4183 69.0467 52.0319 68.773 52.6099ZM73.3745 40.1116C72.2721 39.9374 71.4755 40.7766 71.1262 41.6039C71.0025 41.8938 70.9678 42.0433 70.8491 42.4173C70.7304 42.7854 70.6829 43.0635 70.5918 43.4435C70.5208 43.7381 70.4522 44.0334 70.386 44.3292C70.3108 44.6725 70.3019 44.726 70.2049 45.2475C70.1205 45.6853 70.0446 46.1248 69.9773 46.5656C69.9239 46.9129 69.8714 47.2009 69.819 47.5493C68.9781 47.7548 68.1681 48.0709 67.4103 48.4893C66.5188 48.9772 65.7064 49.5975 65.0007 50.3289C64.2485 51.1053 63.6153 51.9886 63.1215 52.9503C62.59 53.9909 62.2571 55.1215 62.1399 56.2842C62.123 56.4413 62.1121 56.5992 62.1072 56.7572C62.0053 56.6681 61.9044 56.5712 61.8242 56.4504C61.6612 56.2009 61.5455 55.9234 61.4828 55.632C61.4086 55.3154 61.3641 54.9176 61.367 54.6059C61.37 54.2625 61.3829 54.0418 61.4076 53.8152C61.4335 53.5719 61.4698 53.33 61.5165 53.0899C61.5412 52.9454 61.559 52.8118 61.5768 52.6811C61.5887 52.595 61.5996 52.5109 61.6144 52.4278C61.7728 51.461 61.842 50.8128 61.746 50.1528C61.6827 49.7154 61.3304 48.8752 60.4448 48.8475C60.3755 48.8455 60.3033 48.8475 60.2271 48.8554C59.6313 48.9118 58.9347 49.2384 58.5082 49.5343C57.688 50.1115 56.9817 50.8355 56.4251 51.6698C56.5102 51.4096 56.623 51.1493 56.7319 50.897C56.8092 50.7247 56.8821 50.5504 56.9506 50.3745C57.0951 50.0073 57.2455 49.6293 57.2791 49.3245C57.3088 49.0504 57.2653 48.8267 57.1515 48.6615C57.062 48.53 56.9399 48.424 56.7972 48.3538C56.6597 48.2924 56.5201 48.2617 56.3836 48.2617C55.9779 48.2419 55.5764 48.351 55.2367 48.5734C55.0186 48.7131 54.8177 48.8778 54.638 49.0642C54.4685 49.2569 54.3175 49.465 54.1867 49.6857C53.9987 49.9885 53.8226 50.4021 53.6504 50.9504C53.4775 51.5064 53.325 52.0685 53.1932 52.6356C53.0507 53.2357 52.9227 53.8393 52.8092 54.4456C52.7088 54.9675 52.6276 55.493 52.5658 56.0209C52.5098 56.5409 52.4682 57.0622 52.4411 57.5845C52.4125 58.0489 52.4218 58.5148 52.4688 58.9777C52.5183 59.4122 52.6232 59.7665 52.7825 60.0307C52.9824 60.3592 53.309 60.5116 53.7325 60.469L53.7523 60.4671C53.8315 60.4562 54.1066 60.4166 54.3629 60.3275C54.6004 60.2454 54.9606 59.9881 55.2654 59.5092C55.4415 59.2361 55.6216 58.5137 55.8363 57.5983C55.8868 57.3885 55.9323 57.1955 55.9709 57.0422C56.815 53.7469 58.0411 53.0552 58.6467 52.9285L58.521 54.0438C58.4914 54.5297 58.4567 54.9601 58.4458 55.4707C58.4597 56.4375 58.5557 56.9897 58.6734 57.4697C58.806 58.0169 59.0544 58.6779 59.3562 59.0243C59.7095 59.43 60.0509 59.6962 60.6674 59.6596C60.6707 59.6598 60.6741 59.6595 60.6773 59.6586H60.6823C60.9504 59.621 61.086 59.5982 61.375 59.4775C61.6669 59.338 61.8034 59.236 62.0578 58.9896C62.2398 58.8145 62.3497 58.6443 62.4259 58.4761C62.5377 58.6799 62.6792 58.862 62.8524 59.0183C63.1235 59.2608 63.5124 59.3746 64.0082 59.3587L64.0428 59.3567C64.0973 59.3538 64.216 59.3409 64.599 59.2895C64.9493 59.243 65.3738 59.1044 65.8656 58.8827C66.3456 58.665 66.8928 58.3247 67.4945 57.8734C67.916 57.5558 68.3514 57.1421 68.7908 56.6414C68.7473 57.343 68.7126 58.012 69.0194 58.9303C69.1451 59.3083 69.3093 59.618 69.5646 59.9673C69.8496 60.3513 70.2841 60.5472 70.861 60.5522H70.8639L70.9312 60.5472C71.2053 60.5017 71.432 60.4305 71.6239 60.3295C71.8189 60.2266 72.0039 60.0762 72.1722 59.8832C72.375 59.6507 72.4957 59.3518 72.5353 58.9906C72.5462 58.8818 72.5413 58.7581 72.5165 58.6087C72.4928 58.4642 72.4195 58.3523 72.3433 58.2356C72.3091 58.1867 72.2768 58.1365 72.2464 58.0852C72.0554 57.7517 71.9347 57.4756 71.8802 57.2421C71.7348 56.6315 71.6982 56.1189 71.7259 55.1323C71.7387 54.6613 71.7753 54.1447 71.8129 53.6529C71.8505 53.171 71.905 52.6782 71.9614 52.1557L72.0732 51.1374C72.0851 51.0157 72.0969 50.9108 72.1098 50.8187L72.1791 50.8198C72.4324 50.8227 72.6976 50.7357 72.9618 50.5546C73.2726 50.3378 73.4616 49.944 73.5229 49.3839C73.5744 48.9059 73.4566 48.517 73.1716 48.2281C72.9976 48.0563 72.8024 47.9073 72.5907 47.7847C72.6214 47.6037 72.6521 47.4334 72.6749 47.2771C72.7055 47.0762 72.7382 46.9011 72.7718 46.7566C72.7936 46.6556 72.8134 46.5547 72.8342 46.4528C72.851 46.3657 72.8658 46.2796 72.8846 46.1965C72.8896 46.1777 73.2359 44.5617 73.9286 42.1541C74.0405 41.7632 74.0929 41.4634 74.1196 41.211C74.1592 40.8419 74.0701 40.2214 73.3745 40.1116ZM83.3108 48.5942C83.3662 48.8188 83.3771 49.0949 83.3444 49.4363C83.3069 49.7938 83.2464 50.1485 83.1633 50.4982C83.1593 50.513 82.6646 52.4526 82.4686 53.3818C82.3133 54.121 82.2173 54.6979 82.1055 55.3668C82.1035 55.3807 82.1015 55.3955 82.0975 55.4104C81.9907 56.0635 81.8244 57.5142 81.7265 58.5384C81.5365 60.5166 81.4919 60.9876 80.9486 62.5115C80.3945 64.0701 79.1239 65.1032 78.5311 65.4347C77.4574 66.0344 76.2492 66.3461 74.936 66.3728H74.9261C74.8537 66.3649 74.7811 66.3587 74.7084 66.354C74.5659 66.3441 74.4036 66.3332 74.2483 66.3055C72.8688 66.0581 72.0722 65.1824 72.2206 64.0483C72.2998 63.4556 72.7619 63.0944 73.3587 63.1834C73.8674 63.2725 74.3829 63.3172 74.8994 63.317C76.3313 63.3012 77.314 62.8272 77.9018 61.8416C78.5153 60.8154 78.5885 60.1405 78.6934 59.2064C78.7053 59.0856 78.7191 58.9609 78.734 58.8303C78.7914 58.3484 78.8349 57.9021 78.8824 57.4331C78.6779 57.7087 78.4515 57.9675 78.2056 58.2069C77.7632 58.6274 77.3575 58.9491 76.9963 59.1638C76.5639 59.4172 76.1413 59.5656 75.7405 59.6052L75.7277 59.6061L75.7138 59.6052C75.0548 59.5913 74.5471 59.337 74.2018 58.8501C73.898 58.4286 73.6644 57.8962 73.5101 57.2688C73.3562 56.6303 73.2775 55.9761 73.2755 55.3193C73.2686 54.6553 73.2923 54.0329 73.3468 53.4689C73.515 51.7183 73.8762 50.322 74.4195 49.3265C75.0211 48.2172 75.7871 47.6561 76.6935 47.6769C76.743 47.6769 76.8123 47.6848 76.9409 47.6987C77.1072 47.7195 77.2655 47.7823 77.4008 47.8811C77.5362 47.98 77.6442 48.1116 77.7147 48.2637C77.8078 48.4527 77.8394 48.6873 77.8137 48.9772C77.784 49.2721 77.6732 49.5956 77.4733 49.9657C77.2804 50.3379 77.1121 50.7224 76.9696 51.1166C76.8199 51.5394 76.6882 51.9682 76.5748 52.4021C76.4388 52.9055 76.3464 53.4196 76.2987 53.9389C76.2812 54.1309 76.268 54.3232 76.2591 54.5158C76.2422 54.7749 76.2445 55.0349 76.266 55.2936C76.2781 55.5035 76.3242 55.71 76.4026 55.9052C76.4421 56.0021 76.5688 56.0684 76.6084 56.0763C76.6686 56.0913 76.7304 56.0994 76.7925 56.1001C76.9191 56.1001 77.0497 56.0585 77.1794 55.9774C77.2783 55.9141 77.5198 55.7072 77.8038 55.3253C78.0027 55.0561 78.3847 54.493 78.6994 53.7459C78.8478 53.3976 79.0358 52.8276 79.2347 52.223C79.4594 51.5431 79.8532 50.2082 80.0798 49.6491C80.2263 49.2918 80.3866 48.9782 80.5716 48.6892C80.7399 48.4299 81.013 48.1608 81.2267 48.0213C81.5454 47.8105 81.8996 47.7006 82.2955 47.7204C82.3845 47.7254 82.4805 47.7472 82.6062 47.7788C82.7752 47.8232 82.9274 47.9165 83.0436 48.047C83.1623 48.1727 83.2494 48.3518 83.3108 48.5942ZM84.0034 48.3073C83.9486 48.1026 83.9521 47.8867 84.0133 47.6838C84.048 47.5651 84.1588 47.289 84.2241 47.0287C84.3013 46.6854 84.333 46.3429 84.2489 46.0233C84.1756 45.7422 84.1578 45.3346 84.236 45.1011C84.3557 44.7458 84.6843 44.5568 84.9168 44.5172C85.2701 44.4578 85.6224 44.4806 85.9202 44.6271C86.2468 44.7874 86.5239 45.1752 86.5932 45.4563C86.7416 46.049 86.6743 46.523 86.605 46.9011C86.5212 47.3265 86.3617 47.7334 86.134 48.1024C85.9905 48.3428 85.75 48.5507 85.5442 48.6991C85.2909 48.8802 84.8753 48.9485 84.4389 48.7901C84.239 48.7169 84.0401 48.4527 84.0034 48.3073ZM91.2718 56.6839C91.1669 57.4419 90.8582 58.0723 90.3565 58.5592C89.8876 59.0138 89.3392 59.3784 88.7385 59.6348C88.1563 59.8833 87.5426 60.0505 86.9148 60.1316C86.3606 60.1989 85.8757 60.2138 85.4759 60.1742C85.4383 60.1712 85.4017 60.1662 85.3681 60.1623C84.4023 60.0386 83.7452 59.7318 83.3602 59.2143C82.9783 58.6977 82.8239 58.1634 82.8991 57.6231C82.9882 56.9818 83.3246 56.6701 83.5898 56.5236C83.9124 56.3425 84.1935 56.2653 84.4448 56.2871C84.4547 56.2881 84.4646 56.2891 84.4745 56.2921C84.7268 56.3208 85.0188 56.4504 85.3651 56.6859C85.5967 56.8472 85.9074 56.9541 86.2884 57.0046C86.8029 57.0709 87.1918 57.0431 87.4432 56.9185C87.6243 56.8324 87.7302 56.7364 87.7411 56.6483C87.747 56.6087 87.7579 56.5276 87.6193 56.3959C87.4135 56.2091 87.1819 56.0528 86.9316 55.9318C86.6278 55.7785 86.2943 55.6191 85.9104 55.445C85.5282 55.2762 85.1639 55.0696 84.8228 54.8285C84.4685 54.5791 84.1816 54.2842 83.9688 53.9547C83.7264 53.5737 83.6403 53.1235 83.7115 52.6158C83.7917 52.035 84.049 51.4363 84.4705 50.8376C85.3173 49.6508 86.5079 48.7523 87.8816 48.2637C88.602 48.0104 89.3174 47.9302 90.0062 48.0331C90.6692 48.1311 91.1808 48.4329 91.5242 48.9257C91.8666 49.4245 91.9794 50.1112 91.8616 50.9652C91.8068 51.3699 91.6539 51.7552 91.4163 52.0874C91.2164 52.3655 90.8325 52.6831 90.1299 52.5713C89.6519 52.5 89.4599 52.2418 89.3837 52.036C89.3165 51.8677 89.262 51.6836 89.2224 51.4936C89.1947 51.368 89.1878 51.2047 89.1057 51.1196C89.0291 51.0642 88.9342 51.0401 88.8405 51.0523C88.8405 51.0523 88.7316 51.0464 88.4951 51.1146C88.2797 51.1815 88.0726 51.2725 87.8776 51.3858C87.6698 51.5056 87.4811 51.6557 87.3175 51.8311C87.199 51.95 87.1178 52.1011 87.084 52.2655C87.0721 52.3378 87.0652 52.4615 87.2186 52.6089C87.4086 52.789 87.654 52.9701 87.9489 53.1482C88.2457 53.3293 88.5871 53.5114 88.9919 53.7043C89.3957 53.8932 89.7784 54.124 90.1338 54.3931C90.4871 54.6612 90.778 54.974 90.9987 55.3174C91.2511 55.7122 91.3451 56.1723 91.2718 56.6839ZM49.6525 53.5114C49.324 54.02 48.9954 54.4169 48.6461 54.7216C48.3256 55.0063 47.9721 55.2514 47.5932 55.4519C47.4643 55.5248 47.3271 55.5819 47.1845 55.6221C47.2399 55.3173 47.3429 54.9087 47.4854 54.5693C47.6951 54.0656 47.9653 53.5688 48.2869 53.0928C48.6669 52.5317 48.9747 52.1636 49.2884 51.9004C49.5061 51.7163 49.697 51.6065 49.8405 51.5827C50.1602 51.5273 50.177 51.941 50.175 52.0231C50.173 52.5208 49.892 53.1353 49.6525 53.5114ZM51.7702 49.3314C51.515 49.1562 51.218 49.0517 50.9093 49.0287C50.6421 49.0108 50.3155 49.0246 50.0731 49.0642L50.0553 49.0662C49.5357 49.1543 48.9915 49.3374 48.6065 49.5511C48.1933 49.7787 47.8089 50.0551 47.4616 50.3745C47.1085 50.6854 46.7854 51.029 46.4968 51.4006C46.2989 51.6629 45.9238 52.1923 45.618 52.7821C45.2064 53.5757 44.8482 54.499 44.5236 55.6004C44.3207 55.6004 43.8774 55.5103 43.6745 55.4707C43.6007 55.4537 43.5261 55.4405 43.4509 55.4311L43.3648 55.4292C44.3049 51.5223 44.959 49.3097 45.4379 47.7768L46.2177 45.5325C46.4216 45.1089 46.5453 44.5291 46.5255 44.2609C46.472 43.4772 45.9317 42.6855 44.9699 42.8983C43.9506 43.1239 43.349 44.4231 42.5375 47.286C41.9121 49.4475 41.3694 51.6321 40.9107 53.835C40.6702 55.0215 40.4297 56.208 40.1922 57.3945L40.0854 57.9288C40.0042 58.2989 39.9617 58.4048 39.831 58.4345C39.7657 58.4494 39.6836 58.4038 39.646 58.2524C39.5609 57.9209 39.4896 57.2341 39.4392 56.3534C39.3748 54.3248 39.2056 52.223 39.2789 49.563C39.3214 48.043 39.3194 47.7986 39.2195 47.4097C39.0275 46.6566 38.0943 46.2093 37.0781 46.4666C36.0608 46.7249 35.7619 47.8669 35.1751 49.4244C34.7793 50.4793 34.1786 52.3546 33.5819 54.1744C33.0228 56.0585 32.3647 58.3662 32.3647 58.3662L32.242 58.8452L32.1203 59.3241C31.9748 59.714 31.9244 59.7912 31.8274 59.8189C31.7284 59.8456 31.673 59.7655 31.6433 59.6467C31.582 59.4102 31.5919 57.8982 31.6107 57.1006C31.6483 55.4757 31.8066 53.7113 31.958 52.1329C32.0451 50.9939 32.337 49.0019 32.4251 47.8629C32.4558 47.5195 32.4864 47.1583 32.4944 46.9139C32.5142 46.1886 32.4647 45.8382 32.148 45.479C31.6512 45.0426 31.0466 45.0763 30.349 45.2346C29.2258 45.4899 28.3847 46.1856 28.4846 46.5676C28.5005 46.625 28.5588 46.6804 28.6162 46.7645C28.7864 47.0109 28.8755 47.1494 28.9438 47.3988C29.0249 47.6927 29.0635 48.0994 29.0625 48.7555L28.9873 50.5199C28.8458 52.2952 28.6321 55.4935 28.5747 57.6814C28.5252 59.5705 28.5885 60.8817 28.737 62.75C28.8122 63.6891 29.0111 64.456 29.1179 64.8687C29.3079 65.6069 29.683 66.4273 30.3322 66.5915C30.8141 66.7132 31.1862 66.6845 31.8205 66.5183C32.4043 66.3669 33.286 65.8098 33.481 64.932L34.2261 61.9989C34.4478 60.9549 34.9495 59.1054 35.377 57.5003C35.6244 56.5454 35.944 55.4767 36.1162 54.9225C36.2191 54.6425 36.2696 54.5663 36.3349 54.5494C36.4012 54.5326 36.4408 54.5544 36.4556 54.6147C36.4692 54.6731 36.4759 54.7329 36.4754 54.7929L36.4823 54.9908L36.4962 55.5925C36.5457 57.5558 36.9217 60.9341 37.274 62.3166C37.5046 63.2201 37.5709 64.3363 38.9632 64.5411C39.6064 64.6381 40.1418 64.456 40.1418 64.456C41.1689 64.1433 41.4351 63.5516 41.6657 62.5412C41.8161 61.9019 42.2802 60.1405 42.5345 59.0064C42.6117 58.6621 42.6869 58.3306 42.7621 58.006C42.9502 58.0664 43.8051 58.1999 44.1624 58.2306C44.1641 58.3088 44.171 58.3869 44.1832 58.4642L44.2089 58.6453C44.2218 58.7323 44.2316 58.8115 44.2505 58.8986L44.3247 59.24C44.4731 59.8337 44.7047 60.3394 45.0104 60.7442C45.3073 61.139 45.6141 61.4071 46.0376 61.6397C46.4404 61.8594 47.1301 61.9554 47.7842 61.8881C47.8913 61.886 47.998 61.8737 48.1028 61.8514L48.2364 61.8258L48.2374 61.8198C48.3344 61.798 48.4532 61.7693 48.5442 61.7426C49.5714 61.4477 50.8934 60.5354 51.3694 59.1984C51.5555 58.672 51.4516 58.3424 51.3318 58.1584C51.2719 58.0624 51.1889 57.983 51.0904 57.9275C50.9918 57.872 50.8809 57.8422 50.7678 57.8407C50.6948 57.8425 50.622 57.8495 50.5501 57.8615C50.1028 57.9328 49.7643 58.1861 49.4665 58.4098C49.1973 58.6116 48.943 58.8026 48.6263 58.864C48.2651 58.9332 48.0187 58.9243 47.8099 58.8214C47.5774 58.7066 47.4982 58.6215 47.4042 58.384C47.3448 58.2183 47.3066 58.0458 47.2904 57.8705C47.9282 57.6982 48.5356 57.4289 49.0914 57.0719C49.7168 56.6644 50.2823 56.1718 50.7717 55.6083C51.2623 55.0426 51.6741 54.4132 51.9958 53.737C52.3174 53.0318 52.5139 52.2761 52.5767 51.5035C52.6183 50.9415 52.5579 50.4764 52.4005 50.1201C52.2383 49.7698 52.0265 49.5036 51.7702 49.3314Z" fill="#A1ACC6"/>
</g>
<mask id="mask1_156_13834" style="mask-type:luminance" maskUnits="userSpaceOnUse" x="16" y="-5" width="82" height="90">
<path d="M16.3477 84.5304H97.3271V-4.5309H16.3477V84.5304Z" fill="white"/>
</mask>
<g mask="url(#mask1_156_13834)">
<path d="M45.4968 34.4848C45.761 34.6224 46.0589 34.6649 45.9778 34.7164C45.8303 34.8074 45.3157 34.7154 45.0723 34.563C44.9664 34.4967 44.9268 34.6501 45.0228 34.7738C45.0703 34.8443 45.1268 34.9071 45.1911 34.9628C46.1292 35.7821 47.3374 36.0276 48.4269 35.8396C48.995 36.7238 49.6631 37.5397 50.418 38.2709C52.9693 40.7549 56.3916 42.1416 59.9525 42.1342C61.7862 42.1408 63.6023 41.7758 65.2912 41.0613C66.98 40.3468 68.5066 39.2976 69.7789 37.977C70.4261 37.31 70.9961 36.5896 71.4879 35.8257C72.5932 36.0325 73.8282 35.793 74.7822 34.9588C74.8465 34.9033 74.9031 34.8394 74.9504 34.7688C75.0464 34.6451 75.0068 34.4918 74.8999 34.5591C74.6555 34.7115 74.1409 34.8035 73.9955 34.7124C73.9153 34.661 74.2122 34.6184 74.4764 34.4808C75.9004 33.7634 75.6431 31.5013 75.2215 31.9733C74.9167 32.3553 74.5179 32.758 73.755 32.7333C74.4467 31.9288 74.515 30.7967 74.2755 30.9976C74.0509 31.2292 73.751 31.7131 73.1454 32.1208C73.4918 30.8719 73.663 29.5657 73.6422 28.2337C73.6199 26.4348 73.2409 24.6582 72.5271 23.0068C71.8133 21.3553 70.779 19.862 69.484 18.6131C68.6107 17.7652 67.6291 17.0365 66.5648 16.446C65.9898 15.4 65.2665 14.641 63.9681 14.3461C63.3596 14.262 63.0528 14.2709 62.5531 14.4886C62.514 14.3274 62.4351 14.1788 62.3235 14.0562C61.7762 13.5149 60.7847 13.4505 60.2988 13.3674C59.7268 13.312 58.7274 13.2961 57.7754 13.5376C55.6973 14.064 54.2812 15.0715 53.2551 16.4885C52.0999 17.1399 51.0447 17.9544 50.1221 18.907C46.6289 22.5081 45.5166 27.5519 46.7536 32.0743C46.1965 31.6784 45.9125 31.2232 45.6987 31.0015C45.4592 30.8006 45.5275 31.9318 46.2192 32.7373C45.4563 32.762 45.0565 32.3602 44.7517 31.9773C44.3301 31.5043 44.0738 33.7674 45.4968 34.4848Z" fill="white"/>
</g>
<path d="M91.7034 59.9212H91.7806C91.8697 59.9212 91.9419 59.8915 91.9419 59.8192C91.9419 59.7549 91.8954 59.7123 91.7934 59.7123C91.7499 59.7123 91.7192 59.7163 91.7034 59.7213V59.9212ZM91.6994 60.314H91.5372V59.6144C91.6005 59.6065 91.6905 59.5926 91.8054 59.5926C91.9379 59.5926 91.9963 59.6144 92.0439 59.649C92.0864 59.6787 92.116 59.7291 92.116 59.7975C92.116 59.8826 92.0527 59.938 91.9716 59.9637V59.9726C92.0399 59.9934 92.0735 60.0488 92.0953 60.1429C92.116 60.2497 92.1328 60.2873 92.1468 60.314H91.9756C91.9547 60.2873 91.9419 60.2279 91.9201 60.1429C91.9073 60.0706 91.8647 60.036 91.7757 60.036H91.6994V60.314ZM91.8054 59.3927C91.5035 59.3927 91.268 59.6441 91.268 59.9508C91.268 60.2616 91.5035 60.509 91.8132 60.509C92.116 60.5139 92.3467 60.2616 92.3467 59.9548C92.3467 59.6441 92.116 59.3927 91.8103 59.3927H91.8054ZM91.8132 59.2522C92.2101 59.2522 92.5257 59.559 92.5257 59.9508C92.5257 60.3437 92.21 60.6544 91.8102 60.6544C91.4085 60.6544 91.0898 60.3437 91.0898 59.9508C91.0898 59.559 91.4085 59.2522 91.8103 59.2522H91.8132Z" fill="#A1ACC6"/>
<path d="M59.9483 15.8309C56.5075 15.8309 53.2924 17.1915 50.8967 19.6615C46.0557 24.6519 46.1774 32.6506 51.1688 37.4935C53.5359 39.7883 56.654 41.052 59.9502 41.052C63.391 41.052 66.6051 39.6923 68.9999 37.2234C71.3452 34.8058 72.6078 31.6184 72.5564 28.25C72.5059 24.8815 71.1462 21.7356 68.7277 19.3913C66.3617 17.0955 63.2436 15.8309 59.9483 15.8309ZM59.9503 42.1346C56.371 42.1346 52.9847 40.7621 50.4148 38.2703C44.9949 33.0117 44.8623 24.3253 50.1199 18.9074C52.7215 16.2257 56.2116 14.7483 59.9483 14.7483C63.5266 14.7483 66.912 16.1208 69.4818 18.6135C72.1072 21.1597 73.5836 24.5756 73.639 28.2331C73.6954 31.8915 72.3239 35.3521 69.7767 37.9774C67.1762 40.6581 63.6869 42.1346 59.9503 42.1346Z" fill="#A1ACC6"/>
<path fill-rule="evenodd" clip-rule="evenodd" d="M74.8977 34.5594C74.6553 34.7118 74.1408 34.8038 73.9943 34.7128C73.9132 34.6614 74.21 34.6188 74.4752 34.4813C75.8982 33.7628 75.6419 31.5016 75.2204 31.9737C74.9156 32.3556 74.5158 32.7584 73.7528 32.7337C74.4446 31.9281 74.5128 30.7971 74.2734 30.998C73.7766 31.5135 72.9087 33.277 69.1137 32.6664C69.2186 32.5328 69.3315 32.4032 69.4551 32.2815C69.2612 32.1657 69.0662 31.9816 68.8673 31.6877C68.2874 30.7724 67.7927 30.617 67.4958 30.5349C67.9807 30.0688 68.3062 29.577 68.6002 29.0208C69.5828 26.9209 69.469 24.637 69.3621 24.0353C69.2483 23.1052 69.0108 21.6535 68.2805 20.2967C67.4532 18.754 66.6448 15.9367 63.8621 14.9907C63.296 14.962 62.9982 14.9917 62.5014 15.2094C62.453 15.1114 61.9829 14.7245 61.9324 14.6364C61.6375 14.3692 60.7707 14.1327 60.3828 14.0041C59.5842 13.9903 58.8806 13.7913 57.9989 14.0298C54.2672 15.0382 52.6028 16.9026 51.4994 20.3304C51.4083 20.6144 51.2797 21.5407 51.2648 21.8227C51.2985 21.7267 50.0517 25.5098 50.8799 27.5839C51.0323 27.7581 51.0462 28.0906 51.2016 28.2628C51.5934 29.1802 52.2218 29.7442 52.5988 30.5853C51.3747 30.6358 50.9453 32.5051 50.9096 32.6624C47.0691 33.2977 46.1963 31.5195 45.6966 31.0019C45.4581 30.801 45.5254 31.9322 46.2171 32.7376C45.4542 32.7624 45.0543 32.3596 44.7506 31.9776C44.328 31.5046 44.0717 33.7677 45.4947 34.4852C45.7599 34.6217 46.0568 34.6653 45.9757 34.7158C45.8292 34.8078 45.3146 34.7158 45.0722 34.5634C44.9584 34.4921 44.9187 34.6723 45.0425 34.7999C48.7068 37.2332 50.3941 34.5565 50.9522 34.4793C52.9729 35.0602 56.5551 33.6332 54.9659 32.4022C54.5334 31.7263 53.8813 30.5665 53.8566 29.2296C53.7675 28.4785 53.8546 28.246 53.0293 28.3153C53.3222 27.4029 53.623 26.6033 53.3192 25.2169C53.2647 25.2357 53.2084 25.2861 53.1668 25.3258C54.7947 23.7365 58.0058 23.5475 59.7623 21.8108C59.9899 21.415 60.8894 21.2834 61.1052 20.8717C60.9052 22.2997 60.269 23.5564 58.9459 24.8181C58.9459 24.8181 59.8761 24.8211 60.6153 24.2937C61.8761 23.3941 62.4668 22.3006 63.3366 21.3566C63.3416 21.3101 63.581 21.0963 63.5712 21.038C63.7146 21.1102 63.9917 21.3397 64.0837 21.4832C65.1119 23.0725 64.2767 22.6836 65.4137 24.1284C65.48 24.2045 65.6027 24.5341 65.667 24.6142C65.9145 25.0794 66.0322 25.3673 66.3479 25.7968C66.7566 26.0778 66.6754 26.5538 66.9149 27.3643C66.8437 28.3707 66.6378 29.1554 65.9669 29.6027C65.9304 30.4794 65.1901 32.514 65.1901 32.514C65.2564 32.7149 64.4133 34.0607 66.4043 34.4664C66.9268 34.5723 67.7165 34.4674 68.3874 34.3486C68.4419 33.9162 68.5873 33.5055 68.804 33.1255C68.7882 33.2482 68.7763 33.372 68.7763 33.4987C68.7763 33.8449 68.8406 34.1785 68.9574 34.4911C68.9782 34.4852 68.9979 34.4813 69.0177 34.4753C69.5759 34.5525 71.2641 37.2293 74.9274 34.7959C75.0512 34.6683 75.0116 34.4881 74.8977 34.5594Z" fill="#A1ACC6"/>
<path d="M64.4597 37.4441C64.3073 37.0918 64.2053 36.8543 64.2112 36.5436C64.1915 36.4931 64.136 36.4486 64.0638 36.4139L64.0697 36.7762L63.4295 36.514C63.3681 36.6 63.3345 36.7247 63.3553 36.9008C63.5641 38.1328 64.142 38.7681 64.2904 38.9235C64.4448 39.0848 64.5655 39.0997 64.7001 39.1095C64.8674 39.1234 64.9821 39.072 65.085 38.9591C65.3156 38.6187 64.7397 38.0883 64.4597 37.4441ZM57.8443 37.8511L57.498 37.4503C57.2584 38.9307 56.7113 39.3225 56.8834 39.6986C56.9379 39.8163 57.0635 39.9153 57.0635 39.9153C57.1496 39.9687 57.2298 39.9935 57.3059 39.9964C57.4267 39.9954 57.5524 39.9677 57.6473 39.8568C58.0541 39.3581 58.3371 38.5249 58.4261 37.9867C58.4443 37.8734 58.4466 37.7581 58.4331 37.6442L57.8443 37.8511ZM56.6542 37.1446L56.0872 37.0101L56.018 36.6637C55.973 36.7144 55.9348 36.7706 55.9042 36.831C55.8458 37.0566 55.7973 37.2644 55.5746 37.7562C55.3282 38.3034 54.6048 38.8784 55.3421 39.0961C55.5786 39.1545 55.7221 39.0605 55.8181 38.9743C56.2614 38.5746 56.6661 37.6642 56.8452 37.115C56.8769 37.014 56.8986 36.9111 56.9135 36.8043L56.6542 37.1446ZM62.4254 37.8719L61.7545 37.5167C61.9564 38.6923 62.3819 39.5225 62.6194 39.8233C62.7134 39.9322 62.84 40.0014 62.9835 40.0262C63.0785 40.0301 63.1458 40.0183 63.2279 39.9757C63.2279 39.9757 63.4071 39.8937 63.4506 39.7718C63.5872 39.3909 62.9508 38.7595 62.7876 37.3276L62.4254 37.8719ZM59.7475 40.1656C60.452 40.3426 61.0804 39.8004 61.0932 39.6153C61.1022 39.4699 60.737 38.8841 60.6014 38.7554C60.5193 38.6752 60.2254 38.4714 59.8365 38.605C59.6217 38.6772 59.2032 39.1047 59.2111 39.5026C59.216 39.8281 59.7475 40.1655 59.7475 40.1655" fill="#A1ACC6"/>
<path fill-rule="evenodd" clip-rule="evenodd" d="M54.932 22.5086C56.9299 21.9099 57.7632 20.3295 59.6403 19.0243C59.3286 19.0659 58.9447 19.241 58.6825 19.3904C57.0982 20.2989 56.5984 20.6927 55.8602 21.2014C55.1171 21.714 54.1591 22.3245 53.4654 22.566C53.4654 22.566 53.9612 22.8372 54.932 22.5086M63.9648 14.3466C63.3563 14.2625 63.0485 14.2714 62.5507 14.4891C62.4943 14.2852 62.4083 14.1477 62.3202 14.0567C61.772 13.5144 60.7814 13.4501 60.2955 13.3679C59.7225 13.3125 58.724 13.2967 57.7711 13.5382C54.1493 14.4565 52.5333 16.8354 51.5012 20.2989C51.2924 20.9995 51.0896 22.0069 50.9678 22.9569C50.5195 23.987 49.6685 26.6539 51.4151 29.2387C51.7288 29.7037 52.7649 30.9951 53.034 31.7027C53.4081 33.4097 51.2578 32.3895 49.7477 33.9213C49.7477 33.9213 48.5048 35.5343 46.0952 35.2057C45.6845 35.1365 45.3145 35.0147 45.0195 34.7733C45.0561 34.8307 45.1007 34.8812 45.1888 34.9633C46.7176 36.3002 48.9679 36.1092 50.2484 35.0029C50.5295 34.7614 50.5374 34.6081 51.4962 34.607C53.1657 34.6051 54.6669 34.4844 55.5386 33.2108C54.8608 32.3261 54.555 32.0154 54.2918 31.4691C54.2918 31.193 54.2067 30.8348 53.99 30.3727C53.8504 28.6489 53.6703 28.4233 53.6991 27.5594C53.6308 26.455 53.6812 25.1824 54.8252 24.7104C55.976 24.2364 56.2828 24.3838 58.2422 23.3665C61.86 21.4903 61.9481 19.1895 61.575 18.9016C61.575 18.9016 60.7329 20.3771 59.6612 21.3073C58.059 22.6976 56.0215 23.2171 53.8683 24.0306C51.7051 24.848 51.4448 25.6752 51.4448 25.6752C50.8995 22.5729 52.7422 20.7758 52.7422 20.7758C52.5571 20.7125 51.6289 21.8238 51.2163 22.462C51.6774 20.4424 52.1869 19.2163 52.6996 18.2079C52.8342 17.9605 53.1399 17.4935 53.4141 17.1441C53.99 16.4959 54.2404 16.2268 55.1032 15.6499C55.6445 15.2876 56.2423 14.9483 56.9805 14.7533C58.5914 14.3268 61.005 14.3615 61.9639 15.1699C62.2242 15.3916 62.3429 15.7439 62.3429 15.7439C62.3429 15.7439 62.806 15.4747 63.1346 15.3758C63.6017 15.2353 64.1508 15.3738 64.4972 15.5143C66.3982 16.3574 66.8415 18.4988 68.2784 20.2969C66.8603 17.3965 66.5684 14.9374 63.9648 14.3466ZM66.6178 21.0688C67.4372 22.1434 69.4411 24.0206 69.2432 26.9785C69.2432 26.9785 69.4985 26.2294 69.4669 25.2517C69.3382 20.8896 66.884 20.7214 65.0217 17.1273C65.0217 17.1273 64.7416 18.6037 66.6178 21.0688ZM74.9471 34.7694C74.9095 34.8267 74.8659 34.8772 74.7779 34.9593C73.25 36.2973 70.9987 36.1052 69.7182 34.9979C69.5044 34.8149 69.448 34.6822 69.0106 34.6288C68.8582 34.2765 68.7741 33.8956 68.7741 33.4988C68.7741 33.3711 68.785 33.2464 68.8028 33.1218C68.6277 33.4285 68.5 33.755 68.4288 34.0955C68.3764 34.0984 68.3239 34.1796 68.2685 34.1954C66.4417 34.9029 65.3364 34.428 64.614 32.9941C64.6783 32.9011 65.0613 32.4043 65.1107 32.3103C65.2572 31.9897 65.7045 31.0268 65.8252 29.7216C66.032 27.9839 66.0242 27.5841 66.0874 27.1586C66.1835 26.3293 66.1805 26.1166 66.0033 25.5248C65.848 25.0369 65.7193 24.8687 65.4284 24.3156C64.705 23.2676 64.4299 22.8203 64.0875 22.1533C63.8421 21.6754 63.7679 21.4438 63.6927 21.1707C63.6927 21.1707 63.0307 22.7827 61.6661 23.795C60.4993 24.6609 59.6028 24.94 58.9438 24.8183C59.9521 24.2483 60.9922 23.6238 61.7581 22.37C62.8318 20.6146 63.0336 18.8452 63.0336 18.8452C63.0336 18.8452 63.1039 18.8402 63.3216 18.961C63.4849 19.053 63.7857 19.3617 63.9362 19.912C63.9926 20.1207 64.2211 20.8798 64.4982 21.5071C64.9989 22.6373 65.4739 23.1775 66.4883 24.1137C67.4758 25.026 68.4387 26.3184 68.0755 28.2194C67.8647 29.3257 67.369 30.0135 66.8217 30.9456C66.6426 31.3029 66.5832 31.5701 66.6287 31.957C66.7802 32.9742 67.7886 32.4221 69.0572 32.7338C68.9693 32.8505 68.8887 32.9724 68.8157 33.0989C69.2857 33.2424 69.7785 33.472 70.2179 33.9174C70.2179 33.9174 71.4618 35.5303 73.8714 35.2028C74.2821 35.1325 74.6522 35.0099 74.9471 34.7694Z" fill="#A1ACC6"/>
<path fill-rule="evenodd" clip-rule="evenodd" d="M66.5509 25.7911C66.3272 25.7397 66.2352 25.8545 66.1312 26.0702C66.1094 25.9069 66.0689 25.7407 66.0036 25.5249C65.8493 25.0371 65.7196 24.8689 65.4296 24.3157C64.7053 23.2677 64.4312 22.8205 64.0878 22.1535C63.8424 21.6755 63.7682 21.444 63.693 21.1708C63.693 21.1708 63.032 22.7829 61.6663 23.7952C60.4996 24.6611 59.6041 24.9401 58.944 24.8184C60.1988 23.621 60.8351 22.4286 61.0686 21.0907C60.552 21.8151 59.6743 22.6246 58.2424 23.3667C56.2831 24.384 55.9763 24.2365 54.8264 24.7106C54.011 25.046 53.7518 25.7891 53.6944 26.5868C53.6835 26.4611 53.6707 26.3463 53.6577 26.2523C53.6359 25.7971 53.5113 25.805 53.5113 25.805C53.5113 25.805 52.7869 25.8149 52.7394 26.8866C52.7256 27.5476 52.8423 27.7347 52.9393 27.9603C53.0482 28.2136 53.1729 28.5332 53.3341 28.6124C53.6103 28.744 53.732 28.6539 53.7765 28.5985C53.7814 28.6293 53.7874 28.6599 53.7923 28.6906C53.7973 28.7213 53.8032 28.7529 53.8072 28.7876C53.8141 28.8331 53.821 28.8815 53.8299 28.933C54.0566 30.3807 54.2702 31.2526 54.6404 31.8047C54.6703 31.8789 54.7017 31.9525 54.7344 32.0254C54.8086 32.1525 54.8852 32.2781 54.964 32.4024C55.2054 32.5895 55.3272 32.7815 55.3529 32.9695C55.3677 32.9883 55.3835 33.0081 55.3984 33.0278C55.4439 33.0862 55.4904 33.1456 55.5399 33.2099C55.5353 33.2156 55.531 33.2216 55.5271 33.2277C55.5636 33.2614 55.6003 33.296 55.6389 33.3267C55.7863 33.491 55.9397 33.6276 56.0802 33.7423L55.9941 36.5497L56.0871 37.0099L56.6532 37.1445L56.9253 36.7882L57.8436 37.8511L58.6402 37.572C58.6402 37.572 58.8332 37.6502 58.9954 37.7936C59.1578 37.9361 60.1612 38.3815 60.1612 38.3815L60.6253 38.2003L61.2141 37.759L61.4526 37.3562L62.4243 37.8718L63.3486 36.4805L64.069 36.7764L64.0195 33.5979C64.1082 33.5033 64.195 33.407 64.2798 33.3089C64.5559 32.9903 64.8775 32.6528 65.1199 32.2926C65.1278 32.2728 65.1387 32.251 65.1486 32.2273C65.1517 32.2219 65.1543 32.2163 65.1565 32.2105C65.1655 32.1907 65.1754 32.1699 65.1852 32.1472C65.1902 32.1353 65.1961 32.1224 65.2011 32.1095C65.209 32.0908 65.2179 32.0729 65.2258 32.0531C65.2337 32.0353 65.2417 32.0155 65.2495 31.9967C65.2575 31.9789 65.2644 31.9621 65.2723 31.9433C65.2813 31.9215 65.2911 31.8978 65.3 31.8741C65.3069 31.8562 65.3139 31.8394 65.3218 31.8206C65.3317 31.7949 65.3426 31.7661 65.3524 31.7385C65.3594 31.7206 65.3664 31.7038 65.3733 31.685C65.3842 31.6554 65.396 31.6237 65.4069 31.591C65.4138 31.5732 65.4207 31.5564 65.4267 31.5376C65.4385 31.5039 65.4504 31.4683 65.4623 31.4327C65.4682 31.4139 65.4742 31.3961 65.4811 31.3772C65.4932 31.3401 65.5048 31.3029 65.5157 31.2654C65.5227 31.2457 65.5286 31.2259 65.5345 31.2061C65.5464 31.1665 65.5582 31.1259 65.5691 31.0844C65.5751 31.0636 65.5811 31.0438 65.587 31.023C65.5979 30.9824 65.6088 30.9389 65.6206 30.8963C65.6266 30.8745 65.6315 30.8528 65.6375 30.829C65.6484 30.7865 65.6583 30.7419 65.6681 30.6984C65.6741 30.6736 65.679 30.651 65.6849 30.6262C65.6949 30.5816 65.7038 30.5352 65.7127 30.4896C65.7176 30.4639 65.7236 30.4391 65.7285 30.4134C65.7374 30.366 65.7453 30.3174 65.7532 30.269C65.7582 30.2422 65.7622 30.2175 65.7671 30.1907C65.775 30.1383 65.7829 30.0829 65.7899 30.0285C65.7928 30.0057 65.7968 29.984 65.7998 29.9602C65.8087 29.882 65.8176 29.8029 65.8255 29.7217C65.88 29.2615 65.9195 28.8955 65.9502 28.5976C66.0274 28.649 66.2084 28.7163 66.4469 28.4679C66.7428 28.2255 66.9951 27.511 66.9843 26.9301C66.9734 26.4205 66.8497 25.8604 66.5509 25.7911Z" fill="#A1ACC6"/>
<path d="M51.4519 32.1316C51.4501 31.9252 51.4209 31.7198 51.3648 31.5211C51.2906 31.149 51.2154 30.8976 51.0639 30.2455C50.8839 29.4697 50.3861 29.443 50.2021 29.4559C50.0586 29.4668 49.3184 29.6607 48.8216 30.0743C48.3031 30.4692 48.2951 30.7571 48.3605 30.962C48.4119 31.1242 48.6623 31.5785 48.8552 31.8239C49.4064 32.4997 50.2318 32.6699 49.8884 32.9104C49.7884 33.0193 49.8151 33.2054 49.9329 33.6259C50.0279 33.8862 50.1199 34.1157 50.213 34.2632C50.303 34.3869 50.3841 34.6323 50.7365 34.6649C50.8245 34.6739 50.9314 34.6669 50.9076 34.7233C50.8621 34.8262 50.8354 34.9608 50.8403 35.0716C50.8463 35.2161 51.0442 35.6664 51.1322 35.889C51.2332 36.1473 51.4746 37.2972 52.012 37.2873C52.2564 37.2843 52.4989 37.223 52.7087 37.1547C53.2074 37.0072 53.8318 36.5936 53.909 36.2661C54.0208 35.8 53.722 35.607 53.5686 35.3893C53.2747 35.0825 52.6226 34.4462 52.4355 34.2473C52.3919 34.2009 52.3376 34.1553 52.2722 34.091C52.0902 33.9099 52.1822 33.8584 52.2644 33.7397C52.3633 33.5358 52.0733 32.9609 52.0001 32.8471C51.8793 32.6631 51.6785 32.4493 51.4984 32.4463C51.1214 32.385 51.4499 32.3553 51.4519 32.1316Z" fill="#A1ACC6"/>
<path d="M51.1957 34.3598C51.6954 34.1549 51.6816 34.148 51.8656 34.0006C51.923 33.9541 52.0695 34.0313 51.9349 34.2579C51.8775 34.3499 51.7885 34.3064 51.8072 34.5112C51.832 34.7744 52.39 35.1742 52.0141 35.2504C51.6727 35.3187 51.4767 34.6864 51.45 34.5953C51.4213 34.5062 51.2709 34.6032 51.1957 34.5963C51.0344 34.5805 50.9028 34.4805 51.1957 34.3598ZM50.1173 31.7659C50.1648 32.1231 50.4459 32.5288 50.6785 32.3042C50.8259 32.1616 50.5438 32.1231 50.346 31.2958C50.2183 30.7585 50.0807 31.4897 50.1173 31.7659Z" fill="#A1ACC6"/>
<path fill-rule="evenodd" clip-rule="evenodd" d="M50.9274 32.5806C50.6989 32.6043 50.4248 32.6231 50.305 32.7755C50.1872 32.9279 50.1695 32.9675 50.2526 33.115C50.3357 33.2634 50.3763 33.1407 50.5089 33.021C50.6415 32.9012 50.8028 32.834 50.9116 32.8181C51.0324 32.8003 51.1798 32.737 51.2224 32.6053C51.254 32.5034 51.1422 32.5588 50.9274 32.5806Z" fill="white"/>
<path d="M69.2087 34.3655C69.4007 34.3645 69.6678 34.0844 69.7885 33.9034C69.8637 33.7896 70.1973 33.2127 70.0033 33.0276C69.8984 32.9227 69.8717 32.891 70.032 32.7377C70.0993 32.6743 70.1547 32.6288 70.2002 32.5823C70.3942 32.3854 71.2273 31.4799 71.4243 31.2662C71.5302 31.1227 71.8726 30.8535 71.7241 30.4705C71.6103 30.2103 70.794 29.7768 70.3625 29.6126C70.121 29.5116 69.8509 29.4246 69.6629 29.4107C69.2383 29.3603 68.8969 30.6022 68.7999 30.8564C68.7159 31.0752 68.5991 31.5828 68.6011 31.7263C68.6011 31.8332 68.6367 31.9648 68.6891 32.0647C68.7208 32.1202 68.604 32.1152 68.5081 32.1242C68.1261 32.1597 67.9371 32.4121 67.8648 32.5022C67.7728 32.5872 67.65 32.8287 67.562 33.085C67.4571 33.4977 67.4897 33.6669 67.6026 33.7718C67.9915 34.0043 67.1642 34.1042 66.5774 34.883C66.3656 35.1225 66.0717 35.556 66.0232 35.7173C65.9609 35.9171 65.9104 36.1458 66.5408 36.5732C67.0138 36.9453 67.9183 37.1551 68.0766 37.165C68.2765 37.1769 68.698 37.2867 68.8544 36.5247C68.984 35.8855 69.0305 35.6935 69.0889 35.4075C69.1483 35.0632 69.1829 34.791 69.1523 34.6891C69.1354 34.5041 68.8198 34.3863 69.2087 34.3655Z" fill="#A1ACC6"/>
<path d="M68.6818 34.2766C68.1148 34.24 68.1326 34.1866 67.9436 34.0599C67.8822 34.0203 67.6359 34.143 67.812 34.3004C67.8723 34.3528 68.005 34.5092 67.9545 34.6992C67.8872 34.9456 67.526 35.4147 67.8793 35.3681C68.281 35.3177 68.3741 34.7497 68.4186 34.6656C68.4641 34.5804 68.5324 34.5468 68.6205 34.5349C68.7897 34.5141 68.9697 34.2945 68.6818 34.2766ZM69.8357 31.9051C69.7229 32.1506 69.6388 32.482 69.3113 32.3079C68.8997 32.0892 69.4142 31.7597 69.7288 31.4262C70.0247 31.1155 69.9238 31.7122 69.8357 31.9051" fill="#A1ACC6"/>
<path fill-rule="evenodd" clip-rule="evenodd" d="M69.3857 32.6506C69.1917 32.4853 68.9958 32.3082 68.7969 32.3141C68.597 32.321 68.5208 32.3517 68.4802 32.516C68.4397 32.6792 68.5584 32.6317 68.7445 32.6575C68.9305 32.6832 69.1324 32.8159 69.2283 32.891C69.3332 32.9762 69.5342 33.0385 69.5876 32.9485C69.64 32.8593 69.5677 32.8069 69.3857 32.6506ZM58.2477 32.4579C58.2477 32.4579 57.9686 31.7702 57.6816 31.789C58.1863 31.785 58.8484 31.8899 59.3481 31.8523C59.4273 31.8483 59.5866 31.784 59.6648 31.7771C60.4435 31.697 61.3619 31.9196 62.0783 31.7058C61.8329 31.9384 61.6835 32.4984 61.3302 32.6746C60.9512 32.8646 60.0744 32.919 59.5272 32.8874C58.975 32.8557 58.6346 32.6617 58.2477 32.4579" fill="white"/>
<path d="M55.0157 28.7707C55.0157 28.6865 55.0711 28.6242 55.172 28.6242C55.2541 28.6261 55.365 28.6875 55.363 28.7726C55.3669 28.8815 55.2521 28.9517 55.1671 28.9487C55.0671 28.9487 55.0137 28.8786 55.0157 28.7707ZM55.7887 29.29C55.7887 29.2019 55.8738 29.1089 55.9658 29.1118C56.0598 29.1059 56.1588 29.1999 56.1588 29.2909C56.1578 29.3681 56.0569 29.4364 55.9619 29.4364C55.8748 29.4433 55.7877 29.3662 55.7888 29.2899M56.4422 28.3275C56.4422 28.2572 56.5491 28.1702 56.65 28.1711C56.7154 28.1731 56.8193 28.2562 56.8173 28.3324C56.7816 28.4581 56.7183 28.5106 56.65 28.5106C56.5174 28.5086 56.4402 28.4561 56.4422 28.3275ZM57.2336 29.0004C57.2356 28.9093 57.2791 28.8292 57.3889 28.8302C57.479 28.8312 57.5482 28.9093 57.5473 28.9964C57.5473 29.0914 57.476 29.1825 57.385 29.1716C57.2761 29.1716 57.2336 29.0865 57.2336 29.0004ZM58.0045 28.1762C58.0056 28.0861 58.0639 28.0149 58.1678 28.0149C58.2727 28.0178 58.335 28.0861 58.3331 28.1733C58.3331 28.2622 58.2707 28.3365 58.1629 28.3355C58.06 28.3365 58.0036 28.2593 58.0045 28.1762ZM61.6529 28.2208C61.6687 28.1248 61.7182 28.0714 61.8221 28.0902C61.9112 28.11 61.9666 28.1832 61.9616 28.2831C61.9438 28.3692 61.8607 28.4019 61.7627 28.3821C61.6687 28.3653 61.64 28.2861 61.6529 28.2208ZM62.6948 28.4126C62.7096 28.3364 62.774 28.2701 62.8472 28.2839C62.8678 28.2872 62.8874 28.2947 62.905 28.3058C62.9226 28.3168 62.9377 28.3314 62.9496 28.3485C62.9614 28.3656 62.9696 28.3849 62.9738 28.4053C62.978 28.4256 62.978 28.4466 62.9739 28.467C62.958 28.5561 62.8819 28.6174 62.7918 28.5996C62.7146 28.5848 62.678 28.5027 62.6948 28.4126ZM64.0796 28.2846C64.0994 28.1915 64.1716 28.145 64.2983 28.1688C64.3963 28.1866 64.4358 28.2549 64.418 28.3489C64.3983 28.4498 64.3369 28.529 64.2359 28.5102C64.1084 28.4874 64.0608 28.3846 64.0796 28.2846ZM63.2755 29.0383C63.2953 28.9314 63.3843 28.8839 63.5021 28.9017C63.5931 28.9215 63.6496 29.0106 63.6317 29.1046C63.6139 29.1917 63.5279 29.26 63.4427 29.2422C63.319 29.2204 63.2587 29.1254 63.2755 29.0383ZM64.3612 29.1148C64.3819 29.0109 64.468 28.9663 64.5719 28.9881C64.6689 29.001 64.7392 29.0801 64.7174 29.1781C64.6996 29.2702 64.6026 29.3345 64.5136 29.3176C64.4076 29.2988 64.3413 29.2098 64.3612 29.1148Z" fill="#A1ACC6"/>
<path d="M56.7531 26.0986C56.2405 26.2421 55.8575 26.6369 55.7031 27.0318C55.7022 27.1456 55.9872 27.2653 55.9961 27.3088C56.1336 27.3484 56.6046 27.2663 56.7699 27.2682C57.329 27.2742 57.9653 27.0159 57.805 26.6963C57.805 26.6963 57.2667 25.9551 56.7531 26.0986ZM64.0075 27.0608C64.149 26.8342 63.5206 25.9901 63.1199 26.0297C62.7181 26.0702 62.4183 26.2217 62.1016 26.7115C62.0838 26.7402 62.1095 26.8689 62.0907 26.9015C62.2411 27.1528 62.6686 27.3349 63.1733 27.333C63.3346 27.333 63.491 27.3132 63.6305 27.2776C63.6384 27.1202 63.868 27.2885 64.0075 27.0609" fill="white"/>
<path fill-rule="evenodd" clip-rule="evenodd" d="M59.8939 40.0518C60.3214 40.1606 60.7211 39.9261 60.7875 39.6223C60.834 39.4026 60.7676 39.2027 60.6925 39.0661C60.6212 38.9326 60.545 38.8574 60.3906 38.7584C60.2353 38.6486 59.9958 38.6703 59.9196 38.695L59.8522 38.7258C59.4288 38.891 59.1774 39.8687 59.8939 40.0518M56.1642 34.2162C56.1513 34.8298 56.1463 35.4393 56.1345 36.2706C56.2008 36.3805 56.2869 36.5091 56.4057 36.6724C56.6085 36.9554 56.9004 36.0014 57.2537 36.2013C57.6317 36.4151 57.6129 37.083 58.0167 37.3997C58.2571 37.5877 58.7034 36.519 58.9389 37.1038C59.1932 37.7362 59.6495 37.8816 60.1422 38.133C60.3629 37.939 60.6855 37.9123 60.9556 37.5937C61.209 37.2948 61.3604 36.99 61.5474 36.9317C61.8364 36.8416 62.0066 37.5551 62.3193 37.4413C62.828 37.2543 62.7389 36.3161 63.2109 36.1895C63.4504 36.1252 63.489 36.5368 63.772 36.5794C64.0541 36.623 64.3232 35.6343 64.4686 35.2237C64.5418 35.0208 64.6458 34.9624 64.8031 35.0218C65.0258 35.1059 65.0396 35.4058 65.0604 35.9223C65.0921 36.6476 65.4255 37.3433 65.8303 37.8282C66.234 38.3121 65.2059 38.0439 64.8032 36.994C64.5518 36.3408 64.6221 36.3359 64.435 36.6724C64.435 36.6724 64.0886 37.272 63.865 37.3315C63.5791 37.4086 63.3069 36.989 63.3069 36.989C63.3069 36.989 62.9714 38.1548 62.3975 38.1577C61.8582 38.1597 61.6771 37.5848 61.5504 37.8074C61.4544 37.9727 61.3356 38.2191 60.8518 38.3962C61.1111 38.5941 61.3347 38.799 61.4327 39.1572V39.1582C61.6177 40.0102 60.9853 40.5485 60.2402 40.604C59.7029 40.6405 59.0517 40.4139 58.8796 39.9093C58.6906 39.267 59.0883 38.6802 59.4743 38.4042C59.1171 38.3101 58.833 38.0667 58.6242 37.7619C58.6242 37.7619 58.3215 38.1795 57.8741 38.1004C57.5892 38.0499 57.2072 37.4887 57.0706 37.0098C57.0637 36.988 56.755 37.4304 56.3918 37.371C55.9059 37.2918 55.9118 36.9346 55.6763 36.5853C55.6239 36.5081 55.4507 36.2558 55.4151 36.4725C55.3772 36.7118 55.3024 36.9438 55.1934 37.1602C54.946 37.657 54.2306 38.2082 53.9169 37.9994C54.1969 37.8866 54.664 37.3314 54.8085 36.8357C54.9688 36.2825 55.0084 35.762 54.949 35.2207C54.9025 34.7892 55.329 35.0277 55.612 35.3236L55.6259 35.0445C55.6427 34.7348 55.6456 34.3875 55.6486 34.0559C55.6496 33.9095 55.5823 33.6354 55.4111 33.4385C55.235 33.2277 54.9638 32.7884 54.8094 32.5647C54.8094 32.5647 54.6284 32.2767 54.5126 32.063C54.4077 31.866 54.3097 31.6395 54.1672 31.2387C54.0505 30.9071 53.9258 30.4114 53.8576 29.7929C53.7843 29.1575 53.7961 29.0101 53.7773 28.6034C53.8615 28.9884 53.9851 29.6256 54.0307 29.8275C54.2404 30.7478 54.4136 31.1733 54.7372 31.7304C55.0598 32.3103 55.4705 32.7725 55.8604 33.1812C56.089 33.4207 56.56 33.8105 56.8599 34.052C57.2616 34.3736 57.4407 34.5191 57.8929 34.804C58.2937 35.0564 59.031 35.569 60.0423 35.5571C60.9933 35.5462 61.5098 35.1732 61.8195 34.995C62.4846 34.6101 62.8299 34.3073 63.292 33.8748C63.8235 33.3781 64.0946 33.1297 64.4172 32.7527C64.8357 32.2639 65.2207 31.7413 65.569 30.5103C65.759 29.8374 65.8818 29.0507 65.9599 28.6113C65.9708 28.7677 65.9945 28.9448 65.9461 29.5515C65.9005 29.9918 65.855 30.3946 65.759 30.7973C65.6195 31.3842 65.4919 31.7779 65.2593 32.2055C65.0189 32.6458 64.9545 32.6844 64.5508 33.2901C64.2687 33.6898 64.2578 33.7056 64.246 34.0085C64.2371 35.2801 63.9541 37.0256 63.7343 34.2677C62.3361 35.4552 61.1338 36.2033 59.9948 36.2161C58.8756 36.229 57.7069 35.4888 56.1642 34.2162ZM62.9398 25.7169C62.7053 25.7931 62.3392 26.1255 62.2114 26.3185C62.0522 26.558 61.9522 26.9885 61.7474 26.9954C61.6682 26.9677 61.7444 26.7896 61.6247 26.8024C61.4703 26.837 61.3773 26.9717 61.4178 27.131C61.4475 27.2111 61.5168 27.2715 61.6267 27.2843C61.9927 27.3318 62.0482 26.9944 62.1877 26.8004C62.3055 26.6392 62.548 26.3907 62.6775 26.3175C62.7973 26.2483 62.9725 26.1958 63.1229 26.3136C63.211 26.3888 63.1239 26.5531 63.0586 26.5867C62.8913 26.6006 62.733 26.5392 62.6538 26.556C62.5737 26.5729 62.4549 26.7885 62.4371 27.0558C62.6132 27.1269 62.6558 26.9934 62.829 26.9904C63.1081 26.9865 63.3822 27.1696 63.5246 27.029C63.6682 26.8865 63.6642 26.6283 63.6632 26.5164C63.9007 26.5263 64.0086 26.8618 63.9086 27.0349C63.8294 27.126 63.6375 27.1082 63.6385 27.2774C64.4489 27.4407 64.5251 27.1032 64.5874 26.9202C64.632 26.7727 64.6152 26.652 64.5469 26.4502C64.3094 25.8484 63.5879 25.5051 62.9398 25.7169ZM55.4408 27.2537C55.5843 27.3289 55.8891 27.4763 56.1306 27.406C56.1593 27.3131 56.0801 27.2685 56.0286 27.2675C55.8763 27.2616 55.7684 27.126 55.7724 27.0627C55.7902 26.8559 56.0039 26.5214 56.2553 26.3888C56.4848 26.2255 56.662 26.3136 56.7293 26.4402C56.7243 26.5392 56.6887 26.6144 56.6036 26.6332C56.472 26.6629 56.377 26.5491 56.2791 26.5917C56.094 26.7856 56.1662 27.0192 56.2325 27.0993C56.2988 27.1794 56.377 27.2101 56.4047 27.1844C56.5284 27.027 56.8263 27.03 57.1261 27.0547C57.2537 26.9647 57.2607 26.747 57.2963 26.5609C57.51 26.3185 57.6169 26.8064 57.7584 27.0003C57.8515 27.127 57.9524 27.2784 58.0791 27.2913C58.2958 27.3131 58.5779 27.1389 58.47 26.8202C58.4076 26.7382 58.2364 26.9034 58.1681 26.8489C57.9088 26.6026 58.1424 26.0998 57.604 25.8307C57.0282 25.5417 56.1345 25.6417 55.7773 26.0909C55.6388 26.2651 55.4874 26.458 55.3745 26.753C55.3201 26.9489 55.2687 27.1517 55.4408 27.2537ZM60.9399 29.4377C60.5866 29.3317 60.5045 29.7098 60.1452 29.7088C59.6416 29.7088 59.5367 29.3862 59.2695 29.4139C59.0498 29.4386 58.9361 29.7721 58.7866 29.7949C58.6669 29.7712 58.6916 29.973 58.843 30.0116C59.1458 30.0878 59.0795 29.8345 59.2794 29.9047C59.3972 29.9502 59.4219 30.1521 59.7613 30.3075C60.0988 30.4609 60.4352 30.2778 60.738 30.0037C60.93 29.8177 61.2932 29.8305 61.2002 29.7157C61.119 29.6771 61.0606 29.4732 60.9399 29.4377ZM61.6742 24.8342C61.6979 24.9321 62.0442 24.8351 62.2066 24.7728C62.3312 24.7243 62.4361 24.6699 62.5945 24.6372C62.7033 24.6144 62.8607 24.5987 62.9675 24.5976C63.213 24.5967 63.3713 24.5996 63.583 24.6343C63.9175 24.6897 64.5479 25.0192 64.5994 24.8747C64.6567 24.6036 64.4192 24.3859 64.2391 24.2879C63.7929 24.0475 63.112 23.9228 62.5034 24.1692C62.2995 24.2662 62.2303 24.3483 62.0383 24.4788C61.9047 24.5689 61.6593 24.7144 61.6742 24.8342ZM59.2666 31.9294C59.3447 31.9264 59.6505 31.8967 59.7297 31.8898C60.5075 31.8176 61.2199 32.0184 61.9384 31.8126C61.691 32.0422 61.4891 32.4014 61.1339 32.5746C60.7539 32.7606 60.0592 32.7616 59.513 32.723C58.9607 32.6854 58.5096 32.3845 58.1236 32.1768C58.0197 32.4885 58.1869 32.6083 58.4264 32.821C58.6976 33.0634 59.1201 33.3939 59.7574 33.4108C60.6807 33.4345 61.408 33.3454 61.8711 32.5824C62.0126 32.3321 62.3945 31.8185 62.7924 31.6286C63.015 31.5226 63.5247 31.2842 63.4406 31.1526C63.2891 30.9586 62.9883 30.9933 62.7726 31.0417C62.6083 31.0754 62.5588 31.3762 62.2847 31.398C61.6356 31.4821 61.0052 31.2545 60.2047 31.2802C59.6287 31.297 59.1745 31.4306 58.559 31.4791C57.9653 31.5266 57.7594 31.2129 57.2023 31.1446C56.949 31.112 56.9024 31.2584 57.0945 31.4999C57.2746 31.685 57.5872 31.8611 57.8356 31.8571C58.3403 31.8581 58.7658 31.963 59.2666 31.9294ZM57.6615 24.7164C57.5229 24.6808 57.4418 24.6264 57.2656 24.6056C57.1558 24.5927 56.9975 24.5828 56.8906 24.5887C56.6471 24.6026 56.5245 24.6006 56.278 24.6639C55.9495 24.7481 55.3399 25.1083 55.2776 24.9668C55.2252 24.7768 55.3241 24.6056 55.4478 24.4819C55.8842 24.3414 56.2444 24.2582 56.8015 24.0386C56.9796 24.0435 57.1577 24.0722 57.327 24.1326C57.5081 24.2067 57.6446 24.3087 57.8119 24.4126C57.9474 24.4967 58.2126 24.6284 58.1958 24.7451C58.1612 24.844 57.8287 24.7609 57.6615 24.7164Z" fill="#E4ECFF"/>
</g>
<defs>
<clipPath id="clip0_156_13834">
<rect width="120" height="80" fill="white" transform="translate(0.5)"/>
</clipPath>
</defs>
</svg>
