<svg width="121" height="80" viewBox="0 0 121 80" fill="none" xmlns="http://www.w3.org/2000/svg">
<path d="M64.4706 29.1259C64.7245 28.5419 65.0292 27.9834 65.3847 27.4502C65.5624 27.1963 65.7401 27.0185 65.9179 26.7646C65.8163 26.7646 65.7401 26.79 65.664 26.8408C65.4862 26.9678 65.4101 27.1709 65.2831 27.2724C64.9784 27.5263 64.9784 27.7549 64.8007 27.8564C64.6737 27.9326 64.5722 28.0595 64.496 28.1865C64.4198 28.3134 64.3437 28.4404 64.3183 28.5927C64.2929 28.6689 64.2421 28.5927 64.1152 28.7705C63.9628 28.999 63.8613 29.2529 63.8105 29.5068C63.7851 29.5829 63.6328 29.6337 63.5312 29.8114C63.4043 30.0653 63.3027 30.3446 63.2519 30.6493C63.2265 30.7255 63.0996 30.8016 62.998 31.0302C62.9218 31.1825 62.8457 31.3602 62.8203 31.538C62.7949 31.7157 62.6933 31.7411 62.5918 32.0204C62.541 32.2489 62.4902 32.4774 62.4902 32.7059C62.4394 32.8075 62.3887 32.909 62.3125 33.0106C62.2109 33.2391 62.1601 33.4676 62.1348 33.6961C62.0332 33.8992 61.957 34.1023 61.9062 34.3308C61.8555 34.5847 61.8555 34.8386 61.8809 35.1179C61.7793 35.5496 61.7539 35.9812 61.7793 36.4382C61.8047 36.6667 61.8301 36.8698 61.8301 37.0984C61.7793 37.7585 61.7539 38.3171 61.7539 39.0788C61.7539 39.5612 61.7793 40.0436 61.8555 40.526C61.9316 41.0338 62.0332 41.44 62.0332 41.44H63.7343C63.7089 40.7799 63.7089 40.0944 63.7597 39.4342C63.8105 38.8503 63.9374 38.2663 64.0898 37.7077C64.2421 37.1491 64.4452 36.5906 64.6737 36.032C64.6737 36.0066 64.6737 35.9304 64.5976 36.0066C64.4198 36.1335 64.2675 36.3113 64.1406 36.489C63.9628 36.7937 63.7851 37.0984 63.6328 37.403C63.4296 37.7839 63.3281 38.1139 63.0996 38.5964C63.0996 38.2663 63.125 37.9362 63.2011 37.6315C63.3535 36.8698 63.6328 36.1335 64.0644 35.448C64.2421 35.1941 64.4198 34.9656 64.6484 34.7625C64.9023 34.534 65.1308 34.3308 65.4101 34.1023C65.1308 33.95 64.7499 34.2547 64.6737 34.2801C64.2675 34.3562 64.1152 34.7371 63.9882 34.7625C63.8359 34.8386 63.7089 34.9402 63.6074 35.0925C63.5058 35.1941 63.4804 35.3718 63.3789 35.4226C63.2011 35.5496 63.0742 35.7019 62.998 35.8796C62.9472 35.9558 62.8203 36.3874 62.6933 36.3367C62.9218 34.9402 63.4296 33.6199 64.2167 32.452C64.6991 31.6903 65.3339 31.0302 66.0702 30.497C66.1718 30.4208 66.1971 30.3954 66.0448 30.3954C65.2831 30.497 65.2577 30.827 65.1308 30.8524C65.0038 30.9032 64.8769 31.0048 64.7753 31.1063C64.5976 31.2841 64.623 31.411 64.5468 31.4618C64.4198 31.5633 64.2929 31.6649 64.2167 31.8172C64.1659 31.8934 64.0898 32.0965 64.0136 32.1473C63.8105 32.2489 63.6582 32.4012 63.5312 32.6043C63.4804 32.7313 63.4043 32.8836 63.3535 33.0106C63.2519 33.1375 63.125 33.2391 62.998 33.3406C63.125 32.6805 63.3281 32.0458 63.5566 31.4364C63.8105 30.6747 64.1152 29.8876 64.4706 29.1259Z" fill="#A1ACC6"/>
<path d="M66.1953 33.9753C66.8046 32.6297 67.5155 31.3602 68.3788 30.1922C68.4803 30.0145 68.6073 29.8622 68.6835 29.7098L68.9881 29.2528C69.2674 28.7958 69.3944 28.6688 69.6991 28.2372C69.7752 28.1357 69.8514 28.0341 69.8768 27.9072C69.9276 27.6533 69.7245 27.5009 69.6737 27.247C69.6229 27.0185 69.6483 26.7646 69.7752 26.5361C69.8514 26.4345 69.9276 26.3076 69.9784 26.1806C70.1053 25.8506 70.0545 25.1396 70.2323 25.1143C70.1815 25.4697 70.1815 25.8252 70.2323 26.1552C70.283 26.5361 70.5369 26.7646 70.6131 27.1708C70.867 27.1201 71.1209 27.1201 71.3748 27.1455C71.6287 27.1455 71.8572 27.1201 72.0857 27.0185C72.3904 26.9169 72.6189 26.7392 72.949 26.663C72.6951 26.9169 72.3142 26.9931 72.0096 27.1962C71.8826 27.2724 71.781 27.374 71.7303 27.4755C71.6033 27.6786 71.5018 27.8564 71.324 27.9325C70.9686 28.0849 70.6893 28.0087 70.283 28.0849C69.6483 28.7704 69.1151 29.5321 68.6581 30.3446C67.3886 32.5027 66.3222 34.7624 65.6875 37.0475C65.916 36.6413 66.0937 36.2604 66.3476 35.8796C66.6015 35.448 66.9062 35.0417 67.2109 34.6355C67.9472 33.6707 68.6835 32.8074 69.4959 31.9188C70.1307 31.2078 70.867 30.5985 71.6795 30.0907C72.7459 29.4305 74.0661 28.9481 75.2087 29.202C75.361 29.2274 75.488 29.2782 75.6149 29.3544C74.2946 29.1766 72.949 29.5829 71.908 30.4208C71.1463 31.0301 70.4608 31.6903 69.8514 32.4519C69.5213 32.8328 69.2167 33.2644 68.912 33.6707C68.6073 34.0769 68.3026 34.5593 68.0487 35.0163C67.1347 36.5397 66.3984 38.1901 65.8906 39.8912C65.8652 39.942 65.8652 39.9928 65.8652 40.0435C65.8906 40.0181 65.916 39.9674 65.9414 39.9166C66.6523 38.774 67.4901 37.6823 68.5565 36.9206C68.6581 36.8444 68.7343 36.7428 68.785 36.6413C68.912 36.1843 68.5565 35.9811 69.0389 35.3464C69.1405 35.1941 69.2928 35.1433 69.3944 35.0163C69.5975 34.7117 69.7498 34.1785 69.9022 34.0261C69.7752 34.3816 69.6737 34.737 69.5721 35.1179C69.5721 35.4987 69.5975 35.8796 69.6483 36.2604C69.9022 36.3112 70.1307 36.3874 70.3846 36.4889C70.6639 36.5651 70.9686 36.5905 71.2732 36.5397C71.451 36.4889 71.6541 36.4636 71.8318 36.4636C71.5018 36.6413 71.0447 36.6159 70.7147 36.7682C70.4862 36.8952 70.41 37.0729 70.0799 37.1237C69.826 37.1745 69.5721 37.1491 69.3436 37.0475C69.242 36.9714 69.0897 36.946 68.9628 36.9967C68.6327 37.1745 68.328 37.403 68.0995 37.6823C67.414 38.3678 66.8554 39.1803 66.3984 40.0435C66.2714 40.2974 66.1445 40.5513 66.0429 40.8052C65.9921 40.9322 65.8398 41.2876 65.8398 41.2876H64.1387V40.6021C64.1641 40.272 64.2148 39.942 64.291 39.6119C64.3926 39.0787 64.4941 38.6217 64.6211 38.1139C64.748 37.6061 64.9004 37.1491 65.0781 36.6667C65.4082 35.8542 65.789 34.8894 66.1953 33.9753Z" fill="#A1ACC6"/>
<path d="M49.6172 47.3305C50.1503 46.8989 50.7343 46.4926 51.3183 46.1626C51.5722 46.0102 51.953 45.8325 52.2577 45.7055C53.4764 45.1724 54.7967 44.8677 56.117 44.8423H66.2476C66.5522 44.8423 66.8569 44.9438 67.0854 45.147C67.2885 45.3501 67.3901 45.6294 67.4409 45.9087C67.4663 46.1372 67.4663 46.3911 67.4155 46.6196C67.3901 46.7973 67.3139 46.975 67.2124 47.1274C67.1362 47.2289 67.06 47.3305 66.9585 47.4067C66.8061 47.5082 66.603 47.559 66.4253 47.559H54.492C53.7049 47.559 52.9178 47.6098 52.1561 47.7113C51.5722 47.7875 50.9882 47.8891 50.4296 48.016C49.7187 48.2191 49.0332 48.4477 48.3477 48.7269C48.7031 48.1684 49.1347 47.7367 49.6172 47.3305Z" fill="#A1ACC6"/>
<path d="M53.121 43.3189C53.7558 42.8873 54.4413 42.5318 55.1522 42.2525C55.5331 42.1256 55.9139 41.9986 56.2948 41.8971C56.7264 41.7955 57.1834 41.7194 57.615 41.694H66.273C66.273 41.694 66.4507 41.694 66.5269 41.7194C66.6539 41.7448 66.7554 41.7955 66.8824 41.8463C67.0347 41.9479 67.1617 42.1002 67.2632 42.2525C67.4663 42.608 67.5425 43.0396 67.4663 43.4459C67.3902 43.9283 67.0347 44.4615 66.5269 44.4615H56.9295L56.1424 44.4869C55.6854 44.5123 55.2284 44.5376 54.7714 44.6138C54.4413 44.6646 54.0858 44.7408 53.7558 44.8169C52.6132 45.1216 51.5976 45.7056 50.5566 46.1626C51.1914 45.0454 52.08 44.0806 53.121 43.3189Z" fill="#A1ACC6"/>
<path d="M48.2968 49.1839C49.7948 48.2953 51.5975 47.9398 53.2479 47.889H66.4253C67.2123 47.889 67.4916 48.6761 67.4916 49.2855C67.4916 49.4632 67.4662 49.6663 67.3901 49.8441C67.3139 50.0218 67.2377 50.1741 67.1108 50.3265C67.0346 50.4026 66.9331 50.4788 66.8061 50.5296C66.6792 50.555 66.5522 50.5804 66.3999 50.555H56.8025C56.8025 50.555 56.2947 50.5296 55.9392 50.5042C55.6853 50.4788 55.4822 50.4534 55.2029 50.4026C54.5935 50.2503 54.0096 50.098 53.4256 49.8694C53.0448 49.7425 52.6385 49.6663 52.2323 49.5902C51.4452 49.4632 50.6327 49.4124 49.8456 49.4886C48.8808 49.5648 47.9414 49.7425 47.0273 50.0472C47.1797 49.8187 47.8398 49.4632 48.2968 49.1839Z" fill="#A1ACC6"/>
<path d="M55.2537 53.2209C54.7967 53.0686 54.3904 52.8654 53.9842 52.6115C53.4764 52.2815 53.2225 52.0022 52.5878 51.7229C52.0038 51.4182 51.4198 51.1643 50.8105 50.9358C50.3281 50.7581 49.8203 50.6311 49.3125 50.5296C48.5762 50.4026 47.8398 50.3518 47.8398 50.3518C47.916 50.3011 48.0176 50.2503 48.0937 50.2249C48.8047 49.9964 49.541 49.8694 50.3027 49.8187C50.9628 49.7679 51.6483 49.8187 52.2831 49.9456C52.6132 49.9964 52.9432 50.0726 53.2479 50.1741C54.2635 50.4788 55.4568 50.9358 56.4978 50.9358H66.1714C66.4507 50.9358 67.0092 51.0374 67.2124 51.4182C67.4917 51.8752 67.517 52.4338 67.3393 52.9162C67.2631 53.1193 67.1616 53.2971 67.0092 53.4494C66.8823 53.551 66.7046 53.6271 66.5268 53.6525H57.9958C57.0818 53.6525 56.1424 53.5002 55.2537 53.2209Z" fill="#A1ACC6"/>
<path d="M59.0605 56.217C58.832 55.9631 58.5019 55.6076 58.1972 55.2522C57.8672 54.8713 57.5879 54.4397 57.3848 53.9573H62.9706C62.9706 54.4143 62.9198 54.8967 62.8436 55.3537C62.7167 56.0392 62.5135 56.6994 62.1835 57.3087C62.1835 57.8419 62.412 58.3497 62.4374 58.8829C61.955 59.1622 61.4979 59.4669 61.0663 59.8477C61.0409 59.8731 60.9901 59.8731 60.9901 59.797C60.7616 58.9591 60.6601 58.2228 60.4823 57.4103C59.9745 57.0548 59.5175 56.6486 59.0605 56.217Z" fill="#A1ACC6"/>
<path d="M64.8515 55.76C64.7246 55.4553 64.5722 55.1506 64.3945 54.8459C64.3691 55.049 64.3945 55.176 64.3691 55.3791C64.3437 55.5822 64.2168 55.4807 64.1914 55.4045C64.1152 55.176 64.0391 54.8967 63.9629 54.6682C63.8867 54.4397 63.8359 54.1858 63.8105 53.9573H64.75C64.75 53.9573 64.7754 53.9573 64.8008 54.0588C64.8515 54.2873 64.8261 54.5159 64.9023 54.7951C64.9785 55.1252 65.1054 55.4553 65.2324 55.7853C65.3339 56.0646 65.4863 56.3693 65.6132 56.6486C65.6386 56.6994 65.6386 56.7502 65.6132 56.8009C65.5878 56.8263 65.5371 56.8517 65.5117 56.8263L65.4863 56.8009C65.1816 56.4709 65.0039 56.1154 64.8515 55.76Z" fill="#A1ACC6"/>
<path d="M66.2734 56.4201C66.1211 56.09 65.8926 55.7092 65.9179 55.3283C66.0195 55.4553 66.0703 55.5568 66.1972 55.633C66.2734 55.6584 66.4003 55.633 66.375 55.5315C66.3242 55.3283 66.2226 55.1506 66.1211 54.8459C65.9941 54.4143 65.8672 53.9573 65.8672 53.9573H64.9277C64.9785 54.2873 65.0801 54.6174 65.207 54.9475C65.4355 55.5314 65.6894 56.09 66.0195 56.6232C66.248 57.0548 66.5019 57.4611 66.8066 57.8419C66.9081 57.9435 67.162 57.8673 67.0605 57.6896C66.7304 57.2834 66.4765 56.8517 66.2734 56.4201Z" fill="#A1ACC6"/>
<path d="M72.4424 24.3273C72.2393 24.4034 72.0615 24.5558 71.96 24.7335C71.8838 24.8858 71.833 25.089 71.9854 25.2159C72.2393 25.419 72.5439 25.2159 72.6455 24.9874C72.7471 24.7335 72.7725 24.4542 72.7471 24.1749C72.7471 24.1749 72.5693 24.2511 72.4424 24.3273Z" fill="#A1ACC6"/>
<path d="M72.6438 25.6475C72.7708 25.4444 72.9485 25.2667 73.1516 25.1651C73.4055 25.0128 73.6594 24.8604 73.8117 24.7589C73.9641 24.6573 74.0149 24.5811 74.0149 24.5811C73.9387 24.6065 73.8625 24.6319 73.7864 24.6827C73.3547 24.9366 72.8723 25.2413 72.6946 25.3175C72.4153 25.419 72.1106 25.4698 71.8313 25.4952C71.7552 25.2159 71.7044 24.9112 71.679 24.6319C71.679 24.4542 71.7044 24.3019 71.7552 24.1241C71.8567 23.6417 71.8567 23.3878 71.8567 23.3878C71.7806 23.464 71.7552 23.5655 71.7552 23.6671C71.7298 23.8702 71.7044 23.921 71.6536 24.1495C71.6282 24.378 71.552 24.6065 71.3997 24.8097C71.1712 25.0382 70.9681 25.4698 71.1458 25.7745C71.2474 25.9522 71.4251 25.9268 71.4759 25.9776C71.5267 26.0284 71.552 26.1299 71.7298 26.1807C72.0852 26.3077 72.4661 25.9776 72.6438 25.6475Z" fill="#A1ACC6"/>
<path d="M72.2141 26.6378C72.3156 26.46 72.468 26.3077 72.6457 26.2061C72.9504 26.0284 73.1789 25.9014 73.382 25.7999C73.4582 25.7745 73.5343 25.6983 73.5597 25.6222C73.3058 25.7237 73.0773 25.8507 72.8488 25.9776C72.5695 26.1553 72.2902 26.2569 71.9855 26.2823C71.9094 26.2823 71.8078 26.2823 71.7316 26.2569C71.6047 26.2569 71.4524 26.2569 71.3254 26.2823C71.3 26.13 71.2492 26.003 71.1985 25.8507C71.1477 25.7491 71.0969 25.6222 71.0715 25.4952C71.0461 25.3683 71.0461 25.2413 71.0461 25.1144C71.0969 24.8097 71.1223 24.505 71.1477 24.2003C70.9446 24.6066 71.0461 25.1144 70.7922 25.419C70.6907 25.546 70.6145 25.6729 70.5383 25.8253C70.4114 26.0792 70.4368 26.4092 70.5891 26.6378C70.6907 26.7901 70.8938 26.7901 70.9446 26.8155C70.9953 26.8409 71.0461 27.0186 71.2492 27.0694C71.6047 27.1455 71.9855 26.9678 72.2141 26.6378Z" fill="#A1ACC6"/>
<path d="M72.314 34.5593C72.3901 34.3816 72.4663 34.1785 72.5679 34.0007C72.314 34.0261 72.2886 34.0515 71.9331 34.1023C71.8316 34.1277 71.73 34.1785 71.6538 34.2292C71.5015 34.3562 71.3999 34.5339 71.4507 34.737C71.4761 34.8132 71.5269 34.8894 71.603 34.9148C71.8823 34.9909 72.187 34.8386 72.314 34.5593Z" fill="#A1ACC6"/>
<path d="M72.5937 35.0164C72.9238 34.9403 73.3046 34.7879 73.4569 34.8387C73.1269 34.991 72.7714 35.0926 72.416 35.1688C72.1621 35.2703 71.9336 35.4227 71.7304 35.6258C71.5273 35.8035 71.2226 35.8543 70.9687 35.7273C70.8672 35.6766 70.8164 35.575 70.791 35.4734C70.791 35.4227 70.6641 35.3465 70.5879 35.2957C70.5371 35.2195 70.4863 35.1434 70.4863 35.0672C70.4863 34.6102 70.8164 34.4071 71.1719 34.1532C71.4258 33.95 71.7558 33.0868 71.9589 32.9091C71.9336 33.1883 71.5527 33.7215 71.4004 34.1278C71.2734 34.4578 71.3242 34.7117 71.248 35.0418C71.4765 35.0672 71.7558 35.118 72.0097 35.118C72.1875 35.0926 72.3906 35.0672 72.5937 35.0164Z" fill="#A1ACC6"/>
<path d="M72.2636 35.702C72.0858 35.7274 71.8573 35.8035 71.705 35.8289C71.1718 35.9305 70.9179 35.6766 70.4609 35.6766C70.4863 35.1688 70.3339 34.9657 70.4609 34.6356C70.5878 34.3055 70.7148 34.0516 70.8163 33.7977C70.8671 33.6962 70.9179 33.5692 70.9179 33.4423C70.9179 33.4423 70.791 33.6454 70.4101 34.3563C70.2832 34.6102 70.0546 34.661 69.8515 34.9149C69.6484 35.1688 69.4707 35.7781 69.9277 36.0066C70.0293 36.0574 70.0039 36.2098 70.08 36.2605C70.3593 36.5398 70.9687 36.5144 71.3241 36.1844C71.6034 35.9813 71.9335 35.8289 72.289 35.7781C72.4159 35.7527 72.5175 35.702 72.619 35.6512C72.4667 35.6766 72.3651 35.6766 72.2636 35.702Z" fill="#A1ACC6"/>
<path d="M61.9566 31.995C62.1343 31.411 62.2358 30.827 62.312 30.2431C62.4136 29.329 62.1597 28.415 61.6011 27.7041C61.6519 28.0088 61.728 28.2627 61.7788 28.5673C61.8042 28.9482 61.7788 29.3544 61.6773 29.7353C61.6011 30.0146 61.4741 30.2938 61.3472 30.5731C61.1695 30.9032 60.9917 31.2079 60.7378 31.5126C60.1031 32.2997 59.1383 33.823 59.1383 33.823H59.0113C59.0113 33.6199 59.4429 32.9852 59.6715 32.6043C60.1793 31.8172 60.5347 31.3856 60.9917 30.6747C61.271 30.2431 61.4488 29.7353 61.5503 29.2275C61.6773 28.2373 61.1695 27.0693 60.4078 26.6885C60.5855 27.4248 60.5601 28.4658 60.1793 28.8974C59.4937 29.6337 58.9098 30.4716 58.4781 31.3856C58.4527 31.411 58.3512 31.2333 58.2496 31.1825C58.1481 31.1063 58.1988 30.8778 58.1481 30.7255C58.1227 30.6239 58.0719 30.5477 58.0211 30.4716C57.8688 30.2685 57.7164 30.2685 57.691 30.2177C57.6657 30.0653 57.6149 29.9384 57.5387 29.8114C57.4625 29.7099 57.2848 29.6591 57.234 29.5575C57.1832 29.456 57.1325 29.1767 56.904 29.0497C56.8024 28.999 56.7516 28.8212 56.6501 28.7451C56.4723 28.5927 56.2438 28.5166 55.9899 28.5166C55.8376 28.3896 55.6852 28.3134 55.5075 28.2627C55.2536 28.2119 55.1013 28.3896 54.9743 28.3388C54.8076 28.2409 54.61 28.2101 54.4214 28.2525C54.2328 28.2949 54.0674 28.4075 53.9587 28.5673C53.8572 28.6943 53.654 28.5673 53.4255 28.7451C53.197 28.9228 53.2224 29.0497 53.1209 29.0497C52.9431 29.1005 52.7908 29.2275 52.7146 29.4052C52.6638 29.5321 52.6384 29.6591 52.6131 29.7861C52.5623 29.913 52.5369 30.0653 52.5115 30.2177C52.5115 30.3954 52.5623 30.4716 52.5369 30.5477C52.5115 30.6239 52.4353 30.7509 52.4099 30.8524C52.3845 30.954 52.4099 31.0555 52.4353 31.1571C52.4861 31.2587 52.4099 31.3602 52.3592 31.4618C52.3084 31.5887 52.283 31.7157 52.283 31.868C52.3084 32.0458 52.4099 32.0965 52.3338 32.2489C52.1307 32.5536 52.1307 32.9344 52.3338 33.2391C52.3845 33.3153 52.2322 33.4676 52.2068 33.6961C52.2322 33.8992 52.283 34.0769 52.3845 34.2293C52.3845 34.2801 52.3084 34.2547 52.3084 34.3055C51.699 33.6199 51.0135 32.9598 50.3026 32.3504C49.8456 31.995 49.3631 31.6649 48.8553 31.411C47.4843 30.6747 45.8847 30.1669 44.4121 30.3446C44.9707 30.7763 45.6562 31.1063 46.2148 31.6141C46.7734 32.1219 47.2304 32.5028 47.7128 33.0106C48.4491 33.7977 49.1346 34.6609 49.744 35.5496C49.9471 35.8289 50.0487 36.0066 50.2518 36.3113C50.4549 36.6159 50.6326 36.8952 50.785 37.1999C51.6228 38.6471 52.283 39.9674 52.9685 41.44C53.1716 41.8463 53.324 42.2779 53.5017 42.6841C53.5525 42.7857 53.6287 42.7095 53.6794 42.6841C53.9333 42.5318 54.1872 42.4302 54.4411 42.3033C54.6443 42.2017 54.8474 42.1509 55.0251 42.0748C55.4821 41.9224 55.9391 41.7955 56.4215 41.6939C57.1832 41.5924 57.9196 41.5416 58.6813 41.567H61.5249C61.4995 40.7799 61.2964 40.0182 61.271 39.2057C61.2456 38.571 61.2456 37.9362 61.271 37.3015C61.3218 35.4734 61.5503 33.6961 61.9566 31.995ZM58.732 33.366C58.7828 33.5184 58.859 33.6199 58.7828 33.7977C58.732 33.9754 58.5289 34.0008 58.3512 34.0769C58.1735 34.1531 57.9196 34.2039 57.7926 34.0769C57.6657 33.95 57.5895 33.5945 57.7672 33.4676C58.0211 33.2645 58.6051 33.0106 58.732 33.366ZM56.7516 36.5398C56.5739 36.7429 56.2692 36.7429 55.9645 36.8191C55.8376 36.8445 55.7106 36.7683 55.6599 36.6413C55.5583 36.4382 55.4313 36.1843 55.6599 35.9812C55.8884 35.7781 56.0661 35.8289 56.2946 35.7781C56.3962 35.7273 56.5231 35.7273 56.6247 35.7781C56.8532 35.9304 56.9293 36.2351 56.8024 36.4636C56.777 36.5144 56.777 36.5144 56.7516 36.5398ZM57.1325 37.3015C57.2086 37.5046 57.1325 37.7585 56.9293 37.86C56.6501 37.9616 56.2692 38.1139 56.0661 37.9616C55.8376 37.8093 55.6852 37.3015 55.9899 37.1237C56.2946 36.8698 56.9801 36.7175 57.1325 37.3015ZM53.6287 30.8524C53.7048 30.6493 53.9587 30.6493 54.1618 30.6747C54.3396 30.7255 54.4411 30.9032 54.4157 31.0809C54.4157 31.1063 54.3904 31.1317 54.3904 31.1571C54.2634 31.3348 53.9841 31.3094 53.781 31.2841C53.5779 31.2587 53.5525 31.0048 53.6287 30.8524ZM53.5779 30.1415C53.5779 30.0907 53.6287 30.0653 53.6794 30.0399C53.8318 29.9638 54.0349 29.9638 54.1872 30.0399C54.2888 30.1161 54.3142 30.2685 54.2126 30.37C54.2126 30.37 54.2126 30.3954 54.1872 30.3954C54.0349 30.5224 53.8064 30.5477 53.6287 30.4462C53.5525 30.37 53.5271 30.2431 53.5779 30.1415ZM55.2028 30.497C54.9997 30.6239 54.7458 30.6493 54.5173 30.5731C54.365 30.4716 54.3396 30.2685 54.4411 30.1161C54.6189 29.913 54.8982 29.8368 55.1521 29.9384C55.3298 30.0146 55.3806 30.2177 55.3044 30.3954L55.2028 30.497ZM55.4567 30.827C55.6345 30.954 55.6852 31.1825 55.5583 31.3856C55.3298 31.6395 54.9489 31.7157 54.6443 31.538C54.4919 31.4364 54.4157 30.9794 54.7204 30.8778C54.9489 30.7255 55.2028 30.7255 55.4567 30.827ZM53.7302 31.5633C53.9587 31.4618 54.4157 31.3856 54.4919 31.7157C54.5935 32.1727 54.0603 32.2489 53.781 32.1727C53.5525 32.0965 53.5271 31.6395 53.7302 31.5633ZM53.7048 32.5789C53.9079 32.3758 54.2126 32.2743 54.4919 32.3758C54.6443 32.4266 54.7204 32.6043 54.7204 32.8328C54.7204 32.9344 54.6443 33.036 54.5681 33.0614C54.365 33.1375 54.1618 33.1883 53.9587 33.1629C53.7556 33.1121 53.6287 32.909 53.6794 32.7059C53.654 32.6551 53.6794 32.6297 53.7048 32.5789ZM53.8318 33.5184C54.0603 33.3406 54.3396 33.2899 54.6189 33.3406C54.7712 33.366 54.8474 33.5184 54.8728 33.6961C54.9235 34.1785 54.2888 34.2547 53.9841 34.1531C53.781 34.0262 53.7048 33.7469 53.8318 33.5438V33.5184ZM54.7712 32.2997C54.6189 31.8172 55.2282 31.6395 55.5837 31.7411C55.8376 31.7919 55.9137 32.2743 55.6852 32.4266C55.406 32.6043 54.8982 32.6551 54.7712 32.2997ZM57.2594 32.8582C57.1071 33.1121 56.6501 33.1375 56.4469 33.1121C56.2946 33.0867 56.193 32.8582 56.193 32.6551C56.193 32.5789 56.2184 32.4774 56.2946 32.452C56.5231 32.325 56.777 32.2489 57.0309 32.2743C57.2594 32.3504 57.3864 32.5789 57.3102 32.7821C57.2848 32.8075 57.2594 32.8328 57.2594 32.8582ZM57.3864 33.366C57.5133 33.5184 57.5133 33.7469 57.4118 33.8992C57.2848 34.0769 56.8278 34.1531 56.6247 34.1023C56.4977 34.0769 56.4469 33.9246 56.4215 33.823C56.3708 33.6961 56.3962 33.5438 56.4977 33.4422C56.6754 33.3152 56.904 33.2391 57.1325 33.2899C57.2086 33.2391 57.3102 33.2899 57.3864 33.366ZM57.0309 31.868C56.8786 32.1219 56.2184 32.2743 56.0661 32.0204C55.9645 31.8426 55.8884 31.5887 56.0915 31.4618C56.2946 31.3348 56.5485 31.2587 56.8024 31.3094C57.0055 31.3602 57.1325 31.6141 57.0309 31.868C57.0563 31.8426 57.0309 31.8426 57.0309 31.868ZM56.5739 31.0302C56.4723 31.1063 56.32 31.1825 56.193 31.2079C55.9899 31.2587 55.8122 31.1571 55.736 30.954V30.9032C55.6852 30.5477 56.0661 30.497 56.32 30.4462C56.4723 30.4208 56.6247 30.5224 56.6501 30.6747C56.6754 30.827 56.6501 30.954 56.5739 31.0302ZM55.0505 32.8836C55.3298 32.7313 55.9137 32.5282 56.0407 32.9598C56.0915 33.1375 56.0915 33.366 55.9391 33.4422C55.7106 33.5691 55.3552 33.6961 55.1013 33.5184C54.8474 33.3406 54.8728 32.9852 55.0505 32.8836ZM55.279 33.8992C55.5583 33.6961 56.1169 33.5691 56.2692 34.0008C56.32 34.1023 56.32 34.2293 56.2692 34.3308C56.1169 34.5847 55.7106 34.6609 55.4567 34.6101C55.2282 34.534 55.1013 34.3055 55.1774 34.0769C55.1774 34.0008 55.2282 33.9246 55.279 33.8992ZM55.5075 34.9148C55.736 34.7879 56.0915 34.6609 56.3454 34.8133C56.4977 34.9402 56.5485 35.1433 56.4977 35.3211C56.32 35.6257 55.863 35.6765 55.5837 35.6003C55.3806 35.4988 55.3044 35.2195 55.406 35.0164C55.406 34.9656 55.4567 34.9148 55.5075 34.9148ZM56.6247 34.8894C56.5739 34.7371 56.5231 34.534 56.6247 34.4324C56.8532 34.2547 57.3864 34.0769 57.5895 34.3562C57.7164 34.5594 57.6657 34.8133 57.4625 34.9402C57.234 35.0672 56.777 35.2195 56.6247 34.8894ZM58.2496 32.1981C58.3512 32.1981 58.4527 32.325 58.5289 32.4774C58.5797 32.6297 58.5543 32.7821 58.4781 32.909C58.3512 33.0106 57.9196 33.2645 57.6403 33.1121C57.5133 33.0106 57.4371 32.8836 57.4371 32.7059C57.3864 32.325 57.9449 32.1727 58.2496 32.1981ZM58.1227 31.5633C58.1988 31.6903 58.1988 31.8172 58.1481 31.9442C57.9703 32.1473 57.691 32.2489 57.4118 32.1727C57.234 32.0711 57.2086 31.8426 57.3102 31.6649C57.4879 31.4618 57.7418 31.3856 57.9957 31.4364C58.0465 31.4364 58.0719 31.5126 58.1227 31.5633ZM57.6403 30.5224C57.8688 30.5477 57.9196 30.8778 57.8688 31.0048C57.818 31.1063 57.7418 31.1825 57.6403 31.2333C57.4879 31.3348 57.2848 31.3348 57.1071 31.2841C56.9547 31.1825 56.904 30.9794 56.9801 30.827C57.1325 30.5985 57.3864 30.4716 57.6403 30.5224ZM57.3864 30.0653C57.4371 30.2431 57.3102 30.3446 57.1579 30.4208C57.0055 30.497 56.8024 30.5731 56.7008 30.4716C56.5739 30.37 56.5231 30.1669 56.6501 30.0399L56.6754 30.0146C56.8786 29.8114 57.234 29.6591 57.3864 30.0653ZM56.777 29.2783C56.8786 29.2783 56.9293 29.3544 56.9547 29.456C56.9801 29.5575 56.9293 29.6591 56.8532 29.7353C56.7516 29.8114 56.6247 29.8368 56.4977 29.8622C56.3454 29.8622 56.2438 29.7353 56.2692 29.5829C56.2692 29.5575 56.2692 29.5322 56.2946 29.5068C56.3962 29.329 56.5739 29.2529 56.777 29.2783ZM56.3962 28.7705C56.4977 28.7958 56.5485 28.872 56.5231 28.9736V28.999C56.4723 29.0751 56.4215 29.1259 56.3454 29.1513C56.193 29.2529 56.0661 29.2021 56.0153 29.1005C55.9138 28.8974 56.2184 28.6943 56.3962 28.7705ZM56.193 29.7861C56.32 29.8876 56.3454 30.0653 56.2692 30.1923C56.1423 30.3192 55.9899 30.3954 55.8376 30.3954C55.7106 30.4208 55.5837 30.3446 55.5329 30.2177C55.5075 30.1161 55.5075 29.9638 55.5837 29.8876C55.7106 29.6845 55.9645 29.6591 56.193 29.7861ZM55.9391 29.1767C56.0407 29.329 55.8884 29.4814 55.8122 29.5321C55.6599 29.6337 55.4313 29.6845 55.3298 29.5321C55.2536 29.4052 55.3044 29.2275 55.4313 29.1513C55.4567 29.1513 55.4567 29.1259 55.4821 29.1259C55.6091 29.0497 55.7868 28.9482 55.9137 29.1767H55.9391ZM55.0759 28.6689C55.1521 28.4912 55.3806 28.3896 55.5583 28.4658C55.6091 28.4912 55.6599 28.5419 55.6852 28.6181C55.7106 28.7451 55.6599 28.872 55.5583 28.9228C55.4567 29.0244 55.279 29.0497 55.1521 28.999C55.0251 28.9482 54.9743 28.8212 55.0251 28.6943V28.6689H55.0759ZM55.1521 29.4306C55.1267 29.5575 54.9997 29.6591 54.8728 29.6845C54.7204 29.7099 54.5173 29.7353 54.4157 29.6337C54.3142 29.5575 54.3142 29.4306 54.365 29.329C54.4919 29.1513 54.7204 29.0751 54.9489 29.1005C55.0759 29.1259 55.1774 29.2783 55.1521 29.4306ZM54.2126 28.6943C54.2888 28.4912 54.5173 28.3642 54.7204 28.4404C54.8474 28.5166 54.8982 28.6689 54.822 28.7705C54.7966 28.7958 54.7966 28.8212 54.7712 28.8466C54.695 28.9228 54.6189 28.9482 54.5173 28.9736C54.3142 29.0244 54.1111 28.9228 54.2126 28.6943ZM54.0857 29.7861C53.9079 29.8368 53.6287 29.8622 53.5779 29.6591C53.4763 29.329 53.8826 29.2782 54.1111 29.3544C54.2126 29.4306 54.2634 29.5575 54.1872 29.6845C54.1618 29.7353 54.1111 29.7607 54.0857 29.7861ZM53.5525 28.9482C53.5779 28.8974 53.6287 28.8466 53.6794 28.8212C53.781 28.7958 53.8826 28.7958 53.9587 28.8212C54.1365 28.8974 54.1111 29.1005 53.9333 29.1767C53.8572 29.2021 53.7556 29.2275 53.654 29.2021C53.5525 29.1767 53.4763 29.1005 53.5017 28.9736C53.5017 28.9482 53.5017 28.9482 53.5271 28.9228L53.5525 28.9482ZM53.0193 29.329C53.1462 29.2783 53.2986 29.3036 53.4001 29.3798C53.5271 29.5068 53.4255 29.7099 53.197 29.7099C53.1209 29.7099 53.0447 29.6845 52.9685 29.6591C52.8923 29.6083 52.867 29.4814 52.9177 29.3798C52.9431 29.3544 52.9431 29.329 52.9685 29.329H53.0193ZM52.867 29.913C53.0193 29.8622 53.197 29.8622 53.324 29.9384C53.4001 29.9892 53.4509 30.0653 53.4255 30.1669C53.4001 30.2685 53.2732 30.3446 53.1209 30.3446C52.9939 30.3446 52.8416 30.3446 52.7654 30.2177C52.6892 30.1161 52.7146 29.9638 52.8162 29.8876L52.867 29.913ZM53.3748 30.6239C53.4509 30.6493 53.4763 30.7255 53.5017 30.7763C53.5271 30.954 53.5017 31.1317 53.324 31.1571C53.0701 31.2079 52.7146 31.2079 52.7146 30.8778C52.6892 30.497 53.0701 30.497 53.3748 30.6239ZM52.6638 31.411C52.8923 31.3094 53.2732 31.2841 53.4255 31.5126C53.5271 31.6649 53.5017 31.9442 53.324 31.995C53.1462 32.0458 52.6638 32.1219 52.5369 31.8426C52.4607 31.6903 52.5115 31.5126 52.6638 31.411ZM52.5115 32.3504C52.7146 32.1473 52.9939 32.2489 53.2478 32.2743C53.2986 32.2743 53.3494 32.2997 53.4001 32.3504C53.5525 32.5028 53.5779 32.7567 53.4255 32.909L53.4001 32.9344C53.1716 33.1121 52.8923 32.9852 52.6384 32.9852C52.5623 32.9598 52.5115 32.909 52.4607 32.8328C52.3845 32.6805 52.4099 32.5028 52.5115 32.3504ZM52.5115 33.4676C52.6384 33.1629 53.1462 33.1629 53.4001 33.2899C53.5779 33.4168 53.6287 33.6961 53.5017 33.8738C53.4763 33.8992 53.4509 33.95 53.4001 33.9754C53.1716 34.0769 52.9177 34.0769 52.6892 34.0262C52.4353 33.9754 52.4099 33.6707 52.5115 33.4676ZM52.6892 34.7625C52.5877 34.6609 52.6131 34.5086 52.7146 34.407L52.7654 34.3562C53.0193 34.2547 53.2986 34.2293 53.5525 34.3055C53.7048 34.3562 53.781 34.5594 53.7556 34.7879C53.7556 34.8894 53.7302 34.991 53.6794 35.0164C53.4763 35.1179 53.2478 35.1433 53.0193 35.0925C52.8416 35.0672 52.7908 34.864 52.6892 34.7625ZM53.7302 36.032C53.5271 35.8542 53.3748 35.6511 53.2732 35.4226C53.2224 35.3718 53.2732 35.3464 53.2986 35.3464C53.6794 35.2449 53.9587 35.4226 53.9079 35.8542C53.8826 35.9304 53.8318 36.1081 53.7302 36.032ZM53.9841 34.6355C54.0095 34.534 54.1111 34.4832 54.2126 34.4578C54.4665 34.407 54.7458 34.3055 54.9743 34.4578C55.0759 34.5086 55.0759 34.5847 55.0759 34.7117C55.1013 34.8894 55.0759 35.0418 54.9489 35.1179C54.7204 35.2449 54.4411 35.2703 54.1872 35.2195C53.9587 35.1433 53.9333 34.8386 53.9841 34.6355ZM54.2888 35.5496C54.5935 35.3464 55.1774 35.1941 55.279 35.7527C55.3298 35.9304 55.2282 36.1335 55.0505 36.2097C54.822 36.3113 54.5935 36.3367 54.3396 36.2859C54.1365 36.1589 54.0603 35.905 54.1872 35.7019C54.238 35.6257 54.2634 35.575 54.2888 35.5496ZM54.2126 36.8191C54.1872 36.7683 54.1618 36.6667 54.1872 36.6159C54.4411 36.4636 54.7458 36.3874 55.0505 36.4382C55.406 36.4636 55.4821 36.7937 55.4313 37.073C55.3552 37.4538 54.7966 37.5046 54.6443 37.4538C54.4919 37.403 54.3904 37.0476 54.2126 36.8191ZM54.8982 37.9362C54.8728 37.8854 54.7966 37.7331 54.8474 37.7077C55.3044 37.5554 55.6598 37.5554 55.736 38.0378C55.8122 38.3932 55.5583 38.6979 55.2282 38.571C55.1267 38.5202 55.0251 38.1647 54.8982 37.9362ZM55.8376 39.6627C55.5837 39.4596 55.5583 39.1042 55.3806 38.8503C55.5583 38.7233 55.8376 38.7741 55.9645 38.9518C55.9645 38.9772 55.9899 38.9772 55.9899 39.0026C56.0661 39.2057 56.1169 39.485 55.9391 39.612C55.9137 39.6373 55.863 39.6881 55.8376 39.6627ZM56.2184 40.5514C56.1169 40.5006 56.1169 40.3483 56.0661 40.2721C56.0153 40.1705 55.9391 40.069 55.9645 39.942C56.1676 40.069 56.2692 40.3229 56.2184 40.5514ZM56.7008 39.8405C56.6754 39.9928 56.6247 40.1198 56.5739 40.2721C56.5485 40.3483 56.4977 40.2467 56.4977 40.2467C56.3962 40.0436 56.3708 39.8151 56.4215 39.5866C56.4977 39.4596 56.6247 39.3581 56.777 39.3581C56.777 39.5358 56.7516 39.6881 56.7008 39.8405ZM57.1071 38.3932C57.0309 38.5964 57.0055 38.7487 56.9293 38.9264C56.8532 39.1042 56.5485 39.1549 56.3708 39.1042C56.1169 39.028 55.9137 38.4694 56.193 38.2663C56.3962 38.1393 56.6501 38.0378 56.904 38.0378C56.9801 38.0378 57.0563 38.0378 57.1325 38.0632C57.1832 38.1647 57.1579 38.2409 57.1071 38.3932ZM57.4879 37.1237C57.4118 37.2253 57.234 36.8698 57.2086 36.7175C57.1325 36.2605 57.5387 36.1335 57.8942 36.1335C57.8434 36.489 57.691 36.8445 57.4879 37.1237ZM58.0465 35.7019C57.9449 35.9812 57.6403 36.0066 57.3864 36.0574C57.2848 36.0574 57.2086 36.0574 57.1325 35.9812C57.0055 35.8796 56.9293 35.7019 56.9547 35.5496C56.9801 35.4226 57.0563 35.3211 57.1832 35.2703C57.3864 35.1941 57.6403 35.0418 57.8688 35.1687C58.0211 35.2957 58.0973 35.5242 58.0465 35.7019ZM58.9098 34.3562C58.7574 34.6101 58.6051 34.8386 58.4527 35.0672C58.3766 35.1433 58.2242 35.1433 58.1481 35.0672C58.1227 35.0418 58.1227 35.0418 58.1227 35.0164C58.0211 34.864 57.8942 34.6863 57.9957 34.534C58.2242 34.2801 58.5543 34.1531 58.8844 34.2039C58.859 34.1785 58.9605 34.2547 58.9098 34.3562Z" fill="#A1ACC6"/>
<path d="M43.1425 25.4444C42.7109 25.8253 42.3808 26.2823 42.1269 26.7647C41.873 27.1963 41.7207 27.6533 41.6445 28.1357C42.7363 27.7041 43.6503 26.8662 44.4628 25.9014C45.0722 25.1905 45.5292 24.2765 46.1385 23.5656C45.0214 23.9718 43.9804 24.6065 43.1425 25.4444Z" fill="#A1ACC6"/>
<path d="M39.9665 26.9425C40.3981 26.2061 40.9567 25.5206 41.5914 24.962C41.3121 25.5968 40.9567 26.2315 40.8297 26.9932C40.5758 28.5166 40.3727 29.583 40.1188 30.9541C40.8043 30.4717 41.5407 29.6846 42.2516 29.1514C42.8102 28.7451 43.3941 28.4658 43.9527 28.0596C44.2574 27.8057 44.5621 27.5264 44.816 27.2217C44.4859 28.669 43.2164 30.1162 42.3024 30.8017C41.1598 31.665 40.7536 31.7919 38.9255 33.6454C38.7224 31.3857 38.7732 28.999 39.9665 26.9425Z" fill="#A1ACC6"/>
<path d="M36.2616 34.5593C36.3378 33.4421 36.4901 32.3504 36.7694 31.2586C36.9725 30.4461 37.4041 29.2274 38.0389 28.745C37.9627 29.0751 37.9119 29.4305 37.8865 29.786C37.7596 31.0047 37.9881 32.4265 38.0135 33.6706C38.0389 34.2038 38.0135 34.7624 37.9373 35.2956C37.8865 35.7272 37.8865 36.1842 37.9119 36.6159C38.1404 36.362 38.3436 36.0827 38.5213 35.778C38.9021 35.1179 39.3592 34.4831 39.867 33.9245C40.5271 33.239 41.238 32.6043 42.0251 32.0711C41.8474 32.5535 41.6189 33.0359 41.3396 33.4675C41.1111 33.8738 41.0095 34.2292 40.4763 35.1179C39.7146 36.362 39.3845 36.5397 38.5467 37.8854C38.369 38.1647 37.6326 39.2818 37.4549 39.6119C37.0741 38.7994 36.9217 38.0885 36.4393 36.7682C36.2362 36.0573 36.16 35.321 36.2616 34.5593Z" fill="#A1ACC6"/>
<path d="M35.0935 40.7545C34.6872 39.6373 34.408 38.444 34.281 37.2507C34.1541 36.4128 34.2302 35.5749 34.4841 34.7625C34.5603 34.9402 34.6872 35.3972 34.7126 35.448C34.865 36.0066 35.0427 36.5651 35.2712 37.0983C35.4997 37.5807 35.7536 38.0378 36.0329 38.4948C36.2868 38.9772 36.4899 39.485 36.6931 39.9928C37.277 41.44 37.3278 42.8111 37.5563 42.9634C37.6833 42.6841 37.7594 42.4048 37.7848 42.1001C37.9625 40.4752 38.1657 39.028 40.1969 37.1237C40.3746 37.6823 40.2984 38.7233 40.1715 39.2819C39.9937 40.3228 39.6637 41.3384 39.1813 42.2779C38.902 42.9126 38.5211 43.8267 38.4196 44.1313C38.1403 44.9184 38.0641 45.3247 37.8864 45.8071C36.9723 44.2329 35.779 42.5572 35.0935 40.7545Z" fill="#A1ACC6"/>
<path d="M36.667 48.1176C36.1085 47.3559 35.6514 46.5435 35.296 45.6802C34.9913 45.0201 34.7374 44.3091 34.5851 43.5728C34.4581 43.1666 34.4327 42.7096 34.4835 42.2779C35.0167 43.2428 35.3722 44.3345 36.0831 45.1216C36.6416 45.7564 37.1748 46.2896 37.6065 46.8481C38.292 47.686 38.8252 48.4477 39.4599 49.311C39.5361 48.7778 39.5107 48.27 39.4345 47.7368C39.333 46.8481 39.3584 45.9341 39.5615 45.0455C39.7392 44.0299 39.9931 43.0396 40.3486 42.0748C40.8564 43.065 40.8564 44.2076 40.9833 45.2486C41.2372 47.2798 40.6025 49.7172 40.4755 50.7328C40.4501 51.139 40.4755 51.5199 40.5009 51.9007C39.5869 51.1644 38.6982 50.4027 37.8858 49.5649C37.4541 49.1078 37.0479 48.6254 36.667 48.1176Z" fill="#A1ACC6"/>
<path d="M40.2733 55.5822C39.8417 55.2775 38.6738 54.3889 38.1152 53.678C37.3027 52.6624 37.125 52.2307 36.5918 51.0374C36.3887 50.6312 36.2617 50.1995 36.2109 49.7679C37.9375 51.8499 39.5116 52.1799 41.162 53.9065C41.7713 54.5412 42.3807 55.1506 42.7108 55.4552C42.8631 55.6076 43.0662 55.7092 43.2947 55.7599C43.2693 55.506 43.2186 55.2267 43.0916 54.9982C41.9998 52.8909 41.7713 50.6819 41.9491 48.3207C42.3299 48.8285 42.66 49.3871 42.9393 49.971C43.1932 50.4534 43.4217 50.9358 43.6248 51.4436C44.5642 53.8049 44.8181 56.5216 45.4021 57.8927C43.5994 57.2579 42.1776 56.9533 40.2733 55.5822Z" fill="#A1ACC6"/>
<path d="M47.6873 61.1172C47.0271 61.168 46.3924 61.1426 45.7323 61.0664C43.1425 60.6602 40.7558 58.7813 39.5371 56.7247C40.4258 57.3087 41.3906 57.7911 42.3808 58.172C43.244 58.4767 44.0565 58.5528 45.4784 58.9591C46.3416 59.213 47.2049 59.543 47.4842 59.67C48.449 60.0254 48.8552 59.9493 48.8552 59.9493C48.8552 59.9493 48.8552 59.7969 48.4998 59.4161C47.7888 58.629 47.5349 58.4513 46.9256 57.8673C46.5955 57.4611 46.3162 57.0294 46.0623 56.547C45.4276 55.2775 45.3514 54.2873 44.7928 52.8909C46.9002 54.135 47.9412 55.8361 49.0583 57.9942C49.3884 58.6544 49.7946 59.2891 50.2771 59.8477C50.5563 60.127 50.9626 60.5586 50.9626 60.5586C50.9626 60.5586 50.6579 60.6348 49.7439 60.7617C49.3376 60.7871 48.4744 61.0664 47.6873 61.1172Z" fill="#A1ACC6"/>
<path d="M57.8942 61.295C58.9605 61.4727 60.0015 61.7266 61.0171 62.1075C61.3472 62.2344 61.6773 62.3868 61.9819 62.5645C62.5913 62.8692 63.1753 63.1992 63.7338 63.5801C64.724 64.2656 65.7904 65.0019 66.7552 66.1191C66.7806 66.1445 66.933 66.2968 66.8314 66.3984C66.6537 66.5507 66.1713 66.7538 66.0189 66.6269C65.1303 65.8398 65.1811 65.5859 64.1147 64.6211C63.7338 64.291 63.353 63.9863 62.9214 63.6817C62.4136 63.3262 61.8804 62.9961 61.3218 62.7168C60.7886 62.4883 60.23 62.3868 59.6461 62.4122C59.4429 62.4122 58.3512 62.3868 58.0719 62.4122C55.8884 62.5645 55.9899 62.7676 54.7458 63.0977C53.6794 63.377 52.5877 63.5801 51.4959 63.7324C50.4295 63.8848 49.3631 63.9102 48.2968 63.7832C46.8495 63.6309 45.3007 63.2246 44.1074 62.4883C45.1738 62.5137 46.291 62.7168 47.3573 62.6407C47.9159 62.6153 48.4745 62.5137 49.0331 62.3868C50.0233 62.0821 50.5819 61.9805 51.6228 61.6758C52.5115 61.4473 53.4255 61.3204 54.3396 61.2442C55.5329 61.0665 56.7262 61.0919 57.8942 61.295Z" fill="#A1ACC6"/>
<path d="M77.8749 25.4444C78.3065 25.8253 78.6366 26.2823 78.8905 26.7647C79.1444 27.1963 79.2968 27.6533 79.3729 28.1357C78.2558 27.7041 77.3671 26.8662 76.5546 25.9014C75.9453 25.1905 75.4883 24.2765 74.8789 23.5656C75.9961 23.9718 77.037 24.6065 77.8749 25.4444Z" fill="#A1ACC6"/>
<path d="M81.0506 26.9425C80.619 26.2061 80.0604 25.5206 79.4257 24.962C79.705 25.6476 80.1366 26.5108 80.1874 26.9932C80.3397 28.5166 80.6444 29.583 80.8983 30.9541C80.2128 30.4717 79.4765 29.6846 78.7656 29.1514C78.207 28.7451 77.6484 28.4658 77.0644 28.0596C76.7597 27.8057 76.4551 27.5264 76.2012 27.2217C76.5566 28.669 77.8007 30.1162 78.7148 30.8017C79.8573 31.665 80.2636 31.7919 82.0916 33.6454C82.2948 31.3857 82.2694 28.999 81.0506 26.9425Z" fill="#A1ACC6"/>
<path d="M84.783 34.5593C84.7069 33.4421 84.5545 32.3504 84.2753 31.2586C84.0721 30.4461 83.6405 29.2274 83.0058 28.745C83.0819 29.0751 83.1327 29.4305 83.1581 29.786C83.285 31.0047 83.0565 32.4265 83.0058 33.6706C82.9804 34.2038 83.0058 34.7624 83.0819 35.2956C83.1327 35.7272 83.1327 36.1842 83.1073 36.6159C82.8788 36.362 82.6757 36.0827 82.498 35.778C81.8632 34.7624 81.6601 34.4831 81.1523 33.9245C80.5175 33.239 79.7812 32.6043 79.0195 32.0711C79.1973 32.5535 79.4258 33.0359 79.7051 33.4675C79.9336 33.8738 80.0351 34.2292 80.5683 35.1179C81.33 36.362 81.6601 36.5397 82.498 37.8854C82.6757 38.1647 83.412 39.2818 83.5897 39.6119C83.9706 38.7994 84.1229 38.0885 84.6053 36.7682C84.783 36.0573 84.8592 35.321 84.783 34.5593Z" fill="#A1ACC6"/>
<path d="M85.9248 40.7545C86.3564 39.6373 86.6103 38.444 86.7373 37.2507C86.8388 36.4128 86.7627 35.5749 86.5088 34.7625C86.4326 34.9402 86.2803 35.3972 86.2803 35.448C86.1279 36.0066 85.9502 36.5651 85.7217 37.0983C85.4932 37.5807 85.2393 38.0378 84.96 38.4948C84.7061 38.9772 84.503 39.485 84.2998 39.9928C83.7159 41.44 83.6651 42.8111 83.4366 42.9634C83.3096 42.6841 83.2335 42.4048 83.2081 42.1001C83.0303 40.4752 82.8272 39.028 80.796 37.1237C80.6183 37.6823 80.6945 38.7233 80.8214 39.2819C80.9992 40.3228 81.3292 41.3384 81.8116 42.2779C82.0909 42.9126 82.4718 43.8267 82.5733 44.1313C82.8526 44.9184 82.9288 45.3247 83.1065 45.8071C84.0459 44.2329 85.2393 42.5572 85.9248 40.7545Z" fill="#A1ACC6"/>
<path d="M84.3486 48.1176C84.9072 47.3559 85.3642 46.5435 85.7197 45.6802C86.0497 45.0201 86.2782 44.3091 86.4306 43.5728C86.5575 43.1666 86.5829 42.7096 86.5321 42.2779C85.999 43.2428 85.6181 44.3345 84.9326 45.1216C84.374 45.7564 83.8408 46.2896 83.4092 46.8481C82.7236 47.686 82.1905 48.4477 81.5557 49.311C81.4795 48.7778 81.5049 48.27 81.5811 47.7368C81.6827 46.8481 81.6573 45.9341 81.4542 45.0455C81.2764 44.0299 81.0225 43.0396 80.6671 42.0748C80.1593 43.065 80.1593 44.2076 80.0323 45.2486C79.7784 47.2798 80.4386 49.7172 80.5401 50.7328C80.5655 51.139 80.5401 51.5199 80.5147 51.9007C81.4288 51.1644 82.3174 50.4027 83.1299 49.5649C83.5615 49.1078 83.9678 48.6254 84.3486 48.1176Z" fill="#A1ACC6"/>
<path d="M80.744 55.5822C81.1756 55.2775 82.3436 54.3889 82.9021 53.678C83.7146 52.6624 83.8924 52.2307 84.4002 51.0374C84.6033 50.6312 84.7302 50.1995 84.781 49.7679C83.0545 51.8499 81.4803 52.1799 79.83 53.9065C79.2206 54.5412 78.6112 55.1506 78.2812 55.4552C78.1288 55.6076 77.9257 55.7092 77.7226 55.7599C77.748 55.506 77.7988 55.2267 77.9257 54.9982C79.0429 52.8909 79.246 50.6819 79.0683 48.3207C78.6874 48.8285 78.3573 49.3871 78.0781 49.971C77.8242 50.4534 77.5956 50.9358 77.3925 51.4436C76.4531 53.8049 76.1992 56.5216 75.6152 57.8927C77.4179 57.2579 78.8398 56.9533 80.744 55.5822Z" fill="#A1ACC6"/>
<path d="M73.3554 61.1172C74.0155 61.168 74.6503 61.1426 75.3104 61.0664C77.9002 60.6602 80.2868 58.7813 81.5055 56.7247C80.6169 57.3087 79.6521 57.7911 78.6619 58.172C77.7986 58.4767 76.9861 58.5528 75.5643 58.9591C74.701 59.213 73.8378 59.543 73.5585 59.67C72.5937 60.0254 72.1874 59.9493 72.1874 59.9493C72.1874 59.9493 72.1874 59.7969 72.5429 59.4161C73.2538 58.629 73.5077 58.4513 74.0917 57.8673C74.4218 57.4611 74.701 57.0294 74.9549 56.547C75.5897 55.2775 75.6659 54.2873 76.2498 52.8909C74.1425 54.135 73.1015 55.8361 71.9843 57.9942C71.6543 58.6544 71.248 59.2891 70.7402 59.8477C70.4609 60.127 70.0547 60.5586 70.0547 60.5586C70.0547 60.5586 70.3594 60.6348 71.2734 60.7617C71.6543 60.7871 72.5429 61.0664 73.3554 61.1172Z" fill="#A1ACC6"/>
<path d="M63.1241 61.295C62.0578 61.4727 61.0168 61.7266 60.0266 62.1075C59.6965 62.2344 59.3664 62.3868 59.0617 62.5645C58.4524 62.8692 57.8684 63.1992 57.3098 63.5801C56.3196 64.2656 55.2532 65.0019 54.2884 66.1191C54.263 66.1445 54.1107 66.2968 54.2123 66.3984C54.39 66.5507 54.8724 66.7538 55.0247 66.6269C55.9134 65.8398 55.8626 65.5859 56.929 64.6211C57.3098 64.291 57.6907 63.9863 58.1223 63.6817C58.6301 63.3262 59.1633 62.9961 59.7219 62.7168C60.2551 62.5137 60.8136 62.3868 61.3976 62.4122C61.6007 62.4122 62.6925 62.3868 62.9464 62.4122C65.1299 62.5645 65.0284 62.7676 66.2725 63.0977C67.3389 63.377 68.4306 63.5801 69.5224 63.7324C70.5888 63.8848 71.6551 63.9102 72.7215 63.7832C74.1434 63.6309 75.7175 63.2246 76.8855 62.4883C75.8191 62.5137 74.7019 62.7168 73.6356 62.6407C73.077 62.6153 72.5184 62.5137 71.9598 62.3868C70.9696 62.0821 70.411 61.9805 69.37 61.6758C68.4814 61.4473 67.5674 61.3204 66.6533 61.2442C65.5108 61.0665 64.2921 61.0919 63.1241 61.295Z" fill="#A1ACC6"/>
<path d="M59.2146 13.3334L57.2595 20.6203H55.1776L53.8573 15.8724L52.5878 20.6203H50.5058L48.5508 13.3334H50.5058L51.623 18.3606L52.9686 13.3334H54.8475L56.117 18.3606L57.2849 13.3334H59.2146Z" fill="#A1ACC6"/>
<path d="M65.662 14.7298H62.3105V16.0755H65.4081V17.4719H62.3105V20.5949H60.4316V13.3334H65.662V14.7298Z" fill="#A1ACC6"/>
<path d="M72.9744 15.6439C72.9744 15.9739 72.9237 16.304 72.7967 16.6087C72.6952 16.9134 72.5174 17.1673 72.3143 17.3958C72.035 17.6751 71.7049 17.9036 71.3495 18.0559C70.9179 18.2082 70.4608 18.2844 70.0292 18.2844H68.8613V20.6457H66.9824V13.3334H70.08C70.4862 13.3334 70.8671 13.3588 71.2479 13.4603C71.5526 13.5365 71.8319 13.6634 72.0858 13.8158C72.3651 13.9935 72.5936 14.2474 72.7459 14.5521C72.9237 14.8822 72.9998 15.263 72.9744 15.6439ZM71.0448 15.6692C71.0448 15.4915 70.994 15.2884 70.8925 15.1361C70.7909 15.0091 70.664 14.8822 70.5116 14.8314C70.3339 14.7552 70.1308 14.7044 69.9277 14.7044H68.8613V16.888H69.3945C69.6484 16.888 69.9277 16.8626 70.1816 16.8372C70.3847 16.8118 70.5624 16.7102 70.7147 16.6087C70.8417 16.5071 70.9179 16.3802 70.9686 16.2278C71.0194 16.0247 71.0448 15.847 71.0448 15.6692Z" fill="#A1ACC6"/>
</svg>
