<svg width="121" height="80" viewBox="0 0 121 80" fill="none" xmlns="http://www.w3.org/2000/svg">
<path d="M23.3196 28.4945C23.41 28.2536 23.3745 27.9988 23.3916 27.7515C23.5433 25.603 23.5599 23.4507 23.5169 21.2982C23.5025 20.5982 23.4443 19.8987 23.4053 19.1994C23.3906 18.9368 23.4041 18.6753 23.4588 18.4191C23.6177 17.6792 24.0492 17.3409 24.8678 17.3504C25.5683 17.3588 26.269 17.4039 26.9708 17.3763C27.6092 17.3516 28.2478 17.3233 28.8864 17.3077C29.155 17.3005 29.4228 17.3399 29.6779 17.4242C30.0302 17.5411 30.2929 17.7521 30.3933 18.127C30.4435 18.2734 30.4334 18.4263 30.4327 18.5767C30.4297 19.8905 30.4351 21.2043 30.3949 22.5182C30.3744 23.1909 30.3548 23.8638 30.3153 24.536C30.2929 24.9244 30.2516 25.3123 30.2847 25.7076C30.336 26.3149 30.3802 26.9245 30.3181 27.539C30.2693 28.0259 30.4582 28.4314 31.0024 28.5228C31.5619 28.5776 32.1155 28.5015 32.666 28.4284C33.0408 28.3782 33.2404 28.0884 33.27 27.6535C33.3443 26.5617 33.3342 25.4692 33.3252 24.3755C33.3095 22.4698 33.3177 20.5634 33.3195 18.6572C33.3195 18.4441 33.352 18.2322 33.4216 18.0298C33.6282 17.4265 34.1192 17.2502 34.6852 17.2264C35.172 17.207 35.6621 17.2415 36.1441 17.3091C36.6087 17.3747 37.0625 17.3141 37.5211 17.2778C38.0817 17.2343 38.6384 17.1185 39.2055 17.2117C39.7196 17.2967 40.1252 17.518 40.3351 18.0203C40.4301 18.3816 40.484 18.7504 40.4532 19.1211C40.3806 19.9904 40.3465 20.862 40.3134 21.7327C40.2797 22.618 40.2372 23.5032 40.2868 24.3916C40.3328 25.2147 40.3169 26.0412 40.3264 26.8656C40.3512 28.9579 40.3334 31.0502 40.343 33.1418C40.3483 34.3512 40.2485 35.5576 40.2844 36.768C40.3252 38.1645 40.2956 39.5619 40.3087 40.9589C40.3199 42.1825 40.2255 43.4048 40.2886 44.6295C40.3134 45.11 40.3512 45.5891 40.4019 46.0666C40.4509 46.527 40.4675 46.9826 40.3754 47.4376C40.2466 48.0762 39.8431 48.457 39.2505 48.5318C38.6797 48.6037 38.1102 48.5518 37.5424 48.515C36.84 48.4692 36.1431 48.4863 35.4437 48.5535C34.9945 48.5965 34.542 48.6621 34.0933 48.5365C33.5875 48.3871 33.4003 47.9927 33.3172 47.5218C33.2068 46.9021 33.2091 46.2759 33.2464 45.652C33.3277 44.2746 33.4447 42.9006 33.3702 41.5172C33.3066 40.336 33.4045 39.1552 33.4718 37.9759C33.5072 37.3527 33.4641 36.7443 33.3095 36.141C33.2735 35.7503 33.0139 35.5544 32.6697 35.4851C32.0795 35.366 31.4817 35.3844 30.8943 35.5131C30.5191 35.5957 30.3332 35.8283 30.3059 36.2136C30.2557 36.9259 30.2032 37.639 30.185 38.3525C30.1661 39.095 30.2812 39.8315 30.3538 40.5693C30.4488 41.5254 30.3643 42.4792 30.3237 43.4329C30.29 44.2363 30.245 45.0384 30.3148 45.8416C30.3638 46.4099 30.4128 46.9789 30.3851 47.5502C30.3603 48.0638 30.0628 48.4391 29.5919 48.557C29.3834 48.6089 29.1698 48.6278 28.9568 48.6039C27.8034 48.472 26.6491 48.5319 25.4959 48.5888C25.0254 48.6117 24.5652 48.6081 24.1071 48.4948C23.5617 48.3031 23.3581 47.8882 23.3616 47.3428C23.374 45.4034 23.3917 43.4647 23.4001 41.5252C23.4018 41.0926 23.3747 40.6599 23.3611 40.2273C23.3599 40.1938 23.3628 40.157 23.3198 40.1446V38.74C23.3151 38.3421 23.3894 37.9468 23.3529 37.5485C23.3571 36.8532 23.3445 36.1579 23.3695 35.4639C23.412 34.254 23.4101 33.0446 23.3536 31.8351C23.3884 31.4912 23.3067 31.1512 23.3198 30.8083L23.3196 28.4945Z" fill="#A1ACC6"/>
<path d="M68.196 64.833C68.288 64.8397 68.3849 64.8748 68.4916 64.8213C68.3942 64.7955 68.2912 64.7996 68.196 64.833ZM76.5728 64.8136L76.5627 64.7751C76.2345 64.7559 75.9064 64.7363 75.5788 64.7169C75.786 64.7783 75.9954 64.7995 76.2056 64.8119C76.3277 64.8203 76.4505 64.8136 76.5728 64.8136ZM79.0522 64.7293C78.8993 64.746 78.747 64.7624 78.5948 64.7788C78.7477 64.8012 78.8999 64.8407 79.0492 64.7771C79.0876 64.7771 79.126 64.7771 79.1643 64.7765C79.185 64.7949 79.2028 64.7898 79.2186 64.7698C79.3833 64.7631 79.5479 64.7614 79.712 64.7509C81.0034 64.6629 82.293 64.5337 83.5884 64.5083H84.3196C84.0747 64.5016 83.8375 64.4027 83.5902 64.4424C83.4326 64.4357 83.275 64.4256 83.1174 64.4211C82.3632 64.3975 81.6089 64.3184 80.8564 64.4345C80.2539 64.5265 79.6535 64.6301 79.0522 64.7293ZM68.9698 64.7656C69.6065 64.7589 70.2376 64.6605 70.8732 64.6281C71.2958 64.6063 71.7177 64.5702 72.1975 64.5372C72.0831 64.5272 72.024 64.5183 71.9656 64.5183C71.088 64.52 70.2174 64.621 69.3464 64.7102C69.2224 64.7219 69.0842 64.6759 68.9716 64.7686H68.6016C68.726 64.7999 68.853 64.8425 68.9698 64.7656ZM77.3949 66.629C75.9424 66.6256 74.4899 66.6223 73.0374 66.6206C70.4352 66.6173 67.833 66.6256 65.2308 66.6072C61.1013 66.5759 56.9711 66.5883 52.8413 66.5795C51.4715 66.5761 50.1016 66.5801 48.7317 66.5677C44.6023 66.5294 40.4721 66.5488 36.3423 66.5388C34.986 66.5355 33.6298 66.5421 32.274 66.5254C29.3832 66.4906 26.4924 66.5137 23.6017 66.4976C23.4912 66.4971 23.385 66.5219 23.3909 66.3407C23.3952 66.2074 23.463 66.2009 23.5556 66.1973C24.1947 66.1749 24.8335 66.1495 25.4726 66.1301C26.8821 66.0876 28.2914 66.0486 29.7014 66.0351C30.3753 66.0284 31.0489 66.0217 31.7228 66.0367C32.5479 66.0563 33.3737 66.0267 34.1988 66.025C35.7268 66.0217 37.2542 66.0439 38.7817 66.0635C39.3937 66.0719 40.0047 66.104 40.6165 66.1205C40.8432 66.1272 41.071 66.1323 41.2971 66.1139C41.7822 66.0749 42.2607 65.9922 42.7932 65.8495C42.4374 65.8328 42.1434 65.8177 41.8488 65.8059C40.6053 65.7568 39.3624 65.7071 38.1189 65.6595C36.8062 65.6093 35.4924 65.5934 34.1793 65.574C32.8171 65.5539 31.4549 65.5054 30.0933 65.5623C29.44 65.5894 28.7878 65.5835 28.135 65.58C26.951 65.5733 25.7672 65.5884 24.5832 65.5917C24.4126 65.5917 24.2374 65.6084 24.0686 65.4796C24.3264 65.3981 24.582 65.3781 24.8317 65.3568C25.6397 65.2877 26.4488 65.2252 27.2585 65.1827C28.6797 65.1077 30.1016 65.0458 31.5233 64.9856C32.7396 64.9342 33.9574 64.926 35.1749 64.9265C35.7002 64.9277 36.2243 64.9873 36.7502 64.9667C38.146 65.0169 39.5394 65.1567 40.9389 65.1047C39.6711 64.9602 38.3981 64.93 37.1237 64.9264C37.0511 64.8797 36.9769 64.885 36.9019 64.918C36.8505 64.9187 36.7999 64.9193 36.7483 64.9197C36.2248 64.8583 35.6997 64.8937 35.1749 64.8937L30.6728 64.8887C30.2397 64.8882 29.807 64.8854 29.3596 64.8415C29.4199 64.7495 29.5067 64.7719 29.5791 64.7659C30.4162 64.6998 31.2555 64.6923 32.094 64.6744C33.7662 64.6396 35.4382 64.6378 37.1102 64.6343C38.6862 64.6309 40.2606 64.6711 41.8348 64.7386C43.5046 64.8092 45.1755 64.8483 46.8468 64.8561C47.9203 64.8611 48.9939 64.8594 50.0668 64.836C51.3316 64.8071 52.5952 64.7356 53.8595 64.6961C54.8633 64.6649 55.8673 64.6532 56.8713 64.6343C58.3569 64.606 59.8429 64.581 61.3278 64.5506C62.4899 64.5262 63.6521 64.5044 64.8135 64.4666C66.1745 64.4218 67.535 64.3758 68.8948 64.309C70.1165 64.2495 71.3406 64.2222 72.5636 64.1792C74.3995 64.1158 76.2367 64.0927 78.0736 64.1101C80.1776 64.129 82.2812 64.1921 84.3822 64.3114C85.5503 64.3783 86.7194 64.3805 87.888 64.4111C89.0839 64.4424 90.2807 64.4618 91.4736 64.5628C92.013 64.6083 92.5584 64.5369 93.0947 64.6414C93.2068 64.6632 93.3273 64.6615 93.4153 64.7847C92.635 64.7641 91.8565 64.7003 91.0769 64.8014C90.2943 64.9018 89.507 64.975 88.7166 65.0328C90.355 65.1945 91.9798 65.4413 93.5971 65.7635C93.2565 65.7416 92.9166 65.7222 92.5766 65.6986C91.6924 65.6367 90.8082 65.5688 89.9237 65.5102C88.6683 65.4271 87.4129 65.3491 86.1576 65.2707C85.993 65.2606 85.8277 65.2623 85.6624 65.259C85.1413 65.1934 84.6184 65.184 84.0936 65.1982C84.5641 65.2049 85.028 65.2956 85.4978 65.2979C86.3967 65.364 87.2896 65.4826 88.1789 65.6155C89.0578 65.7465 89.9406 65.8095 90.8236 65.8805C91.804 65.9596 92.7844 66.0304 93.7648 66.0995C93.8886 66.1078 93.9341 66.1497 93.9239 66.2748C93.9138 66.4046 93.9205 66.5361 93.9205 66.6666H85.6584C85.5881 66.5999 85.5015 66.633 85.4228 66.633C84.0744 66.628 82.7261 66.6246 81.3777 66.623C80.0498 66.623 78.7229 66.6256 77.3949 66.629Z" fill="#A1ACC6"/>
<path d="M47.6112 13.3334C47.7735 13.4384 47.813 13.5965 47.7983 13.7761C47.7497 14.3462 47.7989 14.9175 47.7765 15.4875C47.7742 15.5578 47.7723 15.6328 47.8515 15.6635C47.9217 15.6913 47.9612 15.6281 48.0065 15.5898C48.5975 15.0946 49.7612 15.1814 50.2683 15.7604C50.5025 16.0281 50.5763 16.3587 50.5775 16.6993C50.5798 17.3657 50.5621 18.0327 50.5499 18.6989C50.534 19.573 50.5587 20.4465 50.5622 21.32C50.5639 21.67 50.5652 22.02 50.5656 22.37C50.5662 22.6798 50.453 22.8008 50.1413 22.786C49.7094 22.7654 49.2767 22.7654 48.8447 22.786C48.5921 22.7994 48.5207 22.7211 48.5207 22.4739C48.5188 21.0977 48.5193 19.7215 48.5223 18.3454C48.523 18.1051 48.5591 17.8649 48.5531 17.6253C48.5466 17.3337 48.438 17.2146 48.2255 17.2174C47.9754 17.2208 47.8408 17.3603 47.8148 17.636C47.7345 18.5018 47.8136 19.3676 47.8202 20.2329C47.8249 20.8714 47.7365 21.51 47.8172 22.148C47.8319 22.2636 47.8496 22.38 47.8531 22.4963C47.8598 22.6934 47.767 22.7977 47.5727 22.7954C47.1125 22.7887 46.6539 22.7837 46.1935 22.8121C45.8914 22.8305 45.7945 22.7372 45.7803 22.4309C45.7662 22.1158 45.787 21.7988 45.787 21.4831C45.7881 19.9491 45.7917 18.4151 45.7851 16.8813C45.7828 16.3317 45.8022 15.7828 45.8099 15.2341C45.8143 14.7663 45.8077 14.2985 45.7903 13.8311C45.7838 13.6263 45.8221 13.4547 45.9999 13.3342L47.6112 13.3334Z" fill="#A1ACC6"/>
<path d="M96.6037 46.6257C96.1269 46.6274 95.7445 47.0142 95.7445 47.494C95.745 47.9869 96.1309 48.3728 96.6191 48.3693C97.0919 48.366 97.4732 47.9691 97.4667 47.4886C97.46 47.0018 97.0824 46.624 96.6037 46.6257ZM97.6796 47.7868C97.61 47.8002 97.6241 47.8676 97.6065 47.9096C97.413 48.3593 96.9184 48.639 96.4587 48.5528C95.9079 48.4496 95.5415 48.0571 95.5315 47.5607C95.5214 47.0118 95.8383 46.578 96.3335 46.4648C96.8605 46.3443 97.3711 46.5805 97.5913 47.0431C97.6179 47.0992 97.608 47.1765 97.6798 47.2084L97.6796 47.7868Z" fill="#A1ACC6"/>
<path d="M66.7327 41.4104C67.3412 41.6464 67.8931 41.4188 68.1605 40.8238C68.2843 40.5488 68.3344 40.2595 68.3298 39.9621C68.3186 39.2203 68.2702 38.4794 68.2354 37.7376C68.1534 35.9847 67.9349 34.2489 67.5997 32.5279C67.4822 31.9241 67.3618 31.3163 67.0643 30.765C66.9293 30.5 66.7232 30.3041 66.4737 30.1489C65.9666 29.8325 65.5623 29.9163 65.2123 30.3978C64.8057 30.9568 64.7479 31.5853 64.8174 32.244C64.8693 32.735 64.9185 33.226 64.9638 33.7179C65.0134 34.2573 65.0411 34.7985 65.1072 35.336C65.1959 36.0561 65.3068 36.7745 65.4177 37.4915C65.5688 38.4659 65.7056 39.4433 65.9512 40.4006C66.0657 40.8462 66.3173 41.1939 66.7327 41.4104ZM60.8737 49.2406C60.27 49.0234 60.0847 48.5212 60.0522 47.9557C59.9689 46.5069 59.769 45.0714 59.606 43.6313C59.4165 41.9581 59.1225 40.3008 58.9054 38.6324C58.805 37.8621 58.7508 37.0865 58.6889 36.3122C58.6221 35.4824 58.4876 34.6621 58.373 33.8387C58.16 32.2942 57.9175 30.7537 57.7664 29.2011C57.6111 27.6139 57.4565 26.0269 57.2476 24.4457C57.0918 23.2676 56.9695 22.085 56.8143 20.9063C56.7435 20.3698 56.6338 19.8373 56.5315 19.3056C56.3693 18.4599 56.7937 18.1519 57.5651 18.087C58.2161 18.0326 58.8684 18.0008 59.5204 17.9665C60.0812 17.9376 60.6082 17.7422 61.1552 17.649C61.4457 17.5995 61.7272 17.5021 62.0269 17.5044C62.5836 17.5078 62.9017 17.7239 63.1111 18.2504C63.2099 18.6245 63.2122 19.0088 63.2316 19.3918C63.2559 19.8776 63.2605 20.368 63.3296 20.8484C63.5137 22.128 63.7763 23.3969 63.8466 24.6923C63.8543 24.8312 63.8566 24.9898 64.0054 25.0454C64.1718 25.1079 64.3442 25.0837 64.4793 24.9433C64.569 24.8695 64.6659 24.8016 64.7479 24.7196C65.5298 23.94 66.4955 23.5575 67.5695 23.4117C68.2354 23.3213 68.9004 23.3113 69.5579 23.4677C70.4001 23.6678 71.0896 24.1229 71.6567 24.7698C71.7199 24.8417 71.7825 24.9137 71.8449 24.9856C71.8745 25.0183 71.8804 25.079 71.9453 25.0659L71.9436 25.0643C71.9316 25.1099 71.9453 25.1389 71.9955 25.1441L71.9913 25.139C71.9972 25.165 71.9947 25.1963 72.0084 25.2158C72.8139 26.365 73.2767 27.6611 73.6496 28.9972C73.9956 30.2349 74.2286 31.495 74.4341 32.7621C74.6311 33.9774 74.7647 35.1967 74.7976 36.4273C74.8088 36.8575 74.8373 37.2861 74.8737 37.7145C74.9641 38.7863 75.0661 39.8575 75.1163 40.9317C75.1548 41.7473 75.156 42.5666 75.0077 43.3787C74.7273 44.9202 74.0675 46.2499 72.8742 47.2922C72.0651 47.9994 71.109 48.3545 70.0541 48.4414C69.3896 48.4962 68.7333 48.4007 68.097 48.1834C67.7258 48.0571 67.386 47.8747 67.0554 47.6694C66.8819 47.5614 66.7585 47.5821 66.7083 47.735C66.6657 47.8637 66.6364 47.9964 66.621 48.131C66.5815 48.4869 66.4598 48.6428 66.111 48.6947C65.5044 48.785 64.8887 48.789 64.2779 48.8511C63.5167 48.9279 62.7675 49.0606 62.0222 49.2205C61.6391 49.3025 61.259 49.3789 60.8737 49.2406ZM49.8797 37.4174L49.8827 37.4224C49.5268 36.6157 48.563 36.4191 47.9415 37.0283C47.4458 37.5145 47.3012 38.1378 47.2877 38.7983C47.2732 39.5277 47.2732 40.2573 47.2877 40.9866C47.2965 41.4547 47.3596 41.9185 47.5336 42.3583C47.6741 42.7137 47.8782 43.0163 48.2597 43.155C48.8315 43.3641 49.3622 43.2087 49.7227 42.7254C49.9807 42.3796 50.1176 41.9864 50.1243 41.5579C50.14 40.5327 50.1477 39.5077 50.153 38.4825C50.1554 38.1218 50.0923 37.7724 49.917 37.4502C49.9046 37.4402 49.892 37.4281 49.8797 37.4174ZM51.3062 48.612C51.0648 48.6053 50.8194 48.6087 50.6718 48.3636C50.6588 48.1995 50.6422 48.0355 50.634 47.8707C50.6252 47.7019 50.6163 47.5214 50.4481 47.4406C50.2859 47.3619 50.182 47.5162 50.0834 47.6087C49.528 48.1317 48.9123 48.5389 48.1464 48.6794C47.5408 48.7902 46.934 48.8009 46.3208 48.746C45.4693 48.6692 44.6813 48.4256 43.9671 47.951C43.9075 47.912 43.8562 47.8413 43.767 47.8714L43.7688 47.8725C43.7836 47.7964 43.724 47.7941 43.6768 47.7789C43.1433 47.3261 42.6971 46.802 42.363 46.1835C41.8094 45.1571 41.5161 44.0492 41.3314 42.9072C41.1348 41.695 41.0853 40.4733 41.1353 39.2492C41.1986 37.7159 41.3667 36.1973 41.9488 34.7578C42.6912 32.9217 44.0156 31.756 45.961 31.324C47.1691 31.056 48.3241 31.2077 49.4 31.8257C50.0568 32.2028 50.5367 31.6445 50.4594 31.1045C50.4087 30.751 50.358 30.3998 50.2079 30.0711C50.0085 29.613 49.629 29.3858 49.1668 29.2831C48.2798 29.0853 47.3839 29.0806 46.4891 29.2123C45.8552 29.3055 45.2297 29.4572 44.6856 29.8066C44.293 30.0587 43.9117 30.136 43.4851 29.9371C43.4449 29.9116 43.406 29.8822 43.3635 29.8609C42.9486 29.6538 42.752 29.3169 42.7354 28.8548C42.7237 28.5384 42.7148 28.2226 42.7384 27.9069C42.7858 27.2671 42.7195 26.629 42.719 25.9904C42.7183 25.2321 42.9238 24.8904 43.6315 24.6182C44.816 24.1632 46.0317 23.844 47.3171 23.8599C48.17 23.8699 49.0236 23.776 49.8751 23.8316C51.4304 23.932 52.959 24.1704 54.3814 24.8591C54.9586 25.1389 55.4538 25.525 55.8379 26.0443C56.014 26.315 56.1543 26.6075 56.2552 26.9143C56.5274 27.7404 56.5734 28.598 56.6082 29.4551C56.6348 30.1214 56.6123 30.7883 56.5904 31.4558C56.5598 32.39 56.578 33.3256 56.6077 34.261C56.6448 35.4438 56.5888 36.6271 56.5846 37.8099C56.5775 39.7917 56.5402 41.7731 56.61 43.7549C56.6329 44.394 56.6284 45.034 56.5764 45.6719C56.525 46.3105 56.5446 46.9504 56.5327 47.5895C56.5227 48.1332 56.2157 48.4524 55.688 48.5374C55.2743 48.6042 54.8654 48.5362 54.454 48.5341C53.8495 48.5307 53.2441 48.4904 52.6396 48.5016C52.1946 48.51 51.7506 48.573 51.3062 48.612ZM92.9334 42.0291C93.5724 41.9672 93.7667 42.0851 94.0074 42.6805C94.0469 42.8979 94.0588 43.1167 94.0543 43.3375C94.0409 44.0039 94.0063 44.6707 94.0181 45.3371C94.0315 46.0588 94.0613 46.7801 94.0471 47.502C94.0387 47.951 93.7041 48.4723 93.0963 48.4154C93.0006 48.4071 92.9039 48.4149 92.8077 48.4087C92.1838 48.3704 91.5582 48.3715 90.9344 48.4121C90.64 48.4312 90.3461 48.4594 90.0509 48.4753C89.3657 48.5125 88.6804 48.5603 88.0005 48.4081C87.6493 48.3289 87.3289 48.176 87.0037 48.0317C86.378 47.5771 85.9892 46.9621 85.7915 46.2226C85.6481 45.6826 85.5802 45.1318 85.5701 44.573C85.5484 43.3076 85.6533 42.0456 85.6574 40.7815C85.6628 39.1649 85.6486 37.5477 85.6563 35.9313C85.6616 34.7071 85.6881 33.483 85.707 32.2595C85.7093 32.1227 85.7237 31.9852 85.7324 31.8481C85.7347 31.8003 85.7391 31.7531 85.7394 31.7059C85.7429 31.3136 85.6278 31.1913 85.2409 31.1801C85.105 31.1768 84.9692 31.1801 84.8335 31.1808C84.3212 31.1058 84.2008 30.9907 84.1547 30.4748C84.1076 29.9461 84.1772 29.4173 84.1742 28.8878C84.1688 27.9034 84.176 26.9183 84.1777 25.9344C84.1783 25.886 84.176 25.8375 84.1795 25.7892C84.2068 25.3731 84.3744 25.2137 84.7922 25.2132C84.964 25.2127 85.1363 25.2349 85.3068 25.2249C85.5783 25.2081 85.7247 25.0743 85.7023 24.8254C85.6173 23.8968 85.7471 22.9686 85.6805 22.042C85.6481 21.5899 85.5942 21.1389 85.5671 20.6863C85.5418 20.2708 85.5979 19.8629 85.7884 19.4858C85.9951 19.0779 86.3143 18.8437 86.7906 18.8626C87.5396 18.8927 88.2886 18.9375 89.0374 18.9405C89.6832 18.9422 90.3271 18.8497 90.9746 18.8649C91.5063 18.8783 91.9207 19.0802 92.1084 19.6174C92.1519 19.9089 92.1927 20.2 92.1874 20.4963C92.1808 20.8794 92.1526 21.2605 92.1731 21.6465C92.2079 22.2834 92.1956 22.9213 92.1619 23.5604C92.1372 24.0308 92.0641 24.5031 92.139 24.9769C92.1603 25.1103 92.2222 25.2001 92.3508 25.2195C92.4984 25.2419 92.6495 25.2424 92.7994 25.252C92.964 25.2453 93.1281 25.2337 93.2934 25.2319C93.8017 25.2269 94.0128 25.4056 94.1043 25.9106C94.106 26.5623 94.0464 27.2127 94.0784 27.8647C94.1173 28.6811 94.1563 29.4986 94.1557 30.3148C94.1552 30.8937 94.0938 31.3093 93.2261 31.196C93.0431 31.1724 92.8561 31.1783 92.6702 31.1759C92.5133 31.1748 92.3952 31.252 92.3132 31.3835C92.224 31.5281 92.1957 31.6899 92.1957 31.8563C92.1951 32.2346 92.2099 32.6119 92.2175 32.989C92.2446 34.2538 92.2334 35.5181 92.2016 36.7828C92.178 37.7371 92.1798 38.6926 92.2186 39.6482C92.2417 40.2041 92.2292 40.7619 92.2376 41.319C92.2442 41.7552 92.5573 42.0709 92.9334 42.0291ZM76.9456 48.4111C76.2449 48.1821 76.173 47.593 76.17 46.9957C76.1676 46.3366 76.2213 45.6774 76.2391 45.0181C76.2551 44.4062 76.2626 43.7941 76.2615 43.1819C76.2597 41.8475 76.2899 40.513 76.3005 39.1791C76.3075 38.285 76.2727 37.3915 76.2638 36.4973C76.2533 35.4244 76.3565 34.3548 76.3806 33.2836C76.3965 32.5689 76.3605 31.8532 76.3594 31.1383C76.3577 30.2441 76.3577 29.3498 76.3761 28.4565C76.3937 27.5764 76.3895 26.6969 76.34 25.8181C76.3175 25.4204 76.2874 25.0221 76.3152 24.6231C76.3353 24.3338 76.4805 24.1185 76.7212 23.9661C77.0082 23.7844 77.3274 23.7125 77.6638 23.7277C78.1373 23.7494 78.6099 23.7914 79.0839 23.805C79.7844 23.8256 80.4838 23.7643 81.1843 23.7489C81.5343 23.7406 81.8843 23.7054 82.235 23.7372C82.7141 23.7821 82.9656 23.9882 83.1061 24.4491C83.1456 24.6586 83.1851 24.868 83.1739 25.0817C83.1379 25.7604 83.0961 26.4385 83.0594 27.1174C83.0181 27.8935 83.0464 28.6689 83.0571 29.445C83.0725 30.5847 83.1439 31.7233 83.1078 32.8642C83.0737 33.97 83.0352 35.0762 83.03 36.1822C83.0258 36.9649 83.0718 37.7482 83.1003 38.5306C83.129 39.3338 83.1232 40.1372 83.087 40.9404C83.0511 41.736 82.9992 42.5315 82.9897 43.3278C82.9826 43.8555 83.037 44.3835 83.0653 44.9118C83.0807 45.1999 83.1024 45.4873 83.1148 45.7753C83.1372 46.3023 83.2152 46.8301 83.1379 47.3576C83.0534 47.9308 82.7265 48.4496 81.9586 48.4206C81.3496 48.3982 80.744 48.2973 80.129 48.3545C79.6716 48.397 79.2095 48.39 78.7498 48.4171C78.1478 48.4531 77.547 48.5152 76.9456 48.4111Z" fill="#A1ACC6"/>
<path d="M38.5826 52.5235C36.8996 52.5997 35.2516 52.7896 33.5949 52.8297C35.2657 53.0258 36.9218 52.9697 38.5826 52.5235ZM48.6444 52.5369C48.0124 52.5453 47.3873 52.6402 46.7576 52.678C46.3539 52.7022 45.9507 52.7323 45.5477 52.7599C45.5969 52.7785 45.649 52.7881 45.7016 52.7882C46.5475 52.7865 47.3861 52.6795 48.226 52.5987C48.3623 52.5853 48.5163 52.6305 48.6421 52.5343C48.88 52.5567 49.1112 52.5153 49.3414 52.4647C49.1072 52.4713 48.8723 52.4717 48.6444 52.5369ZM41.8282 52.5768C41.9191 52.6494 42.0153 52.6062 42.1103 52.5801H41.8259C41.4369 52.4692 41.0414 52.4832 40.6448 52.5199C41.0403 52.5148 41.4316 52.605 41.8282 52.5768ZM32.7774 52.0896C31.4372 52.024 30.105 51.8647 28.783 51.6534C27.3571 51.4251 25.9204 51.2987 24.4887 51.1276C24.1753 51.0898 23.862 51.0379 23.5468 51.0239C23.3455 51.0155 23.3838 50.8969 23.3761 50.7771C23.3661 50.6225 23.4676 50.6402 23.5652 50.6407L26.6004 50.6508H26.6623C29.2847 50.6575 31.9075 50.6642 34.5297 50.6697C37.283 50.6747 40.037 50.6781 42.7902 50.6814C44.1531 50.6831 45.5164 50.6807 46.8791 50.6931C51.0087 50.7314 55.1384 50.7127 59.2687 50.7221C60.6314 50.7254 61.994 50.7214 63.3568 50.7338C67.4872 50.7727 71.6168 50.7527 75.7465 50.7627C77.1168 50.7661 78.4867 50.7627 79.8559 50.7744C83.9792 50.8122 88.1021 50.794 92.2248 50.8039C92.7277 50.805 93.2299 50.8156 93.7321 50.8122C93.8732 50.8109 93.9316 50.8477 93.9199 50.9963C93.9073 51.1473 93.9073 51.2991 93.9199 51.4501C93.9332 51.6007 93.8739 51.6342 93.7333 51.6272C92.7927 51.5828 91.8519 51.5417 90.911 51.5039C89.393 51.4419 87.8745 51.3988 86.3575 51.3163C85.1128 51.2491 83.8693 51.3046 82.625 51.2909C81.0912 51.2741 79.5567 51.2596 78.0228 51.2372C77.5005 51.2288 76.9788 51.1835 76.457 51.1828C75.8313 51.1816 75.2153 51.2772 74.5606 51.4518C74.9438 51.5162 75.2807 51.489 75.6146 51.5037C76.8306 51.5569 78.0452 51.6195 79.2616 51.6613C80.2372 51.6949 81.214 51.7049 82.1902 51.7232C83.36 51.7444 84.5286 51.7622 85.6977 51.7846C86.6132 51.8016 87.5263 51.6926 88.4404 51.7185C89.2247 51.7402 90.0092 51.7528 90.793 51.7379C91.4739 51.7245 92.1552 51.7312 92.8363 51.7212C92.9701 51.7195 93.0959 51.7362 93.2269 51.8286C93.0074 51.9106 92.7879 51.9213 92.5754 51.9449C91.8169 52.0282 91.0557 52.08 90.2936 52.1172C88.8105 52.1886 87.3274 52.2606 85.8434 52.3233C85.1777 52.3511 84.5104 52.3576 83.844 52.3735C83.1534 52.3735 82.4634 52.3735 81.7728 52.374C79.9733 52.3823 78.1804 52.1421 76.3785 52.2187C78.1733 52.3845 79.974 52.4034 81.774 52.4083C82.4641 52.4083 83.1529 52.4088 83.8422 52.4088C84.5858 52.4105 85.3295 52.4076 86.0726 52.4155C86.6639 52.4222 87.2554 52.4391 87.8467 52.4526C87.8714 52.4533 87.8962 52.4627 87.9211 52.4677C87.9235 52.4854 87.9258 52.5036 87.9277 52.522C87.7741 52.5388 87.6207 52.5627 87.4659 52.5699C85.9475 52.6407 84.427 52.6549 82.9068 52.6649C81.9229 52.6716 80.939 52.6873 79.9546 52.682C78.2081 52.6736 76.463 52.6194 74.7177 52.5414C73.8448 52.5031 72.9708 52.5036 72.0978 52.4759C70.7905 52.4345 69.4832 52.4488 68.1759 52.4591C66.7522 52.4708 65.3312 52.5572 63.9088 52.6032C62.9533 52.6345 61.9972 52.6457 61.0411 52.6639C59.5626 52.6924 58.084 52.7176 56.6056 52.7477C55.4022 52.772 54.1988 52.7937 52.9959 52.8316C51.5258 52.8776 50.0556 52.9396 48.5854 52.9945C47.4588 53.0363 46.3315 53.0741 45.2054 53.119C42.9284 53.2098 40.6508 53.2081 38.3731 53.1869C36.5784 53.1696 34.7845 53.1069 32.9929 52.9987C32.2794 52.9562 31.5635 52.9508 30.8481 52.9314C29.2812 52.8889 27.7124 52.8878 26.1483 52.7691C25.5728 52.7255 24.9956 52.7809 24.4238 52.6977C24.2397 52.6706 24.0432 52.681 23.8872 52.523C25.3516 52.6263 26.8153 52.683 28.2814 52.6335C27.6982 52.6003 27.1163 52.5662 26.5331 52.5338C25.5245 52.4772 24.5175 52.3947 23.5132 52.2863C23.3296 52.2662 23.3899 52.1429 23.3773 52.0444C23.3631 51.9335 23.4151 51.9022 23.5202 51.905C24.4408 51.934 25.3617 51.9611 26.283 51.9853C27.0596 52.0059 27.8369 52.0232 28.6135 52.0397C29.9268 52.0687 31.2401 52.0964 32.5538 52.1242C32.6294 52.1259 32.7048 52.1225 32.7804 52.1209C32.9563 52.1976 33.1381 52.1326 33.3182 52.1403C33.1341 52.1553 32.9628 52.0506 32.7774 52.0859" fill="#A1ACC6"/>
<path d="M59.5717 57.5727C59.5734 57.7492 59.5776 57.898 59.6208 58.0462C59.6525 58.1578 59.7216 58.2285 59.8208 58.2633C60.1237 58.3702 60.7126 58.219 60.7142 57.7196C60.7156 57.3639 60.7243 57.0069 60.6796 56.6521C60.6087 56.0933 60.3319 56.0093 59.8272 56.0583C59.6525 56.0754 59.5575 56.1804 59.5729 56.3658C59.6065 56.7765 59.593 57.1873 59.5717 57.5727ZM62.8508 56.982C62.8374 57.3833 62.9241 57.8053 62.8279 58.2314C62.7033 58.7798 62.4637 59.2489 62.0093 59.5907C61.9059 59.6687 61.8522 59.753 61.9213 59.8681C62.3297 60.5527 62.544 61.3258 62.9075 62.0306C62.9643 62.141 63.0185 62.2513 63.0451 62.3723C63.0936 62.5882 62.9813 62.7671 62.7653 62.8256C62.6307 62.8623 62.495 62.8639 62.357 62.8474C61.9727 62.8005 61.589 62.8558 61.2054 62.8641C60.9234 62.8708 60.8496 62.8173 60.7828 62.5496C60.6878 62.1693 60.5402 61.81 60.3785 61.4553C60.257 61.1879 60.1377 60.9194 60.0735 60.6295C60.0576 60.5575 60.0238 60.4873 59.9902 60.42C59.9376 60.3168 59.851 60.2755 59.7342 60.2991C59.6231 60.3215 59.5995 60.406 59.593 60.4985C59.5575 61.0072 59.5712 61.5155 59.6107 62.0231C59.6224 62.1737 59.6341 62.3252 59.6313 62.4763C59.6254 62.7532 59.5021 62.8758 59.2253 62.8859C59.1225 62.8892 59.0193 62.8775 58.9166 62.8708C58.5719 62.8454 58.2301 62.8725 57.8873 62.9098C57.6826 62.9315 57.5752 62.823 57.5213 62.6289C57.4641 62.4229 57.5 62.2182 57.5059 62.0139C57.5537 60.28 57.5036 58.5457 57.5308 56.8118C57.5415 56.1242 57.5532 55.4373 57.568 54.7497C57.5745 54.4475 57.6717 54.3207 57.9675 54.313C58.6261 54.2963 59.2855 54.296 59.9446 54.2694C60.382 54.2523 60.8206 54.1949 61.2573 54.2995C62.0894 54.4996 62.757 55.2822 62.8102 56.1373C62.8272 56.4112 62.8366 56.6852 62.8508 56.982ZM41.2944 57.4126C41.2891 57.6728 41.2826 57.8504 41.3339 58.0258C41.3701 58.1467 41.442 58.2317 41.5601 58.2717C41.9921 58.4183 42.4472 58.096 42.4453 57.6375C42.4441 57.3435 42.4229 57.0489 42.4105 56.7545C42.3869 56.2097 42.1532 56.0038 41.6101 56.0503C41.3652 56.0709 41.2709 56.1619 41.2951 56.4063C41.3299 56.7704 41.3085 57.1316 41.2944 57.4126ZM39.2253 61.7027C39.2902 60.3812 39.208 59.0125 39.2482 57.6457C39.2778 56.6552 39.2276 55.6638 39.3026 54.6752C39.321 54.4268 39.4142 54.347 39.6608 54.3099C39.8744 54.2774 40.0864 54.311 40.2988 54.3065C40.9993 54.2888 41.7005 54.2747 42.4 54.2346C43.6039 54.165 44.4773 55.2278 44.517 56.0476C44.5441 56.6101 44.599 57.1737 44.5955 57.7357C44.5908 58.4828 44.3423 59.135 43.7178 59.5994C43.6163 59.6752 43.5702 59.7588 43.647 59.8788C43.9522 60.3549 44.1121 60.8985 44.347 61.4068C44.4645 61.6606 44.5807 61.9154 44.6975 62.1698C44.8866 62.5812 44.7224 62.8763 44.2726 62.8532C43.8041 62.8285 43.339 62.8521 42.8721 62.865C42.6939 62.87 42.5658 62.7989 42.5226 62.614C42.3993 62.077 42.1514 61.5878 41.9414 61.0837C41.8711 60.9144 41.8298 60.7332 41.7691 60.559C41.7212 60.4215 41.671 60.274 41.481 60.2952C41.2791 60.3176 41.3115 60.496 41.3033 60.6174C41.2667 61.154 41.3033 61.6898 41.347 62.2247C41.3517 62.2796 41.3594 62.3339 41.3629 62.3886C41.3836 62.7281 41.23 62.9023 40.8919 62.8845C40.4787 62.8633 40.0691 62.8568 39.6566 62.9034C39.3715 62.9352 39.2353 62.8007 39.2269 62.5126C39.2192 62.2583 39.2253 62.0032 39.2253 61.7027ZM75.907 57.1946C75.907 57.037 75.9204 56.8784 75.904 56.722C75.8432 56.1348 75.6042 55.9959 75.0298 56.0615C74.9018 56.0766 74.7909 56.1376 74.7909 56.2952C74.7914 56.8164 74.7874 57.337 74.7974 57.8575C74.8005 58.0074 74.8393 58.1556 74.9915 58.2423C75.2383 58.3821 75.8255 58.2456 75.9147 57.8491C75.9649 57.6273 75.908 57.4119 75.907 57.1946ZM72.733 61.6815C72.733 60.3263 72.7276 58.9712 72.7346 57.6161C72.7395 56.6947 72.7577 55.7729 72.7748 54.8516C72.7831 54.4101 72.8852 54.2838 73.3255 54.298C74.2203 54.3269 75.1115 54.2424 76.0044 54.2372C77.0485 54.2306 77.9621 55.0988 78.0182 56.1378C78.0453 56.6389 78.0861 57.1392 78.0914 57.6403C78.1003 58.4183 77.8629 59.0982 77.222 59.5915C77.1276 59.6647 77.0592 59.7426 77.1365 59.8684C77.4989 60.461 77.6919 61.1302 77.9904 61.7522C78.076 61.9312 78.1669 62.1088 78.2325 62.2946C78.3357 62.5897 78.2194 62.7751 77.9203 62.8395C77.8033 62.8643 77.6882 62.8601 77.572 62.8462C77.1867 62.8014 76.8036 62.8579 76.4188 62.8639C76.1313 62.869 76.0552 62.8084 75.9903 62.5299C75.9189 62.2212 75.8019 61.9296 75.6763 61.641C75.5294 61.3022 75.3606 60.9723 75.2798 60.6081C75.2654 60.5425 75.2329 60.4799 75.2023 60.4194C75.154 60.3237 75.0743 60.2848 74.9658 60.2937C74.8476 60.3037 74.8175 60.3922 74.8075 60.4789C74.7909 60.6288 74.7958 60.7811 74.7897 60.9323C74.7703 61.4145 74.824 61.8943 74.843 62.3746C74.8583 62.7601 74.7166 62.9111 74.3349 62.8859C73.9635 62.8611 73.5947 62.8474 73.224 62.9026C72.7806 62.9675 72.7206 62.745 72.7087 62.3418C72.7022 62.1216 72.7075 61.9021 72.7075 61.682L72.733 61.6815ZM28.771 56.7727H28.774V57.1428C28.774 57.4141 28.8891 57.5021 29.1571 57.4349C29.4298 57.3669 29.5837 57.1705 29.6008 56.8689C29.6234 56.461 29.4894 56.1712 29.2314 56.0709C28.9453 55.9599 28.778 56.072 28.7716 56.382C28.7686 56.5125 28.771 56.6422 28.771 56.7727ZM28.7705 60.1037C28.7705 60.3027 28.7593 60.5022 28.7728 60.6999C28.7952 61.0303 28.9722 61.1436 29.2898 61.0469C29.5165 60.9778 29.6197 60.8067 29.6369 60.5877C29.657 60.335 29.6645 60.0801 29.657 59.8264C29.647 59.5248 29.4857 59.3306 29.2148 59.2568C28.987 59.1942 28.7957 59.3111 28.7733 59.5484C28.7558 59.7319 28.7701 59.9183 28.7705 60.1037ZM30.9795 58.1897C31.6499 58.666 31.8229 59.3488 31.8341 60.1097C31.8411 60.5853 31.8376 61.0558 31.6765 61.512C31.369 62.3836 30.7393 62.8333 29.8203 62.8688C29.0915 62.8966 28.3631 62.8705 27.6348 62.8721C27.463 62.8721 27.2907 62.8952 27.1202 62.8839C26.788 62.8614 26.7005 62.7646 26.7036 62.4295C26.7082 61.8799 26.7189 61.3311 26.7036 60.7816C26.6794 59.9223 26.7046 59.0634 26.7254 58.2048C26.7296 58.0468 26.7248 57.8888 26.7112 57.7313C26.6302 56.8041 26.7346 55.877 26.7045 54.9491C26.6904 54.4947 26.8366 54.3448 27.2895 54.3595C28.1282 54.3863 28.9676 54.3194 29.8044 54.3612C30.4624 54.3942 31.0732 54.5667 31.4172 55.2106C31.6747 55.6916 31.7337 56.2139 31.6877 56.7486C31.6392 57.3111 31.4587 57.815 30.9795 58.1897ZM35.8998 57.9441C35.8473 56.7998 35.9194 55.7257 35.8433 54.6538C35.8297 54.4608 35.9147 54.3376 36.1146 54.3092C36.1625 54.3025 36.2103 54.2915 36.2582 54.2925C36.6771 54.3025 37.0957 54.3058 37.5153 54.2958C37.8382 54.2874 37.9856 54.4275 37.9898 54.71C38.004 55.658 38.0346 56.6064 38.0169 57.5537C37.9956 58.6732 37.9916 59.7928 37.9939 60.9126C37.9951 61.4153 37.8144 61.8402 37.4674 62.1902C37.0413 62.6212 36.5349 62.9044 35.9171 62.9586C35.3173 63.0112 34.7195 63.01 34.1412 62.8293C33.3037 62.5673 32.8084 61.911 32.7872 61.0405C32.7641 60.1257 32.747 59.2109 32.747 58.2961C32.7476 57.6226 32.7907 56.9499 32.7961 56.2765C32.7991 55.8438 32.7695 55.4112 32.7499 54.9786C32.7445 54.8546 32.7452 54.7336 32.7711 54.6108C32.8161 54.4025 32.9411 54.3075 33.1477 54.308C33.5951 54.308 34.0425 54.3047 34.4898 54.3087C34.7968 54.312 34.9184 54.4208 34.9077 54.7136C34.8634 55.8751 34.8841 57.0384 34.8693 58.1999C34.8605 59.0182 34.8663 59.8365 34.8865 60.6546C34.8918 60.9012 35.0471 61.027 35.328 61.0417C35.6348 61.0568 35.8466 60.9343 35.8774 60.6964C35.9217 60.3476 35.8933 59.9964 35.8851 59.6464C35.8721 59.0545 35.865 58.4629 35.8998 57.9441ZM49.4259 57.4061C49.7216 57.4061 50.0178 57.4049 50.3135 57.4068C50.6079 57.4084 50.709 57.4882 50.7685 57.7743C50.7869 57.8618 50.7944 57.9512 50.7909 58.0405C50.7384 59.133 50.8211 60.2261 50.7898 61.3191C50.7804 61.6485 50.7975 61.9783 50.7975 62.3083C50.7981 62.6011 50.7031 62.7249 50.4269 62.8283C50.2587 62.8894 50.0821 62.9244 49.9032 62.932C49.1409 62.9722 48.3771 62.9923 47.6258 62.8153C46.6272 62.5797 46.047 61.8963 45.7152 60.975C45.4325 60.19 45.3435 59.3725 45.4067 58.5422C45.4462 58.0169 45.435 57.4846 45.5891 56.9711C45.7714 56.3626 46.0224 55.8049 46.4654 55.3197C46.9664 54.7703 47.5746 54.4899 48.2791 54.3617C48.9225 54.2448 49.564 54.2644 50.2037 54.396C50.4942 54.4556 50.578 54.5377 50.6034 54.8287C50.6347 55.1929 50.6364 55.5581 50.6151 55.9218C50.5934 56.2971 50.3555 56.4495 49.9931 56.3401C49.6055 56.2234 49.2135 56.2111 48.8133 56.2618C48.167 56.3432 47.6346 57.0993 47.6218 57.6664C47.6075 58.2632 47.5008 58.8569 47.5692 59.4559C47.6111 59.8248 47.6671 60.1895 47.8212 60.5306C47.934 60.7797 48.1051 60.9673 48.3932 61.0116C48.6232 61.0471 48.8027 60.9259 48.8039 60.6966C48.8051 60.3123 48.7822 59.9275 48.7579 59.5432C48.7479 59.3826 48.6545 59.3101 48.4799 59.3148C48.1747 59.3232 48.1647 59.3048 48.1682 59.0031C48.1724 58.5978 48.1252 58.1922 48.1682 57.7874C48.2025 57.4628 48.2786 57.4014 48.6003 57.4073C48.8754 57.4123 49.1504 57.4084 49.4259 57.4084V57.4061ZM70.1808 57.4063C70.4628 57.4063 70.7449 57.4079 71.0272 57.4058C71.3795 57.4024 71.5175 57.5015 71.5324 57.8508C71.553 58.3306 71.5234 58.8123 71.5393 59.2926C71.5624 59.9944 71.5439 60.6956 71.5388 61.3967C71.5364 61.6918 71.5617 61.9875 71.5659 62.2826C71.57 62.5966 71.4727 62.7217 71.1745 62.8313C71.0129 62.8897 70.8435 62.9234 70.6718 62.9312C69.9022 62.973 69.1306 62.9948 68.3741 62.8119C67.3059 62.5539 66.7345 61.7926 66.417 60.8077C66.1527 59.9872 66.1207 59.138 66.1786 58.2802C66.2228 57.6199 66.2935 56.9689 66.5611 56.3551C67.0456 55.2449 67.8541 54.5461 69.0753 54.3549C69.7004 54.2563 70.3382 54.2699 70.9586 54.395C71.2642 54.4552 71.3604 54.558 71.3646 54.8625C71.3688 55.2201 71.374 55.5778 71.3688 55.936C71.3641 56.2807 71.1192 56.4506 70.7822 56.3481C70.3944 56.2293 70.0043 56.2136 69.6023 56.2566C68.9384 56.328 68.4278 57.0847 68.3972 57.5548C68.3529 58.2461 68.2473 58.9372 68.3493 59.6319C68.4007 59.9782 68.4609 60.3223 68.6361 60.6328C68.753 60.8411 68.9223 60.9798 69.1661 61.0141C69.3769 61.0435 69.5497 60.9356 69.5539 60.7237C69.5623 60.3188 69.5686 59.9128 69.5086 59.5102C69.4848 59.3538 69.3935 59.3155 69.2487 59.3162C68.9277 59.3167 68.9277 59.3111 68.9277 58.9903C68.9277 58.5978 68.9243 58.2053 68.9289 57.8135C68.933 57.4929 69.0376 57.4009 69.355 57.4069C69.63 57.412 69.9057 57.4063 70.1808 57.4063ZM51.9488 61.682C51.989 60.8215 51.9271 60.0254 51.9159 59.2285C51.904 58.397 51.9283 57.5654 51.9247 56.7337C51.9217 56.1016 51.9012 55.4689 51.8851 54.8369C51.8774 54.524 52.0256 54.3575 52.3373 54.3559C53.4781 54.3525 54.619 54.3492 55.7598 54.3492C56.1069 54.3497 56.2508 54.4701 56.2585 54.8076C56.2665 55.1161 56.2657 55.4248 56.2562 55.7333C56.2438 56.0996 56.081 56.2201 55.6848 56.2089C55.3762 56.2005 55.0675 56.1846 54.7583 56.1794C54.6007 56.1778 54.4425 56.1912 54.2844 56.1945C54.0966 56.1978 54.007 56.3049 53.9999 56.4777C53.9911 56.7103 53.9976 56.9428 53.9869 57.1759C53.978 57.3872 54.0955 57.4887 54.3357 57.4911C54.707 57.4944 55.078 57.4827 55.4493 57.4777C55.5184 57.4772 55.5868 57.4727 55.6559 57.4727C56.1252 57.476 56.2403 57.5931 56.2414 58.0594C56.2419 58.3274 56.2461 58.5959 56.2448 58.8645C56.2426 59.2103 56.0755 59.3903 55.7278 59.3915C55.3778 59.3931 55.0273 59.3714 54.6773 59.3597C54.6631 59.3597 54.6496 59.3592 54.636 59.3597C54.1555 59.4003 54.0009 59.4428 54.0729 59.9534C54.1013 60.1553 54.0582 60.366 54.0787 60.5696C54.1077 60.8553 54.1945 60.9149 54.4824 60.9149C54.9629 60.9142 55.4434 60.9065 55.9237 60.9216C56.3704 60.935 56.4875 61.0691 56.4869 61.5212C56.4855 61.8031 56.4811 62.085 56.4738 62.3669C56.465 62.7276 56.302 62.9029 55.9373 62.8999C55.2368 62.8949 54.5356 62.9265 53.8357 62.8732C53.3818 62.839 52.9291 62.9039 52.4752 62.9028C52.0934 62.9021 51.944 62.7475 51.9482 62.3627C51.9505 62.1154 51.9488 61.8667 51.9488 61.682Z" fill="#A1ACC6"/>
<path d="M77.2141 21.6489C76.8795 21.6134 76.6858 21.407 76.576 21.1088C76.4673 20.8149 76.4467 20.5069 76.4392 20.1964C76.4244 19.5573 76.3878 18.9187 76.3848 18.2794C76.3824 17.5865 76.6014 17.007 77.5847 17.0023C78.3 16.9989 79.0101 17.115 79.7278 17.0903C80.4696 17.0648 81.2126 17.0685 81.9539 17.0158C82.6268 16.9673 82.7384 17.0441 82.9796 17.6721C83.0365 17.9572 83.034 18.2446 83.0198 18.5332C83.0055 18.8148 82.985 19.0969 82.995 19.3778C83.0097 19.7962 83.0529 20.2141 83.0765 20.6325C83.1036 21.1 82.8734 21.4038 82.4232 21.5226C82.301 21.555 82.1789 21.555 82.0554 21.5585C81.3466 21.5768 80.6401 21.4936 79.9319 21.5254C79.026 21.5667 78.1202 21.6076 77.2141 21.6489Z" fill="#A1ACC6"/>
<path d="M52.9418 17.8831C52.9418 17.9274 52.9355 18.0307 52.9438 18.1327C52.9509 18.2147 52.9733 18.3087 53.0648 18.3293C53.2796 18.3776 53.4986 18.3942 53.7151 18.3376C53.8349 18.3064 53.8757 18.2025 53.8792 18.1009C53.8892 17.8483 53.904 17.5935 53.8503 17.3425C53.8043 17.1312 53.6385 16.9767 53.4471 16.9648C53.2175 16.9514 53.0671 17.0563 52.9945 17.296C52.942 17.4672 52.9276 17.6452 52.9418 17.8831ZM55.5659 21.6321C55.5659 21.811 55.5589 21.9903 55.5678 22.1692C55.5771 22.3753 55.4858 22.5044 55.3018 22.5878C54.9978 22.726 54.6754 22.7877 54.3473 22.8143C53.7835 22.8591 53.2177 22.8757 52.6746 22.6861C51.7557 22.3646 51.2989 21.6556 51.1266 20.7438C50.9702 19.914 51.0138 19.0736 51.0634 18.2359C51.0858 17.8525 51.1102 17.47 51.2022 17.0933C51.5151 15.8086 52.412 15.1676 53.7276 15.2981C54.7482 15.3995 55.4804 16.1137 55.6705 17.1731C55.7898 17.8371 55.7172 18.5016 55.7101 19.1668C55.7083 19.3522 55.7195 19.535 55.5914 19.695C55.4799 19.8338 55.3525 19.9135 55.1683 19.8999C54.5308 19.8531 53.8923 19.9382 53.2537 19.8882C53.0099 19.8693 52.8955 20.0582 52.9504 20.3272C53.027 20.708 53.341 20.9735 53.7753 21.0094C54.1496 21.0401 54.5155 21.0094 54.8526 20.8182C54.9481 20.764 55.0508 20.7225 55.1612 20.7113C55.4026 20.6866 55.5895 20.857 55.5878 21.0968C55.5873 21.275 55.5878 21.4531 55.5878 21.6321H55.5659Z" fill="#A1ACC6"/>
<path d="M34.0938 48.5366C34.5423 48.662 34.9955 48.5968 35.4442 48.5536C36.1442 48.4864 36.8407 48.4693 37.5435 48.5151C38.1106 48.552 38.6803 48.6038 39.251 48.5319C39.8435 48.4571 40.2479 48.0763 40.3766 47.4377C40.4679 46.9827 40.4515 46.5271 40.4025 46.0667C40.3523 45.5892 40.3138 45.1101 40.2891 44.6296C40.226 43.4049 40.3204 42.1826 40.3091 40.959C40.2968 39.562 40.3259 38.1646 40.2851 36.7681C40.2496 35.5569 40.3486 34.3513 40.3436 33.1419C40.3341 31.0503 40.3523 28.9573 40.3275 26.8657C40.3175 26.0413 40.3334 25.215 40.2874 24.3915C40.2379 23.5033 40.2804 22.6181 40.314 21.7328C40.347 20.8622 40.3813 19.9905 40.4539 19.1212C40.4845 18.7505 40.4308 18.3818 40.3357 18.0204C40.9325 18.2524 41.0924 18.754 41.1232 19.3237C41.1545 19.8942 41.0901 20.4633 41.06 21.0321C40.9768 22.6051 40.9236 24.1774 40.9804 25.7532C41.0028 26.3848 40.9937 27.018 41.0086 27.6501C41.0541 29.5417 41.0518 31.4339 41.0357 33.3254C41.0245 34.7214 40.9484 36.116 40.9603 37.5118C40.9733 38.9701 41.0245 40.4278 40.9944 41.8864C40.971 43.0414 40.9342 44.1964 40.9715 45.3513C40.9892 45.9002 41.0546 46.4475 41.1078 46.9945C41.148 47.4088 41.1361 47.8197 41.0292 48.2215C40.8535 48.8855 40.4167 49.2108 39.706 49.2337C39.0315 49.2555 38.3598 49.2078 37.6875 49.1618C37.0879 49.1199 36.4947 49.2131 35.8993 49.2544C35.5422 49.2792 35.1839 49.3163 34.8315 49.2297C34.4598 49.1382 34.1971 48.9195 34.0938 48.5366ZM60.8733 49.2406C61.2592 49.3786 61.6387 49.302 62.0218 49.22C62.7671 49.06 63.5161 48.9272 64.2775 48.8506C64.8883 48.7887 65.5038 48.7845 66.1106 48.6942C66.4594 48.6423 66.5804 48.4864 66.6205 48.1304C66.6357 47.9957 66.665 47.8629 66.7079 47.7344C66.7581 47.5821 66.8814 47.5609 67.055 47.6688C67.3854 47.8742 67.7254 48.0566 68.0966 48.1836C68.7329 48.4 69.3892 48.4957 70.0537 48.4414C71.1084 48.354 72.0647 47.9987 72.8738 47.2923C74.0671 46.2494 74.7269 44.9197 75.0073 43.378C75.1554 42.5659 75.1542 41.7468 75.1159 40.9311C75.0657 39.857 74.9637 38.7858 74.8733 37.7139C74.8353 37.2859 74.8099 36.8568 74.7972 36.4273C74.7641 35.196 74.6307 33.9767 74.4337 32.7616C74.2282 31.4945 73.9952 30.2344 73.6492 28.9967C73.2761 27.6604 72.813 26.3643 72.0085 25.2153C71.9943 25.1958 71.9961 25.1646 71.9907 25.1384C72.245 25.2737 72.3951 25.5131 72.5627 25.7293C73.2828 26.656 73.7248 27.7235 74.0813 28.8272C74.6048 30.448 74.927 32.1146 75.1684 33.7979C75.284 34.6059 75.3851 35.4133 75.4253 36.2331C75.4984 37.7433 75.6447 39.2507 75.7475 40.7604C75.8047 41.5991 75.8561 42.4378 75.7888 43.2813C75.6471 45.0519 75.0062 46.5959 73.7213 47.8369C72.9882 48.5458 72.093 48.9466 71.0766 49.0734C70.071 49.1986 69.1071 49.0684 68.1952 48.6155C68.0383 48.5376 67.893 48.4365 67.7408 48.3494C67.5236 48.2242 67.4396 48.2573 67.3731 48.4986C67.3477 48.5905 67.3294 48.6842 67.3182 48.7788C67.2675 49.1844 67.0868 49.3637 66.6743 49.3962C66.0735 49.443 65.4714 49.4718 64.8718 49.5302C64.2486 49.5904 63.6312 49.6966 63.0186 49.8313C62.6179 49.9186 62.22 50.0188 61.8009 49.9789C61.3737 49.9375 60.9942 49.6461 60.8733 49.2406Z" fill="#A1ACC6"/>
<path d="M89.0812 62.871C88.6049 62.857 88.1281 62.8632 87.6523 62.8894C87.2769 62.9105 87.0915 62.7422 87.1022 62.367C87.1282 61.4664 87.0644 60.5663 87.0945 59.6656C87.1111 59.171 87.0698 58.6746 87.0857 58.1808C87.1169 57.2399 87.075 56.298 87.1352 55.3572C87.1506 55.1193 87.1046 54.8779 87.1011 54.6378C87.0969 54.3899 87.1901 54.2949 87.4392 54.3161C87.8854 54.3533 88.3292 54.3593 88.7759 54.3228C89.1425 54.2934 89.2487 54.4143 89.2162 54.779C89.1259 55.7817 89.237 56.7845 89.2109 57.7871C89.1885 58.6388 89.1975 59.4911 89.1925 60.3435C89.192 60.3848 89.1908 60.4261 89.1925 60.4673C89.2126 60.9235 89.3497 61.0493 89.807 61.0239C89.9788 61.0155 90.1504 61.0068 90.3199 60.9826C90.6989 60.929 90.8964 61.0717 90.8959 61.4518C90.8953 61.7799 90.87 62.107 90.8924 62.4374C90.9125 62.7243 90.733 62.8689 90.4357 62.8707C90.0231 62.8724 89.6107 62.871 89.0812 62.871ZM84.6377 62.871C84.1622 62.8578 83.6863 62.8639 83.2113 62.8893C82.8417 62.9099 82.6642 62.7412 82.6493 62.368C82.6423 62.1762 82.6617 61.9832 82.6612 61.7908C82.6565 60.5603 82.6423 59.3298 82.6453 58.0985C82.6477 57.2138 82.6708 56.3291 82.6855 55.4444C82.6897 55.2102 82.6825 54.9781 82.6525 54.7451C82.6112 54.4198 82.728 54.2877 83.0537 54.3178C83.4798 54.3573 83.9019 54.3549 84.3285 54.3228C84.6951 54.2944 84.8132 54.4125 84.7843 54.7725C84.7175 55.604 84.7936 56.4355 84.7754 57.2648C84.7523 58.3031 84.7754 59.3412 84.7506 60.3788C84.7488 60.4479 84.7476 60.5175 84.7565 60.5854C84.8 60.9165 84.9216 61.0281 85.2576 61.0227C85.4772 61.0183 85.6964 61.0025 85.9144 60.9755C86.2585 60.9349 86.4414 61.0806 86.4481 61.4282C86.4532 61.7642 86.4533 62.1002 86.4486 62.4362C86.4462 62.7183 86.2997 62.8677 86.0159 62.87C85.5963 62.8734 85.1764 62.871 84.6377 62.871Z" fill="#A1ACC6"/>
<path d="M76.9453 48.4112C77.5466 48.5149 78.1475 48.4537 78.7495 48.4178C79.2092 48.3907 79.6713 48.3978 80.1287 48.3553C80.7437 48.2981 81.3493 48.3988 81.9585 48.4214C82.7264 48.4503 83.0533 47.9315 83.1376 47.3583C83.2149 46.8308 83.1369 46.3032 83.1145 45.776C83.1022 45.4881 83.0804 45.2005 83.065 44.9127C83.0366 44.3844 82.9824 43.8562 82.9896 43.3284C82.9989 42.5324 83.0508 41.7367 83.0869 40.941C83.1237 40.1383 83.1281 39.3344 83.1 38.5314C83.0715 37.7487 83.0255 36.9654 83.0297 36.183C83.0351 35.0769 83.0732 33.9709 83.1077 32.8649C83.1436 31.7239 83.0722 30.5854 83.0568 29.4458C83.0463 28.6697 83.0178 27.8942 83.0592 27.1181C83.0958 26.4394 83.1378 25.7613 83.1738 25.0824C83.185 24.8688 83.1453 24.6593 83.1058 24.4498C83.5632 24.5549 83.8247 24.9173 83.8411 25.4779C83.866 26.3248 83.7668 27.166 83.7349 28.0105C83.7066 28.767 83.7284 29.5226 83.7426 30.2786C83.7698 31.6662 83.8282 33.0531 83.7715 34.4425C83.7084 35.9876 83.6889 37.5339 83.7782 39.0808C83.8435 40.2146 83.7946 41.3484 83.718 42.4803C83.6159 43.9807 83.7591 45.4734 83.8294 46.9689C83.8502 47.4132 83.8913 47.8612 83.7605 48.2997C83.601 48.8328 83.2375 49.1307 82.6856 49.1036C81.8345 49.0623 80.987 48.9986 80.1331 49.0635C79.4826 49.113 78.8311 49.1538 78.1776 49.152C78.0184 49.152 77.8615 49.1337 77.7079 49.1006C77.3242 49.018 77.0527 48.803 76.9453 48.4112Z" fill="#A1ACC6"/>
<path d="M42.9629 19.3834C42.9629 18.8748 42.9552 18.3658 42.9671 17.8572C42.9713 17.6665 42.9246 17.5668 42.7175 17.5874C42.5405 17.6058 42.4884 17.4959 42.4903 17.3448C42.495 16.8916 42.5045 16.4377 42.5073 15.9838C42.5085 15.8332 42.5935 15.7931 42.7215 15.8068C42.8982 15.825 42.9654 15.7655 42.953 15.5749C42.9283 15.1983 42.9542 14.8206 42.9134 14.4423C42.8727 14.0622 43.0497 13.9011 43.4282 13.9046C43.7716 13.9079 44.1158 13.9053 44.4592 13.9058C44.7992 13.9058 44.9018 13.9996 44.9066 14.3424C44.9113 14.7332 44.9225 15.1239 44.8919 15.5147C44.8688 15.8122 44.8818 15.8157 45.178 15.8115C45.4147 15.8081 45.5004 15.8711 45.4825 16.0865C45.449 16.4931 45.4985 16.8963 45.5004 17.3011C45.5015 17.568 45.4543 17.6098 45.1875 17.5951C44.9596 17.5817 44.9232 17.6147 44.9232 17.8447C44.9237 18.7459 44.9265 19.6472 44.9265 20.5484C44.9265 20.7315 44.9692 20.8529 45.1945 20.8329C45.3757 20.8161 45.4584 20.9463 45.4614 21.1056C45.4702 21.566 45.4702 22.0269 45.4625 22.4873C45.4602 22.6508 45.3675 22.7654 45.1898 22.7553C44.7766 22.7336 44.3659 22.7824 43.954 22.7866C43.3584 22.7933 43.0049 22.4679 42.943 21.8758C42.8739 21.2171 42.9771 20.5585 42.9453 19.8993C42.937 19.7275 42.9442 19.5552 42.9442 19.3834H42.9629Z" fill="#A1ACC6"/>
<path d="M51.3068 48.6117C51.7513 48.5727 52.1952 48.5084 52.6402 48.5007C53.2445 48.489 53.8494 48.5292 54.4544 48.5332C54.8658 48.5349 55.2749 48.6035 55.6884 48.5366C56.2161 48.4516 56.5231 48.1324 56.5331 47.5888C56.5448 46.9497 56.5254 46.3098 56.5766 45.6712C56.6281 45.0333 56.6328 44.3933 56.6104 43.7543C56.5401 41.7724 56.578 39.7909 56.585 37.8092C56.5892 36.6264 56.6452 35.4431 56.6081 34.2603C56.5785 33.3247 56.5602 32.3893 56.591 31.4545C56.6128 30.7876 56.6352 30.1206 56.6086 29.4542C56.5738 28.5973 56.5278 27.7392 56.2556 26.9134C56.1546 26.6066 56.0142 26.3141 55.8378 26.0435C56.4409 26.4619 56.7914 27.054 56.9875 27.7449C57.2154 28.5506 57.2619 29.3794 57.288 30.2114C57.3204 31.2361 57.2495 32.26 57.2614 33.2841C57.2714 34.1298 57.3074 34.9755 57.298 35.8214C57.2719 38.1887 57.2502 40.5553 57.2619 42.9226C57.2654 43.6515 57.305 44.3805 57.2974 45.1092C57.2885 45.8855 57.2413 46.6609 57.2147 47.4371C57.2053 47.7051 57.2053 47.9736 57.203 48.2416C57.1986 48.8435 56.8605 49.2069 56.2544 49.2302C55.457 49.2608 54.6597 49.2168 53.8623 49.1912C53.2686 49.1723 52.682 49.2407 52.0923 49.2749C51.9686 49.2829 51.8445 49.2818 51.721 49.2715C51.4621 49.2457 51.3439 49.1171 51.325 48.8579C51.3192 48.7761 51.3132 48.6935 51.3068 48.6117Z" fill="#A1ACC6"/>
<path d="M80.421 54.3472C80.6476 54.3472 80.8748 54.3478 81.1015 54.3472C81.3654 54.346 81.4952 54.4616 81.4651 54.7233C81.3446 55.7719 81.4156 56.8254 81.4007 57.8754C81.3901 58.602 81.3612 59.3297 81.3806 60.058C81.3978 60.6819 81.366 61.3074 81.3612 61.9318C81.3595 62.1036 81.3736 62.2747 81.3859 62.446C81.4072 62.747 81.2916 62.881 80.9841 62.8862C80.5379 62.8962 80.091 62.8996 79.6443 62.9013C79.3445 62.9024 79.2365 62.8144 79.2383 62.5123C79.2453 61.4541 79.2537 60.3953 79.2873 59.3378C79.3086 58.6714 79.2773 58.0055 79.3015 57.3405C79.3328 56.51 79.3286 55.6802 79.3009 54.8504C79.2873 54.4313 79.3946 54.334 79.8227 54.3475C80.0221 54.3542 80.2214 54.3472 80.421 54.3472Z" fill="#A1ACC6"/>
<path d="M24.1074 48.4946C24.5648 48.6078 25.0259 48.6117 25.4962 48.5878C26.6494 48.5317 27.8039 48.472 28.9571 48.6045C29.1701 48.6288 29.3838 48.6095 29.5915 48.5578C30.0632 48.4392 30.3606 48.0643 30.3854 47.551C30.4132 46.9797 30.3641 46.4107 30.3146 45.8424C30.245 45.0391 30.2904 44.2369 30.324 43.4337C30.3641 42.4801 30.4491 41.5262 30.3541 40.5695C30.2808 39.8324 30.1657 39.0956 30.1851 38.3533C30.203 37.6398 30.2561 36.9262 30.3063 36.2144C30.3334 35.8291 30.5192 35.5965 30.8946 35.5139C31.4814 35.385 32.0798 35.367 32.67 35.4861C33.014 35.5552 33.2732 35.7511 33.3098 36.1419C32.8377 36.0717 32.3649 36.0911 31.8916 36.1319C31.2642 36.1866 30.9915 36.4168 30.9743 37.0383C30.9448 38.0871 30.7949 39.1346 30.9207 40.1864C31.0044 40.8887 31.1106 41.5899 31.083 42.3006C31.0446 43.2755 31.0004 44.2505 30.9631 45.2255C30.933 46.024 31.0333 46.8174 31.0747 47.6129C31.0901 47.909 31.1024 48.2031 31.0205 48.4929C30.8858 48.9674 30.5465 49.2419 30.0543 49.2742C29.5997 49.3038 29.1465 49.2573 28.695 49.223C27.9714 49.1675 27.2532 49.2473 26.5324 49.2608C25.9777 49.2709 25.4187 49.3423 24.8705 49.1917C24.4992 49.0897 24.213 48.8901 24.1074 48.4946ZM92.9323 42.0291C92.5564 42.0709 92.243 41.7552 92.2363 41.319C92.2283 40.7619 92.2407 40.2041 92.2176 39.6482C92.1786 38.6926 92.1768 37.7371 92.2004 36.7827C92.2321 35.5179 92.2435 34.2538 92.2163 32.989C92.2086 32.6119 92.1938 32.2346 92.1945 31.8563C92.1945 31.6899 92.2229 31.5283 92.312 31.3835C92.3939 31.2519 92.512 31.1746 92.669 31.1758C92.8548 31.1774 93.0421 31.1724 93.2249 31.1958C94.0925 31.3091 94.1539 30.8937 94.1546 30.3148C94.1551 29.4984 94.1161 28.6811 94.0773 27.8649C94.0455 27.2127 94.1056 26.5623 94.1032 25.9108C94.4738 25.9091 94.7766 26.1527 94.7848 26.6774C94.7949 27.2889 94.7276 27.899 94.7489 28.511C94.7795 29.3905 94.8026 30.2693 94.8297 31.1482C94.8361 31.2996 94.8067 31.4504 94.744 31.5883C94.659 31.7725 94.5145 31.8818 94.3102 31.8818C94.0564 31.8823 93.8016 31.8784 93.5483 31.857C93.1187 31.821 92.8908 32.021 92.8878 32.4596C92.8828 33.14 92.9126 33.8206 92.9191 34.5005C92.9368 36.1926 92.8612 37.8834 92.8878 39.5756C92.9012 40.3937 92.9174 41.211 92.9323 42.0291ZM87.0027 48.0315C87.3279 48.1759 87.6484 48.3293 87.9994 48.4079C88.6794 48.5608 89.3646 48.5123 90.0499 48.4752C90.3443 48.4584 90.6383 48.4308 90.9334 48.4121C91.5571 48.3719 92.1828 48.3708 92.8067 48.4088C92.9024 48.4154 92.9997 48.4071 93.0953 48.4154C93.7032 48.4722 94.0372 47.951 94.046 47.5018C94.0594 46.7799 94.0293 46.0588 94.0171 45.3369C94.0054 44.6706 94.039 44.0036 94.0531 43.3374C94.0581 43.1165 94.0464 42.8977 94.0064 42.6805C94.475 42.8043 94.73 43.155 94.7383 43.7593C94.7467 44.3353 94.7182 44.9127 94.7052 45.4892C94.6881 46.273 94.7283 47.0556 94.7458 47.8381C94.7525 48.0937 94.7425 48.3458 94.6296 48.5826C94.4678 48.9247 94.203 49.1243 93.8198 49.1054C93.023 49.0664 92.228 49.0517 91.4313 49.1066C90.788 49.1514 90.1434 49.217 89.4978 49.1892C88.6255 49.1514 87.8157 48.9436 87.1941 48.2726C87.1246 48.1969 87.0664 48.1123 87.0027 48.0315ZM31.0029 28.5229C30.4587 28.4314 30.2698 28.0253 30.3186 27.5391C30.3807 26.9246 30.3365 26.315 30.2852 25.7077C30.252 25.3122 30.2929 24.9244 30.3158 24.5361C30.3554 23.8634 30.3748 23.191 30.3954 22.5183C30.4356 21.2045 30.4304 19.8907 30.4332 18.5768C30.4339 18.4258 30.4433 18.2735 30.3938 18.1271C30.8341 18.2576 31.1085 18.5927 31.1203 19.0863C31.1428 20.014 31.1257 20.9425 31.0978 21.8708C31.0812 22.441 31.079 23.0116 31.069 23.5823C31.0566 24.297 31.0134 25.0101 30.9644 25.7231C30.939 26.1007 30.9591 26.4796 31.0046 26.8557C31.0718 27.4122 31 27.9669 31.0029 28.5229ZM77.2126 21.6488C78.1185 21.6075 79.0244 21.5668 79.9304 21.5255C80.6385 21.4937 81.345 21.5769 82.0539 21.5586C82.1772 21.5553 82.2993 21.5553 82.4216 21.5227C82.8718 21.4041 83.102 21.1001 83.0749 20.6326C83.0513 20.2142 83.0082 19.7963 82.9935 19.3779C82.9834 19.0968 83.004 18.8149 83.0182 18.5333C83.0324 18.2447 83.035 17.9573 82.9781 17.6722C83.3642 17.7154 83.5753 17.9667 83.6764 18.4654C83.7495 18.8301 83.6965 19.1915 83.6797 19.5532C83.6575 20.036 83.7053 20.5147 83.7425 20.9938C83.7467 21.0487 83.7495 21.1036 83.7542 21.158C83.8345 22.0333 83.279 22.2764 82.643 22.2474C81.3924 22.1895 80.1447 22.2091 78.8964 22.2904C78.6361 22.3075 78.3753 22.3128 78.115 22.3317C77.6221 22.3672 77.3447 22.1487 77.2126 21.6488ZM43.7663 47.8709C43.8553 47.8408 43.9068 47.9115 43.9657 47.9505C44.6804 48.4251 45.4684 48.6694 46.3195 48.7455C46.9333 48.8011 47.5394 48.7897 48.1449 48.6788C48.9116 48.5382 49.5271 48.1312 50.0826 47.608C50.1804 47.5155 50.285 47.3621 50.4466 47.4401C50.6156 47.5209 50.6243 47.7021 50.6326 47.8709C50.6415 48.0348 50.6579 48.199 50.6709 48.3631C50.1204 48.8961 49.4823 49.269 48.7162 49.3769C46.9774 49.6237 45.3662 49.3669 44.0124 48.1436C43.9214 48.0621 43.8248 47.9836 43.7663 47.8709ZM43.4839 29.9364C43.9105 30.1353 44.2919 30.058 44.6838 29.8066C45.2285 29.4566 45.8542 29.3048 46.4881 29.2123C47.3828 29.0807 48.2787 29.0852 49.1657 29.2826C49.6278 29.3858 50.0073 29.6125 50.2064 30.0706C48.7142 29.6543 47.2435 29.7263 45.7928 30.2658C45.5537 30.3543 45.3407 30.4912 45.1229 30.6188C44.872 30.7655 44.6106 30.7767 44.3527 30.6777C43.9803 30.5348 43.6179 30.3647 43.4839 29.9364ZM64.4783 24.9433C64.3431 25.0838 64.1708 25.1079 64.0043 25.0454C63.8556 24.9893 63.8532 24.8312 63.8456 24.6924C63.7753 23.3969 63.5126 22.1281 63.3286 20.8478C63.2595 20.3681 63.255 19.8776 63.2306 19.3919C63.2105 19.0088 63.2088 18.6247 63.1096 18.2499C63.4997 18.3431 63.7778 18.6824 63.8457 19.1647C63.92 19.6959 63.9188 20.2323 63.9454 20.7665C63.9956 21.7763 64.2282 22.7595 64.3655 23.7565C64.4199 24.1506 64.4776 24.5445 64.4783 24.9433ZM92.7981 25.2523C92.6482 25.2423 92.497 25.2423 92.3496 25.2199C92.2208 25.2004 92.1589 25.1106 92.1376 24.9773C92.0627 24.5033 92.1365 24.0305 92.1612 23.5602C92.1943 22.9216 92.2067 22.2831 92.1724 21.6463C92.1512 21.2607 92.1795 20.8796 92.1866 20.4964C92.192 20.1997 92.1507 19.9092 92.107 19.6176C92.6193 19.7799 92.8199 20.1714 92.8388 20.6658C92.8605 21.2354 92.8199 21.8072 92.8594 22.3751C92.9263 23.3377 92.8135 24.2932 92.7981 25.2523ZM84.8324 31.1806C84.9681 31.1799 85.1038 31.1756 85.2396 31.1799C85.6268 31.1917 85.7419 31.3133 85.7382 31.7059C85.7377 31.7531 85.7337 31.801 85.7313 31.8481C85.6564 31.8475 85.5808 31.8481 85.5058 31.8465C85.0524 31.8331 84.853 31.6345 84.8324 31.1806ZM71.9448 25.0663C71.8797 25.0797 71.8731 25.0184 71.8444 24.9855C71.8897 24.9972 71.9252 25.0226 71.9448 25.0663Z" fill="#A1ACC6"/>
<path d="M43.6758 47.7787C43.723 47.7938 43.7827 47.7958 43.7678 47.8719C43.7189 47.8585 43.697 47.8189 43.6758 47.7787ZM71.9948 25.1441C71.9446 25.1391 71.9312 25.1093 71.9429 25.0645C71.9742 25.0815 72.0184 25.0904 71.9948 25.1441ZM67.0638 30.7649C66.8702 30.6981 66.6806 30.6038 66.4677 30.6481C66.2251 30.6988 66.057 30.8618 65.9129 31.0513C65.5405 31.5428 65.4336 32.1065 65.488 32.7056C65.5972 33.9232 65.681 35.1443 65.838 36.3561C66.0446 37.9602 66.2636 39.5649 66.65 41.1396C66.6724 41.2311 66.7044 41.3202 66.732 41.4104C66.3166 41.1938 66.0651 40.8468 65.9507 40.4006C65.7051 39.4433 65.5683 38.4666 65.417 37.4921C65.3063 36.7743 65.1952 36.0566 65.1067 35.3361C65.0406 34.799 65.0123 34.2571 64.9628 33.7178C64.9177 33.2262 64.8691 32.7349 64.8169 32.244C64.7473 31.5853 64.805 30.9568 65.2117 30.3978C65.5617 29.9168 65.9661 29.8324 66.473 30.1489C66.7226 30.3041 66.9286 30.4999 67.0638 30.7649ZM49.882 37.422C48.9725 37.2354 48.318 37.6975 48.0666 38.6956C47.9886 39.0043 47.9692 39.3188 47.9674 39.6328C47.9632 40.3399 47.9704 41.0469 47.9798 41.7541C47.9868 42.2367 48.0755 42.706 48.2583 43.1552C47.8777 43.0158 47.6734 42.713 47.5331 42.3583C47.3589 41.9187 47.2957 41.4542 47.287 40.9868C47.2725 40.2572 47.2725 39.5273 47.287 38.7977C47.3004 38.1373 47.4451 37.514 47.9408 37.0283C48.5623 36.4187 49.5261 36.6157 49.882 37.422Z" fill="#A1ACC6"/>
<path d="M49.9181 37.4501C49.8999 37.445 49.8709 37.4534 49.881 37.4176C49.8933 37.4276 49.9057 37.4394 49.9181 37.4501ZM96.5616 47.4165C96.7234 47.4098 96.8933 47.4336 96.8915 47.2353C96.8903 47.0086 96.6951 47.0647 96.5552 47.0417C96.3822 47.014 96.4042 47.1209 96.3934 47.2346C96.3767 47.3976 96.4406 47.4436 96.5616 47.4165ZM96.8107 47.5942C96.9181 47.7635 97.0208 47.9246 97.1259 48.0899C96.9813 48.156 96.8974 48.1066 96.8331 47.9806C96.7776 47.8709 96.7003 47.7722 96.6461 47.6624C96.6024 47.5751 96.534 47.5721 96.4577 47.5816C96.3573 47.5933 96.4035 47.6748 96.3993 47.7257C96.3926 47.8214 96.3926 47.9181 96.3988 48.0143C96.4038 48.0962 96.3704 48.1175 96.2917 48.1198C96.2027 48.1232 96.1934 48.0804 96.1939 48.0089C96.1955 47.6654 96.1972 47.322 96.1932 46.9783C96.192 46.8947 96.2233 46.8734 96.3006 46.8763C96.4239 46.8813 96.5479 46.8758 96.6713 46.878C96.9327 46.8813 97.0662 46.9661 97.101 47.1431C97.1404 47.3479 97.0663 47.4685 96.8107 47.5942Z" fill="#A1ACC6"/>
</svg>
