<svg width="19" height="19" viewBox="0 0 19 19" fill="none" xmlns="http://www.w3.org/2000/svg">
<path d="M10.6643 6.75291C10.6059 6.69855 10.5591 6.633 10.5267 6.56017C10.4942 6.48733 10.4768 6.40871 10.4754 6.32899C10.474 6.24926 10.4886 6.17007 10.5185 6.09614C10.5484 6.02221 10.5928 5.95505 10.6492 5.89867C10.7056 5.84229 10.7727 5.79784 10.8467 5.76798C10.9206 5.73811 10.9998 5.72345 11.0795 5.72485C11.1592 5.72626 11.2379 5.74371 11.3107 5.77616C11.3835 5.80861 11.4491 5.8554 11.5034 5.91374L14.6701 9.08041C14.7813 9.19173 14.8437 9.34265 14.8437 9.49999C14.8437 9.65733 14.7813 9.80824 14.6701 9.91957L11.5034 13.0862C11.4491 13.1446 11.3835 13.1914 11.3107 13.2238C11.2379 13.2563 11.1592 13.2737 11.0795 13.2751C10.9998 13.2765 10.9206 13.2619 10.8467 13.232C10.7727 13.2021 10.7056 13.1577 10.6492 13.1013C10.5928 13.0449 10.5484 12.9778 10.5185 12.9038C10.4886 12.8299 10.474 12.7507 10.4754 12.671C10.4768 12.5913 10.4942 12.5126 10.5267 12.4398C10.5591 12.367 10.6059 12.3014 10.6643 12.2471L12.8176 10.0937L5.14636 10.0937C4.98888 10.0937 4.83786 10.0312 4.72651 9.91983C4.61516 9.80848 4.55261 9.65746 4.55261 9.49999C4.55261 9.34252 4.61516 9.19149 4.72651 9.08014C4.83786 8.96879 4.98888 8.90624 5.14636 8.90624L12.8176 8.90624L10.6643 6.75291Z" fill="black"/>
</svg>
