<svg width="24" height="25" viewBox="0 0 24 25" fill="none" xmlns="http://www.w3.org/2000/svg">
<g clip-path="url(#clip0_357_1597)">
<path fill-rule="evenodd" clip-rule="evenodd" d="M12 0.199219C5.3724 0.199219 0 5.58002 0 12.2196C0 17.5296 3.438 22.0356 8.2068 23.6244C8.8068 23.7348 9.0252 23.364 9.0252 23.0448C9.0252 22.7604 9.0156 22.0032 9.0096 21.0012C5.6712 21.7272 4.9668 19.3896 4.9668 19.3896C4.422 18 3.6348 17.6304 3.6348 17.6304C2.5452 16.8864 3.7176 16.9008 3.7176 16.9008C4.9212 16.9848 5.5548 18.1392 5.5548 18.1392C6.6252 19.9752 8.364 19.4448 9.0468 19.1376C9.1572 18.3612 9.4668 17.832 9.81 17.532C7.146 17.2284 4.344 16.1964 4.344 11.5908C4.344 10.2792 4.812 9.20522 5.5788 8.36522C5.4552 8.06162 5.0436 6.83882 5.6964 5.18522C5.6964 5.18522 6.7044 4.86122 8.9964 6.41642C9.97532 6.14944 10.9853 6.01345 12 6.01202C13.02 6.01682 14.046 6.15002 15.0048 6.41642C17.2956 4.86122 18.3012 5.18402 18.3012 5.18402C18.9564 6.83882 18.5436 8.06162 18.4212 8.36522C19.1892 9.20522 19.6548 10.2792 19.6548 11.5908C19.6548 16.2084 16.848 17.2248 14.1756 17.5224C14.6064 17.8932 14.9892 18.6264 14.9892 19.7484C14.9892 21.354 14.9748 22.6512 14.9748 23.0448C14.9748 23.3664 15.1908 23.7408 15.8004 23.6232C18.19 22.8217 20.2672 21.2896 21.7386 19.2433C23.2099 17.197 24.001 14.74 24 12.2196C24 5.58002 18.6264 0.199219 12 0.199219Z" fill="white"/>
</g>
<defs>
<clipPath id="clip0_357_1597">
<rect width="24" height="24" fill="white" transform="translate(0 0.199219)"/>
</clipPath>
</defs>
</svg>
