<svg width="90" height="91" viewBox="0 0 90 91" fill="none" xmlns="http://www.w3.org/2000/svg">
<circle cx="45" cy="45.1174" r="42.5" fill="#2865FF" stroke="#F8FAFF" stroke-width="5"/>
<path d="M36.0007 30.6174C36.2634 30.4204 36.5623 30.2771 36.8803 30.1956C37.1983 30.1142 37.5293 30.0961 37.8543 30.1426C38.1793 30.189 38.492 30.299 38.7745 30.4662C39.057 30.6335 39.3038 30.8548 39.5007 31.1174C39.6977 31.3801 39.841 31.6789 39.9225 31.997C40.004 32.315 40.022 32.646 39.9756 32.971C39.9292 33.296 39.8192 33.6087 39.6519 33.8912C39.4847 34.1737 39.2634 34.4204 39.0007 34.6174C35.0907 37.5499 32.8507 40.4024 31.5682 42.8924C33.3292 42.4391 35.1876 42.5457 36.8851 43.1973C38.5827 43.8489 40.0351 45.0132 41.0404 46.5283C42.0458 48.0435 42.5542 49.8342 42.4949 51.6515C42.4356 53.4689 41.8116 55.2226 40.7096 56.669C39.6076 58.1154 38.0824 59.1825 36.346 59.7221C34.6095 60.2616 32.7482 60.2468 31.0205 59.6797C29.2929 59.1126 27.7848 58.0214 26.706 56.5577C25.6272 55.094 25.0311 53.3305 25.0007 51.5124C24.684 48.4423 25.1199 45.3412 26.2707 42.4774C27.7632 38.7124 30.6807 34.6074 36.0007 30.6174ZM58.5007 30.6174C58.7634 30.4204 59.0623 30.2771 59.3803 30.1956C59.6983 30.1142 60.0293 30.0961 60.3543 30.1426C60.6793 30.189 60.992 30.299 61.2745 30.4662C61.557 30.6335 61.8038 30.8548 62.0007 31.1174C62.1977 31.3801 62.341 31.6789 62.4225 31.997C62.504 32.315 62.522 32.646 62.4756 32.971C62.4292 33.296 62.3192 33.6087 62.1519 33.8912C61.9847 34.1737 61.7634 34.4204 61.5007 34.6174C57.5907 37.5499 55.3507 40.4024 54.0682 42.8924C55.8292 42.4391 57.6876 42.5457 59.3851 43.1973C61.0827 43.8489 62.5351 45.0132 63.5405 46.5283C64.5458 48.0435 65.0542 49.8342 64.9949 51.6515C64.9356 53.4689 64.3116 55.2226 63.2096 56.669C62.1076 58.1154 60.5824 59.1825 58.846 59.7221C57.1096 60.2616 55.2482 60.2468 53.5205 59.6797C51.7929 59.1126 50.2848 58.0214 49.206 56.5577C48.1272 55.094 47.5311 53.3305 47.5007 51.5124C47.184 48.4423 47.6199 45.3412 48.7707 42.4774C50.2657 38.7124 53.1807 34.6074 58.5007 30.6174Z" fill="#E4ECFF"/>
</svg>
