<svg width="24" height="25" viewBox="0 0 24 25" fill="none" xmlns="http://www.w3.org/2000/svg">
<path d="M5.40001 24.1992H0.299995V8.14922H5.40001V24.1992ZM2.85 5.89922C1.2 5.89922 0 4.69922 0 3.04922C0 1.39922 1.35 0.199219 2.85 0.199219C4.5 0.199219 5.7 1.39922 5.7 3.04922C5.7 4.69922 4.5 5.89922 2.85 5.89922ZM24 24.1992H18.9V15.4992C18.9 12.9492 17.85 12.1992 16.35 12.1992C14.85 12.1992 13.35 13.3992 13.35 15.6492V24.1992H8.25V8.14922H13.05V10.3992C13.5 9.34922 15.3 7.69922 17.85 7.69922C20.7 7.69922 23.7 9.34922 23.7 14.2992V24.1992H24Z" fill="white"/>
</svg>
