<svg width="55" height="55" viewBox="0 0 55 55" fill="none" xmlns="http://www.w3.org/2000/svg">
<path fill-rule="evenodd" clip-rule="evenodd" d="M27.5 0C24.2872 0 21.6827 2.6045 21.6827 5.81731V13.4556L16.2815 8.05448C14.0097 5.78268 10.3264 5.78268 8.05463 8.05448C5.78283 10.3263 5.78283 14.0096 8.05463 16.2814L13.4559 21.6827H5.81731C2.6045 21.6827 0 24.2872 0 27.5C0 30.7128 2.6045 33.3173 5.81731 33.3173H13.4559L8.05465 38.7186C5.78285 40.9904 5.78285 44.6737 8.05465 46.9455C10.3265 49.2173 14.0098 49.2173 16.2816 46.9455L21.6827 41.5444V49.1827C21.6827 52.3955 24.2872 55 27.5 55C30.7128 55 33.3173 52.3955 33.3173 49.1827V41.5441L38.7186 46.9453C40.9904 49.2171 44.6737 49.2171 46.9455 46.9453C49.2173 44.6735 49.2173 40.9902 46.9455 38.7184L41.5444 33.3173H49.1827C52.3955 33.3173 55 30.7128 55 27.5C55 24.2872 52.3955 21.6827 49.1827 21.6827H41.5444L46.9455 16.2815C49.2173 14.0097 49.2173 10.3264 46.9455 8.05463C44.6737 5.78283 40.9904 5.78283 38.7186 8.05463L33.3173 13.4559V5.81731C33.3173 2.6045 30.7128 0 27.5 0ZM27.4999 34.9045C31.589 34.9045 34.9038 31.5897 34.9038 27.5007C34.9038 23.4117 31.589 20.0968 27.4999 20.0968C23.4109 20.0968 20.0961 23.4117 20.0961 27.5007C20.0961 31.5897 23.4109 34.9045 27.4999 34.9045Z" fill="#2865FF"/>
</svg>
