<svg width="24" height="24" viewBox="0 0 24 24" fill="none" xmlns="http://www.w3.org/2000/svg">
<g clip-path="url(#clip0_594_301)">
<path d="M18.1542 4.11787C16.3772 2.33662 14.0107 1.35693 11.4958 1.35693C6.30469 1.35693 2.08058 5.58104 2.08058 10.7721C2.08058 12.4304 2.51317 14.0505 3.33594 15.4797L2 20.3569L6.99174 19.0464C8.36585 19.7971 9.91384 20.1915 11.4915 20.1915H11.4958C16.6826 20.1915 21 15.9674 21 10.7764C21 8.2614 19.9312 5.89912 18.1542 4.11787ZM11.4958 18.6054C10.0877 18.6054 8.70937 18.2279 7.50915 17.5154L7.225 17.3458L4.26473 18.1219L5.05357 15.2337L4.86696 14.9368C4.08237 13.69 3.67098 12.2522 3.67098 10.7721C3.67098 6.45894 7.18259 2.94734 11.5 2.94734C13.5908 2.94734 15.5545 3.76162 17.0304 5.24175C18.5062 6.72189 19.4138 8.6855 19.4096 10.7764C19.4096 15.0938 15.8089 18.6054 11.4958 18.6054ZM15.7877 12.7442C15.5545 12.6255 14.3967 12.0572 14.1804 11.9808C13.9641 11.9002 13.8071 11.8621 13.6502 12.0996C13.4933 12.3371 13.0437 12.863 12.9038 13.0241C12.7681 13.181 12.6281 13.2022 12.3949 13.0835C11.0123 12.3922 10.1047 11.8493 9.19286 10.2844C8.95112 9.86876 9.4346 9.89845 9.88415 8.99934C9.96049 8.84242 9.92232 8.70671 9.86295 8.58796C9.80357 8.46921 9.33281 7.3114 9.13772 6.84064C8.94688 6.3826 8.75179 6.44622 8.60759 6.43774C8.47187 6.42926 8.31495 6.42926 8.15804 6.42926C8.00112 6.42926 7.74665 6.48863 7.53036 6.72189C7.31406 6.95939 6.70759 7.52769 6.70759 8.6855C6.70759 9.84332 7.55156 10.963 7.66607 11.1199C7.78482 11.2768 9.32433 13.6518 11.6866 14.6739C13.1795 15.3185 13.7647 15.3737 14.5112 15.2634C14.965 15.1955 15.9022 14.6951 16.0973 14.1438C16.2924 13.5924 16.2924 13.1217 16.233 13.0241C16.1779 12.9181 16.021 12.8587 15.7877 12.7442Z" fill="white"/>
</g>
<defs>
<clipPath id="clip0_594_301">
<rect width="19" height="21.7143" fill="white" transform="translate(2)"/>
</clipPath>
</defs>
</svg>
